G75*
%MOIN*%
%OFA0B0*%
%FSLAX25Y25*%
%IPPOS*%
%LPD*%
%AMOC8*
5,1,8,0,0,1.08239X$1,22.5*
%
%ADD10C,0.00700*%
%ADD11OC8,0.04800*%
%ADD12C,0.04800*%
%ADD13OC8,0.05400*%
%ADD14OC8,0.06000*%
%ADD15C,0.06000*%
%ADD16R,0.04156X0.04156*%
%ADD17C,0.03800*%
%ADD18C,0.05906*%
%ADD19OC8,0.06300*%
%ADD20C,0.06300*%
%ADD21C,0.07677*%
%ADD22R,0.15000X0.08200*%
%ADD23R,0.35000X0.45000*%
%ADD24R,0.24409X0.21260*%
%ADD25R,0.06299X0.03937*%
%ADD26R,0.05118X0.06299*%
%ADD27R,0.05906X0.07874*%
%ADD28R,0.06299X0.03150*%
%ADD29R,0.05906X0.05118*%
%ADD30C,0.23000*%
%ADD31C,0.05400*%
%ADD32R,0.03150X0.06299*%
%ADD33R,0.09449X0.09449*%
%ADD34C,0.03200*%
%ADD35C,0.01600*%
%ADD36C,0.03762*%
%ADD37C,0.01000*%
%ADD38C,0.10000*%
%ADD39C,0.05000*%
%ADD40C,0.07000*%
%ADD41R,0.03762X0.03762*%
%ADD42C,0.02400*%
D10*
X0088601Y0060712D02*
X0090753Y0060712D01*
X0091470Y0061429D01*
X0091470Y0062864D01*
X0090753Y0063581D01*
X0088601Y0063581D01*
X0088601Y0065016D02*
X0088601Y0060712D01*
X0093105Y0060712D02*
X0094540Y0060712D01*
X0093822Y0060712D02*
X0093822Y0065016D01*
X0094540Y0065016D01*
X0096892Y0065016D02*
X0096892Y0065733D01*
X0096892Y0063581D02*
X0096892Y0060712D01*
X0097609Y0060712D02*
X0096174Y0060712D01*
X0096892Y0063581D02*
X0097609Y0063581D01*
X0099344Y0062864D02*
X0099344Y0060712D01*
X0099344Y0062864D02*
X0100061Y0063581D01*
X0101495Y0063581D01*
X0102213Y0062864D01*
X0103948Y0063581D02*
X0106099Y0063581D01*
X0106817Y0062864D01*
X0106817Y0061429D01*
X0106099Y0060712D01*
X0103948Y0060712D01*
X0102213Y0060712D02*
X0102213Y0065016D01*
X0103948Y0068212D02*
X0106099Y0068212D01*
X0106817Y0068929D01*
X0106817Y0070364D01*
X0106099Y0071081D01*
X0103948Y0071081D01*
X0103948Y0072516D02*
X0103948Y0068212D01*
X0108501Y0071081D02*
X0109219Y0071081D01*
X0110653Y0069647D01*
X0110653Y0071081D02*
X0110653Y0068212D01*
X0112388Y0068212D02*
X0114540Y0068212D01*
X0115257Y0068929D01*
X0114540Y0069647D01*
X0112388Y0069647D01*
X0112388Y0070364D02*
X0112388Y0068212D01*
X0112388Y0070364D02*
X0113105Y0071081D01*
X0114540Y0071081D01*
X0116992Y0072516D02*
X0116992Y0068212D01*
X0118427Y0069647D01*
X0119861Y0068212D01*
X0119861Y0072516D01*
X0126200Y0070364D02*
X0126200Y0069647D01*
X0129069Y0069647D01*
X0129069Y0070364D02*
X0128352Y0071081D01*
X0126917Y0071081D01*
X0126200Y0070364D01*
X0126917Y0068212D02*
X0128352Y0068212D01*
X0129069Y0068929D01*
X0129069Y0070364D01*
X0130804Y0071081D02*
X0132238Y0068212D01*
X0133673Y0071081D01*
X0135408Y0070364D02*
X0135408Y0069647D01*
X0138277Y0069647D01*
X0138277Y0070364D02*
X0137560Y0071081D01*
X0136125Y0071081D01*
X0135408Y0070364D01*
X0136125Y0068212D02*
X0137560Y0068212D01*
X0138277Y0068929D01*
X0138277Y0070364D01*
X0139912Y0071081D02*
X0141346Y0071081D01*
X0140629Y0071799D02*
X0140629Y0068929D01*
X0139912Y0068212D01*
X0143081Y0068929D02*
X0143798Y0068212D01*
X0145233Y0068212D01*
X0145950Y0068929D01*
X0145233Y0070364D02*
X0143798Y0070364D01*
X0143081Y0069647D01*
X0143081Y0068929D01*
X0145233Y0070364D02*
X0145950Y0071081D01*
X0145950Y0071799D01*
X0145233Y0072516D01*
X0143798Y0072516D01*
X0143081Y0071799D01*
X0143081Y0065016D02*
X0145950Y0065016D01*
X0145950Y0060712D01*
X0143081Y0060712D01*
X0141346Y0060712D02*
X0141346Y0063581D01*
X0141346Y0062147D02*
X0139912Y0063581D01*
X0139194Y0063581D01*
X0137509Y0063581D02*
X0136792Y0063581D01*
X0136792Y0060712D01*
X0137509Y0060712D02*
X0136075Y0060712D01*
X0134440Y0061429D02*
X0134440Y0062864D01*
X0133723Y0063581D01*
X0131571Y0063581D01*
X0131571Y0060712D02*
X0133723Y0060712D01*
X0134440Y0061429D01*
X0136792Y0065016D02*
X0136792Y0065733D01*
X0144515Y0062864D02*
X0145950Y0062864D01*
X0145233Y0057516D02*
X0145950Y0056799D01*
X0145950Y0053929D01*
X0145233Y0053212D01*
X0143798Y0053212D01*
X0143081Y0053929D01*
X0143081Y0055364D01*
X0144515Y0055364D01*
X0143081Y0056799D02*
X0143798Y0057516D01*
X0145233Y0057516D01*
X0140629Y0056081D02*
X0139194Y0056081D01*
X0138477Y0055364D01*
X0138477Y0053212D01*
X0140629Y0053212D01*
X0141346Y0053929D01*
X0140629Y0054647D01*
X0138477Y0054647D01*
X0136742Y0055364D02*
X0136742Y0053929D01*
X0136025Y0053212D01*
X0134590Y0053212D01*
X0133873Y0053929D01*
X0133873Y0055364D01*
X0134590Y0056081D01*
X0136025Y0056081D01*
X0136742Y0055364D01*
X0127534Y0053929D02*
X0126817Y0053212D01*
X0125382Y0053212D01*
X0124665Y0053929D01*
X0124665Y0055364D01*
X0126100Y0055364D01*
X0127534Y0056799D02*
X0127534Y0053929D01*
X0127534Y0056799D02*
X0126817Y0057516D01*
X0125382Y0057516D01*
X0124665Y0056799D01*
X0122930Y0056081D02*
X0122930Y0053929D01*
X0122213Y0053212D01*
X0120061Y0053212D01*
X0120061Y0056081D01*
X0117609Y0056081D02*
X0116175Y0056081D01*
X0115457Y0055364D01*
X0115457Y0053212D01*
X0117609Y0053212D01*
X0118326Y0053929D01*
X0117609Y0054647D01*
X0115457Y0054647D01*
X0113723Y0056081D02*
X0111571Y0056081D01*
X0110853Y0055364D01*
X0110853Y0053212D01*
X0109119Y0053929D02*
X0108401Y0053212D01*
X0106249Y0053212D01*
X0106249Y0052495D02*
X0106249Y0056081D01*
X0108401Y0056081D01*
X0109119Y0055364D01*
X0109119Y0053929D01*
X0107684Y0051778D02*
X0106967Y0051778D01*
X0106249Y0052495D01*
X0104515Y0053929D02*
X0103797Y0053212D01*
X0101646Y0053212D01*
X0101646Y0052495D02*
X0102363Y0051778D01*
X0103080Y0051778D01*
X0101646Y0052495D02*
X0101646Y0056081D01*
X0099193Y0056081D02*
X0097759Y0056081D01*
X0097042Y0055364D01*
X0097042Y0053212D01*
X0099193Y0053212D01*
X0099911Y0053929D01*
X0099193Y0054647D01*
X0097042Y0054647D01*
X0095307Y0056081D02*
X0095307Y0053212D01*
X0092438Y0053212D02*
X0092438Y0055364D01*
X0093155Y0056081D01*
X0095307Y0056081D01*
X0104515Y0056081D02*
X0104515Y0053929D01*
X0108551Y0060712D02*
X0110703Y0060712D01*
X0111421Y0061429D01*
X0111421Y0062864D01*
X0110703Y0063581D01*
X0108551Y0063581D01*
X0108551Y0065016D02*
X0108551Y0060712D01*
X0113155Y0061429D02*
X0113155Y0062864D01*
X0113873Y0063581D01*
X0115307Y0063581D01*
X0116024Y0062864D01*
X0116024Y0061429D01*
X0115307Y0060712D01*
X0113873Y0060712D01*
X0113155Y0061429D01*
X0117759Y0061429D02*
X0117759Y0062864D01*
X0118477Y0063581D01*
X0119911Y0063581D01*
X0120628Y0062864D01*
X0120628Y0061429D01*
X0119911Y0060712D01*
X0118477Y0060712D01*
X0117759Y0061429D01*
X0122363Y0061429D02*
X0122363Y0062864D01*
X0123798Y0062864D01*
X0125232Y0064299D02*
X0125232Y0061429D01*
X0124515Y0060712D01*
X0123081Y0060712D01*
X0122363Y0061429D01*
X0122363Y0064299D02*
X0123081Y0065016D01*
X0124515Y0065016D01*
X0125232Y0064299D01*
X0113723Y0056081D02*
X0113723Y0053212D01*
D11*
X0112050Y0203112D03*
X0128300Y0203112D03*
X0128300Y0253112D03*
X0112050Y0253112D03*
X0083300Y0301862D03*
X0083300Y0311862D03*
X0093300Y0311862D03*
X0093300Y0321862D03*
X0083300Y0321862D03*
X0083300Y0331862D03*
X0093300Y0331862D03*
D12*
X0093300Y0301862D03*
D13*
X0094550Y0189362D03*
X0154550Y0189362D03*
D14*
X0259300Y0123862D03*
X0269300Y0123862D03*
X0269300Y0113862D03*
X0259300Y0113862D03*
X0259300Y0103862D03*
X0269300Y0103862D03*
X0275800Y0224362D03*
X0285800Y0224362D03*
X0285800Y0234362D03*
X0275800Y0234362D03*
X0275800Y0244362D03*
X0285800Y0244362D03*
D15*
X0245800Y0323862D02*
X0245800Y0329862D01*
X0235800Y0329862D02*
X0235800Y0323862D01*
X0225800Y0323862D02*
X0225800Y0329862D01*
X0102550Y0173112D02*
X0096550Y0173112D01*
X0096550Y0163112D02*
X0102550Y0163112D01*
X0102550Y0153112D02*
X0096550Y0153112D01*
D16*
X0075300Y0262382D03*
X0075300Y0269862D03*
X0075300Y0277343D03*
D17*
X0150800Y0271862D03*
X0160800Y0271862D03*
X0170800Y0271862D03*
D18*
X0150800Y0356409D02*
X0150800Y0362315D01*
X0140800Y0362315D02*
X0140800Y0356409D01*
X0130800Y0356409D02*
X0130800Y0362315D01*
X0120800Y0362315D02*
X0120800Y0356409D01*
X0110800Y0356409D02*
X0110800Y0362315D01*
X0100800Y0362315D02*
X0100800Y0356409D01*
D19*
X0211800Y0353612D03*
X0240800Y0360862D03*
X0275800Y0361362D03*
X0317800Y0324362D03*
X0303800Y0234362D03*
X0304300Y0147862D03*
D20*
X0304300Y0161862D03*
X0317800Y0234362D03*
X0303800Y0324362D03*
X0275800Y0347362D03*
X0240800Y0346862D03*
X0197800Y0353612D03*
D21*
X0124550Y0177876D03*
X0115692Y0171970D03*
X0115692Y0163112D03*
X0115692Y0154254D03*
X0124550Y0148348D03*
X0133408Y0154254D03*
X0133408Y0171970D03*
D22*
X0310800Y0339362D03*
X0310800Y0359362D03*
D23*
X0355800Y0349362D03*
D24*
X0170957Y0354362D03*
D25*
X0199698Y0345386D03*
X0199698Y0363339D03*
D26*
X0265810Y0313112D03*
X0273290Y0313112D03*
D27*
X0257956Y0313112D03*
X0246144Y0313112D03*
D28*
X0246243Y0305612D03*
X0232857Y0305612D03*
D29*
X0217050Y0326872D03*
X0217050Y0334352D03*
D30*
X0072050Y0363112D03*
X0414550Y0363112D03*
X0312550Y0024612D03*
X0073050Y0023612D03*
D31*
X0267300Y0327162D02*
X0267300Y0332562D01*
X0277300Y0332562D02*
X0277300Y0327162D01*
D32*
X0299300Y0342169D03*
X0299300Y0355555D03*
D33*
X0388568Y0362327D03*
X0388568Y0340673D03*
X0413568Y0339327D03*
X0413568Y0317673D03*
X0410568Y0268327D03*
X0410568Y0246673D03*
X0408568Y0192327D03*
X0408568Y0170673D03*
X0409568Y0106327D03*
X0409568Y0084673D03*
X0409568Y0041327D03*
X0409568Y0019673D03*
X0071568Y0174673D03*
X0071568Y0196327D03*
X0071568Y0221673D03*
X0071568Y0243327D03*
D34*
X0199698Y0345386D02*
X0199698Y0351715D01*
X0197800Y0353612D01*
X0275800Y0347362D02*
X0276300Y0346862D01*
X0285300Y0346862D01*
X0297800Y0334362D01*
X0299300Y0334362D01*
X0305800Y0334362D01*
X0310800Y0334362D01*
X0310800Y0339362D01*
X0310800Y0334362D02*
X0315800Y0334362D01*
X0310800Y0359362D02*
X0310800Y0364362D01*
X0305800Y0364362D01*
X0310800Y0364362D02*
X0315800Y0364362D01*
D35*
X0255810Y0325602D02*
X0252050Y0321843D01*
X0252050Y0301862D01*
X0244550Y0294362D01*
X0244550Y0293112D01*
X0246243Y0305612D02*
X0246144Y0306961D01*
X0246144Y0313112D01*
X0245800Y0313457D01*
X0245800Y0326862D01*
X0257956Y0313112D02*
X0265810Y0313112D01*
X0232857Y0305612D02*
X0227050Y0305612D01*
X0225800Y0306862D01*
X0225800Y0326862D02*
X0225790Y0326872D01*
X0217050Y0326872D01*
X0185800Y0316862D02*
X0185800Y0301862D01*
X0205800Y0284362D02*
X0225800Y0264362D01*
X0220800Y0261862D02*
X0203300Y0279362D01*
X0200800Y0274362D02*
X0215800Y0259362D01*
X0160800Y0284362D02*
X0155800Y0286862D01*
X0143300Y0304362D02*
X0133300Y0294362D01*
X0123300Y0324362D02*
X0123300Y0329012D01*
X0129400Y0335112D01*
X0167050Y0345612D02*
X0167050Y0350228D01*
X0171184Y0354362D01*
X0173300Y0354362D01*
X0171184Y0354362D02*
X0170957Y0354362D01*
X0275800Y0254362D02*
X0275800Y0244362D01*
X0280800Y0239362D02*
X0285800Y0244362D01*
X0280800Y0239362D02*
X0280800Y0229362D01*
X0275800Y0224362D01*
X0280800Y0197612D02*
X0280800Y0194362D01*
X0285550Y0189112D01*
X0285550Y0184362D01*
X0268300Y0167862D02*
X0268300Y0130862D01*
X0264300Y0126862D01*
X0264300Y0118862D01*
X0269300Y0113862D01*
X0259300Y0113862D02*
X0252300Y0113862D01*
X0252300Y0132862D01*
X0254300Y0134862D01*
X0258300Y0134862D01*
X0271300Y0123862D02*
X0284300Y0110862D01*
X0284300Y0108862D01*
X0284300Y0121862D02*
X0285300Y0122862D01*
X0259300Y0113862D02*
X0259300Y0103862D01*
X0290300Y0090862D02*
X0290300Y0088862D01*
X0281300Y0067862D02*
X0282300Y0066862D01*
X0282300Y0065862D01*
X0343300Y0076862D02*
X0345300Y0076862D01*
X0356300Y0112862D02*
X0361300Y0112862D01*
X0258300Y0160362D02*
X0254300Y0164362D01*
X0248300Y0164362D01*
X0275800Y0254362D02*
X0283300Y0261862D01*
X0100100Y0220762D02*
X0084300Y0207862D01*
D36*
X0100100Y0220762D03*
X0148300Y0231862D03*
X0148300Y0246862D03*
X0155800Y0286862D03*
X0143300Y0304362D03*
X0133300Y0294362D03*
X0123300Y0299362D03*
X0123300Y0324362D03*
X0129400Y0335112D03*
X0167050Y0345612D03*
X0185800Y0316862D03*
X0185800Y0301862D03*
X0188300Y0296862D03*
X0205800Y0284362D03*
X0203300Y0279362D03*
X0200800Y0274362D03*
X0215800Y0259362D03*
X0220800Y0261862D03*
X0225800Y0264362D03*
X0233300Y0259362D03*
X0210800Y0241862D03*
X0210800Y0224362D03*
X0228300Y0224362D03*
X0238300Y0209362D03*
X0225300Y0200362D03*
X0190800Y0166862D03*
X0180800Y0194362D03*
X0153300Y0166862D03*
X0248300Y0164362D03*
X0258300Y0160362D03*
X0268300Y0176862D03*
X0285550Y0184362D03*
X0280800Y0197612D03*
X0300800Y0206862D03*
X0300800Y0176862D03*
X0340800Y0199362D03*
X0340800Y0239362D03*
X0300800Y0264362D03*
X0283300Y0261862D03*
X0273300Y0281862D03*
X0277300Y0286362D03*
X0285800Y0306862D03*
X0298300Y0294362D03*
X0305800Y0299362D03*
X0305800Y0304362D03*
X0305800Y0334362D03*
X0310800Y0334362D03*
X0315800Y0334362D03*
X0315800Y0364362D03*
X0310800Y0364362D03*
X0305800Y0364362D03*
X0244550Y0293112D03*
X0225800Y0306862D03*
X0203800Y0325862D03*
X0088300Y0269362D03*
X0340800Y0286862D03*
D37*
X0060400Y0018323D02*
X0060400Y0013732D01*
X0064170Y0009962D01*
X0422430Y0009962D01*
X0426200Y0013732D01*
X0426200Y0357330D01*
X0425714Y0356421D01*
X0425004Y0355359D01*
X0424194Y0354371D01*
X0423291Y0353468D01*
X0422303Y0352658D01*
X0421241Y0351948D01*
X0420115Y0351346D01*
X0418935Y0350857D01*
X0417713Y0350487D01*
X0416460Y0350237D01*
X0415189Y0350112D01*
X0415050Y0350112D01*
X0415050Y0362612D01*
X0414050Y0362612D01*
X0414050Y0350112D01*
X0413911Y0350112D01*
X0412640Y0350237D01*
X0411387Y0350487D01*
X0410165Y0350857D01*
X0408985Y0351346D01*
X0407859Y0351948D01*
X0406797Y0352658D01*
X0405809Y0353468D01*
X0404906Y0354371D01*
X0404096Y0355359D01*
X0403386Y0356421D01*
X0402784Y0357547D01*
X0402295Y0358727D01*
X0401924Y0359950D01*
X0401675Y0361202D01*
X0401550Y0362474D01*
X0401550Y0362612D01*
X0414050Y0362612D01*
X0414050Y0363612D01*
X0401550Y0363612D01*
X0401550Y0363751D01*
X0401675Y0365022D01*
X0401924Y0366275D01*
X0402295Y0367497D01*
X0402784Y0368677D01*
X0403386Y0369804D01*
X0404096Y0370866D01*
X0404906Y0371853D01*
X0405809Y0372756D01*
X0406797Y0373566D01*
X0407859Y0374276D01*
X0408020Y0374362D01*
X0079764Y0374362D01*
X0080401Y0373995D01*
X0082933Y0371463D01*
X0084723Y0368362D01*
X0085650Y0364903D01*
X0085650Y0361322D01*
X0084723Y0357863D01*
X0082933Y0354762D01*
X0080401Y0352229D01*
X0077299Y0350439D01*
X0073840Y0349512D01*
X0070260Y0349512D01*
X0066801Y0350439D01*
X0063699Y0352229D01*
X0061167Y0354762D01*
X0060400Y0356091D01*
X0060400Y0281606D01*
X0061007Y0283072D01*
X0062484Y0284549D01*
X0064413Y0285348D01*
X0066502Y0285348D01*
X0068431Y0284549D01*
X0069908Y0283072D01*
X0070707Y0281143D01*
X0070707Y0279054D01*
X0069908Y0277125D01*
X0068431Y0275648D01*
X0066502Y0274849D01*
X0064413Y0274849D01*
X0062484Y0275648D01*
X0061007Y0277125D01*
X0060400Y0278590D01*
X0060400Y0261921D01*
X0061007Y0263387D01*
X0062484Y0264864D01*
X0064413Y0265663D01*
X0066502Y0265663D01*
X0068431Y0264864D01*
X0069908Y0263387D01*
X0070707Y0261458D01*
X0070707Y0259369D01*
X0069908Y0257440D01*
X0068431Y0255963D01*
X0066502Y0255164D01*
X0064413Y0255164D01*
X0062484Y0255963D01*
X0061007Y0257440D01*
X0060400Y0258905D01*
X0060400Y0028902D01*
X0062167Y0031963D01*
X0064699Y0034495D01*
X0067801Y0036285D01*
X0071260Y0037212D01*
X0074840Y0037212D01*
X0078299Y0036285D01*
X0081401Y0034495D01*
X0083933Y0031963D01*
X0085723Y0028862D01*
X0086650Y0025403D01*
X0086650Y0021822D01*
X0085723Y0018363D01*
X0083933Y0015262D01*
X0081401Y0012729D01*
X0078299Y0010939D01*
X0074840Y0010012D01*
X0071260Y0010012D01*
X0067801Y0010939D01*
X0064699Y0012729D01*
X0062167Y0015262D01*
X0060400Y0018323D01*
X0060400Y0017847D02*
X0060674Y0017847D01*
X0060400Y0016849D02*
X0061251Y0016849D01*
X0061827Y0015850D02*
X0060400Y0015850D01*
X0060400Y0014852D02*
X0062577Y0014852D01*
X0063576Y0013853D02*
X0060400Y0013853D01*
X0061277Y0012855D02*
X0064574Y0012855D01*
X0066212Y0011856D02*
X0062276Y0011856D01*
X0063274Y0010858D02*
X0068104Y0010858D01*
X0077996Y0010858D02*
X0423326Y0010858D01*
X0424324Y0011856D02*
X0315057Y0011856D01*
X0314460Y0011737D02*
X0315713Y0011987D01*
X0316935Y0012357D01*
X0318115Y0012846D01*
X0319241Y0013448D01*
X0320303Y0014158D01*
X0321291Y0014968D01*
X0322194Y0015871D01*
X0323004Y0016859D01*
X0323714Y0017921D01*
X0324316Y0019047D01*
X0324805Y0020227D01*
X0325176Y0021450D01*
X0325425Y0022702D01*
X0325550Y0023974D01*
X0325550Y0024112D01*
X0313050Y0024112D01*
X0313050Y0011612D01*
X0313189Y0011612D01*
X0314460Y0011737D01*
X0313050Y0011856D02*
X0312050Y0011856D01*
X0312050Y0011612D02*
X0312050Y0024112D01*
X0313050Y0024112D01*
X0313050Y0025112D01*
X0325550Y0025112D01*
X0325550Y0025251D01*
X0325425Y0026522D01*
X0325176Y0027775D01*
X0324805Y0028997D01*
X0324316Y0030177D01*
X0323714Y0031304D01*
X0323004Y0032366D01*
X0322194Y0033353D01*
X0321291Y0034256D01*
X0320303Y0035066D01*
X0319241Y0035776D01*
X0318115Y0036378D01*
X0316935Y0036867D01*
X0315713Y0037238D01*
X0314460Y0037487D01*
X0313189Y0037612D01*
X0313050Y0037612D01*
X0313050Y0025112D01*
X0312050Y0025112D01*
X0312050Y0024112D01*
X0299550Y0024112D01*
X0299550Y0023974D01*
X0299675Y0022702D01*
X0299924Y0021450D01*
X0300295Y0020227D01*
X0300784Y0019047D01*
X0301386Y0017921D01*
X0302096Y0016859D01*
X0302906Y0015871D01*
X0303809Y0014968D01*
X0304797Y0014158D01*
X0305859Y0013448D01*
X0306985Y0012846D01*
X0308165Y0012357D01*
X0309387Y0011987D01*
X0310640Y0011737D01*
X0311911Y0011612D01*
X0312050Y0011612D01*
X0312050Y0012855D02*
X0313050Y0012855D01*
X0313050Y0013853D02*
X0312050Y0013853D01*
X0312050Y0014852D02*
X0313050Y0014852D01*
X0313050Y0015850D02*
X0312050Y0015850D01*
X0312050Y0016849D02*
X0313050Y0016849D01*
X0313050Y0017847D02*
X0312050Y0017847D01*
X0312050Y0018846D02*
X0313050Y0018846D01*
X0313050Y0019844D02*
X0312050Y0019844D01*
X0312050Y0020843D02*
X0313050Y0020843D01*
X0313050Y0021841D02*
X0312050Y0021841D01*
X0312050Y0022840D02*
X0313050Y0022840D01*
X0313050Y0023838D02*
X0312050Y0023838D01*
X0312050Y0024837D02*
X0086650Y0024837D01*
X0086650Y0023838D02*
X0299563Y0023838D01*
X0299662Y0022840D02*
X0086650Y0022840D01*
X0086650Y0021841D02*
X0299846Y0021841D01*
X0300108Y0020843D02*
X0086388Y0020843D01*
X0086120Y0019844D02*
X0300454Y0019844D01*
X0300892Y0018846D02*
X0085853Y0018846D01*
X0085426Y0017847D02*
X0301435Y0017847D01*
X0302104Y0016849D02*
X0084849Y0016849D01*
X0084273Y0015850D02*
X0302927Y0015850D01*
X0303951Y0014852D02*
X0083523Y0014852D01*
X0082524Y0013853D02*
X0305252Y0013853D01*
X0306969Y0012855D02*
X0081526Y0012855D01*
X0079888Y0011856D02*
X0310043Y0011856D01*
X0318131Y0012855D02*
X0403968Y0012855D01*
X0403973Y0012849D02*
X0415162Y0012849D01*
X0416392Y0014079D01*
X0416392Y0025267D01*
X0415162Y0026498D01*
X0403973Y0026498D01*
X0402743Y0025267D01*
X0402743Y0014079D01*
X0403973Y0012849D01*
X0402969Y0013853D02*
X0319847Y0013853D01*
X0321149Y0014852D02*
X0402743Y0014852D01*
X0402743Y0015850D02*
X0322173Y0015850D01*
X0322996Y0016849D02*
X0402743Y0016849D01*
X0402743Y0017847D02*
X0323665Y0017847D01*
X0324208Y0018846D02*
X0402743Y0018846D01*
X0402743Y0019844D02*
X0324646Y0019844D01*
X0324992Y0020843D02*
X0402743Y0020843D01*
X0402743Y0021841D02*
X0325254Y0021841D01*
X0325438Y0022840D02*
X0402743Y0022840D01*
X0402743Y0023838D02*
X0325537Y0023838D01*
X0325492Y0025835D02*
X0403311Y0025835D01*
X0402743Y0024837D02*
X0313050Y0024837D01*
X0313050Y0025835D02*
X0312050Y0025835D01*
X0312050Y0025112D02*
X0312050Y0037612D01*
X0311911Y0037612D01*
X0310640Y0037487D01*
X0309387Y0037238D01*
X0308165Y0036867D01*
X0306985Y0036378D01*
X0305859Y0035776D01*
X0304797Y0035066D01*
X0303809Y0034256D01*
X0302906Y0033353D01*
X0302096Y0032366D01*
X0301386Y0031304D01*
X0300784Y0030177D01*
X0300295Y0028997D01*
X0299924Y0027775D01*
X0299675Y0026522D01*
X0299550Y0025251D01*
X0299550Y0025112D01*
X0312050Y0025112D01*
X0312050Y0026834D02*
X0313050Y0026834D01*
X0313050Y0027832D02*
X0312050Y0027832D01*
X0312050Y0028831D02*
X0313050Y0028831D01*
X0313050Y0029829D02*
X0312050Y0029829D01*
X0312050Y0030828D02*
X0313050Y0030828D01*
X0313050Y0031826D02*
X0312050Y0031826D01*
X0312050Y0032825D02*
X0313050Y0032825D01*
X0313050Y0033823D02*
X0312050Y0033823D01*
X0312050Y0034822D02*
X0313050Y0034822D01*
X0313050Y0035821D02*
X0312050Y0035821D01*
X0312050Y0036819D02*
X0313050Y0036819D01*
X0317051Y0036819D02*
X0402743Y0036819D01*
X0402743Y0035821D02*
X0319158Y0035821D01*
X0320601Y0034822D02*
X0403654Y0034822D01*
X0403973Y0034502D02*
X0402743Y0035733D01*
X0402743Y0046921D01*
X0403973Y0048151D01*
X0415162Y0048151D01*
X0416392Y0046921D01*
X0416392Y0035733D01*
X0415162Y0034502D01*
X0403973Y0034502D01*
X0402743Y0037818D02*
X0060400Y0037818D01*
X0060400Y0038816D02*
X0402743Y0038816D01*
X0402743Y0039815D02*
X0060400Y0039815D01*
X0060400Y0040813D02*
X0402743Y0040813D01*
X0402743Y0041812D02*
X0060400Y0041812D01*
X0060400Y0042810D02*
X0402743Y0042810D01*
X0402743Y0043809D02*
X0060400Y0043809D01*
X0060400Y0044807D02*
X0402743Y0044807D01*
X0402743Y0045806D02*
X0060400Y0045806D01*
X0060400Y0046804D02*
X0402743Y0046804D01*
X0403625Y0047803D02*
X0060400Y0047803D01*
X0060400Y0048801D02*
X0426200Y0048801D01*
X0426200Y0047803D02*
X0415510Y0047803D01*
X0416392Y0046804D02*
X0426200Y0046804D01*
X0426200Y0045806D02*
X0416392Y0045806D01*
X0416392Y0044807D02*
X0426200Y0044807D01*
X0426200Y0043809D02*
X0416392Y0043809D01*
X0416392Y0042810D02*
X0426200Y0042810D01*
X0426200Y0041812D02*
X0416392Y0041812D01*
X0416392Y0040813D02*
X0426200Y0040813D01*
X0426200Y0039815D02*
X0416392Y0039815D01*
X0416392Y0038816D02*
X0426200Y0038816D01*
X0426200Y0037818D02*
X0416392Y0037818D01*
X0416392Y0036819D02*
X0426200Y0036819D01*
X0426200Y0035821D02*
X0416392Y0035821D01*
X0415482Y0034822D02*
X0426200Y0034822D01*
X0426200Y0033823D02*
X0321723Y0033823D01*
X0322627Y0032825D02*
X0426200Y0032825D01*
X0426200Y0031826D02*
X0323365Y0031826D01*
X0323968Y0030828D02*
X0426200Y0030828D01*
X0426200Y0029829D02*
X0324460Y0029829D01*
X0324855Y0028831D02*
X0426200Y0028831D01*
X0426200Y0027832D02*
X0325158Y0027832D01*
X0325363Y0026834D02*
X0426200Y0026834D01*
X0426200Y0025835D02*
X0415824Y0025835D01*
X0416392Y0024837D02*
X0426200Y0024837D01*
X0426200Y0023838D02*
X0416392Y0023838D01*
X0416392Y0022840D02*
X0426200Y0022840D01*
X0426200Y0021841D02*
X0416392Y0021841D01*
X0416392Y0020843D02*
X0426200Y0020843D01*
X0426200Y0019844D02*
X0416392Y0019844D01*
X0416392Y0018846D02*
X0426200Y0018846D01*
X0426200Y0017847D02*
X0416392Y0017847D01*
X0416392Y0016849D02*
X0426200Y0016849D01*
X0426200Y0015850D02*
X0416392Y0015850D01*
X0416392Y0014852D02*
X0426200Y0014852D01*
X0426200Y0013853D02*
X0416166Y0013853D01*
X0415168Y0012855D02*
X0425323Y0012855D01*
X0426200Y0049800D02*
X0109171Y0049800D01*
X0109072Y0049701D02*
X0109761Y0050390D01*
X0109981Y0050922D01*
X0110366Y0050762D01*
X0111341Y0050762D01*
X0112241Y0051135D01*
X0112288Y0051182D01*
X0112335Y0051135D01*
X0113235Y0050762D01*
X0114210Y0050762D01*
X0114590Y0050920D01*
X0114970Y0050762D01*
X0118097Y0050762D01*
X0118835Y0051068D01*
X0119574Y0050762D01*
X0122700Y0050762D01*
X0123601Y0051135D01*
X0123798Y0051332D01*
X0123995Y0051135D01*
X0124895Y0050762D01*
X0127304Y0050762D01*
X0128205Y0051135D01*
X0128894Y0051824D01*
X0129611Y0052542D01*
X0129984Y0053442D01*
X0129984Y0057286D01*
X0129611Y0058186D01*
X0128922Y0058876D01*
X0128205Y0059593D01*
X0127304Y0059966D01*
X0127234Y0059966D01*
X0127309Y0060042D01*
X0127682Y0060942D01*
X0127682Y0064786D01*
X0127309Y0065686D01*
X0127234Y0065762D01*
X0128839Y0065762D01*
X0129739Y0066135D01*
X0130276Y0066671D01*
X0130502Y0066475D01*
X0130707Y0066239D01*
X0130866Y0066159D01*
X0131001Y0066042D01*
X0131061Y0066022D01*
X0130183Y0065658D01*
X0129494Y0064969D01*
X0129121Y0064069D01*
X0129121Y0063094D01*
X0129494Y0062193D01*
X0129541Y0062147D01*
X0129494Y0062100D01*
X0129121Y0061200D01*
X0129121Y0060225D01*
X0129494Y0059324D01*
X0130183Y0058635D01*
X0131084Y0058262D01*
X0133453Y0058262D01*
X0133202Y0058158D01*
X0132513Y0057469D01*
X0131796Y0056752D01*
X0131423Y0055851D01*
X0131423Y0053442D01*
X0131796Y0052542D01*
X0132485Y0051852D01*
X0133202Y0051135D01*
X0134103Y0050762D01*
X0136512Y0050762D01*
X0137251Y0051068D01*
X0137990Y0050762D01*
X0141116Y0050762D01*
X0142017Y0051135D01*
X0142213Y0051332D01*
X0142410Y0051135D01*
X0143311Y0050762D01*
X0145720Y0050762D01*
X0146621Y0051135D01*
X0147310Y0051824D01*
X0148027Y0052542D01*
X0148400Y0053442D01*
X0148400Y0057286D01*
X0148027Y0058186D01*
X0147458Y0058755D01*
X0148027Y0059324D01*
X0148400Y0060225D01*
X0148400Y0065503D01*
X0148027Y0066404D01*
X0147458Y0066973D01*
X0148027Y0067542D01*
X0148400Y0068442D01*
X0148400Y0069417D01*
X0148156Y0070005D01*
X0148400Y0070594D01*
X0148400Y0072286D01*
X0148027Y0073186D01*
X0147338Y0073876D01*
X0146621Y0074593D01*
X0145720Y0074966D01*
X0143311Y0074966D01*
X0142410Y0074593D01*
X0141788Y0073970D01*
X0141116Y0074249D01*
X0140141Y0074249D01*
X0139241Y0073876D01*
X0138648Y0073282D01*
X0138047Y0073531D01*
X0135638Y0073531D01*
X0134879Y0073217D01*
X0134333Y0073491D01*
X0133360Y0073560D01*
X0132436Y0073251D01*
X0132238Y0073080D01*
X0132041Y0073251D01*
X0131116Y0073560D01*
X0130144Y0073491D01*
X0129597Y0073217D01*
X0128839Y0073531D01*
X0126430Y0073531D01*
X0125529Y0073158D01*
X0124840Y0072469D01*
X0124812Y0072441D01*
X0124123Y0071752D01*
X0123750Y0070851D01*
X0123750Y0069159D01*
X0124123Y0068259D01*
X0124467Y0067915D01*
X0124467Y0067725D01*
X0124574Y0067466D01*
X0122593Y0067466D01*
X0122123Y0067271D01*
X0122311Y0067725D01*
X0122311Y0073003D01*
X0121938Y0073904D01*
X0121249Y0074593D01*
X0120348Y0074966D01*
X0119374Y0074966D01*
X0118473Y0074593D01*
X0118427Y0074546D01*
X0118380Y0074593D01*
X0117479Y0074966D01*
X0116505Y0074966D01*
X0115604Y0074593D01*
X0114915Y0073904D01*
X0114761Y0073531D01*
X0112618Y0073531D01*
X0111879Y0073225D01*
X0111141Y0073531D01*
X0110166Y0073531D01*
X0109936Y0073436D01*
X0109706Y0073531D01*
X0108014Y0073531D01*
X0107300Y0073236D01*
X0106587Y0073531D01*
X0106179Y0073531D01*
X0106025Y0073904D01*
X0105335Y0074593D01*
X0104435Y0074966D01*
X0103460Y0074966D01*
X0102560Y0074593D01*
X0101871Y0073904D01*
X0101498Y0073003D01*
X0101498Y0067725D01*
X0101622Y0067423D01*
X0100825Y0067093D01*
X0100136Y0066404D01*
X0099981Y0066031D01*
X0099574Y0066031D01*
X0099342Y0065935D01*
X0099342Y0066220D01*
X0098969Y0067121D01*
X0098279Y0067810D01*
X0097379Y0068183D01*
X0096404Y0068183D01*
X0095504Y0067810D01*
X0095121Y0067427D01*
X0095027Y0067466D01*
X0093335Y0067466D01*
X0092434Y0067093D01*
X0091745Y0066404D01*
X0091540Y0065907D01*
X0091240Y0066031D01*
X0090832Y0066031D01*
X0090678Y0066404D01*
X0089989Y0067093D01*
X0089088Y0067466D01*
X0088114Y0067466D01*
X0087213Y0067093D01*
X0086524Y0066404D01*
X0086151Y0065503D01*
X0086151Y0060225D01*
X0086524Y0059324D01*
X0087213Y0058635D01*
X0088114Y0058262D01*
X0091240Y0058262D01*
X0091929Y0058547D01*
X0092318Y0058386D01*
X0091767Y0058158D01*
X0091050Y0057441D01*
X0090361Y0056752D01*
X0089988Y0055851D01*
X0089988Y0052725D01*
X0090361Y0051824D01*
X0091050Y0051135D01*
X0091950Y0050762D01*
X0092925Y0050762D01*
X0093826Y0051135D01*
X0093872Y0051182D01*
X0093919Y0051135D01*
X0094819Y0050762D01*
X0095794Y0050762D01*
X0096174Y0050920D01*
X0096554Y0050762D01*
X0099681Y0050762D01*
X0099845Y0050830D01*
X0100286Y0050390D01*
X0100975Y0049701D01*
X0101876Y0049328D01*
X0103567Y0049328D01*
X0104468Y0049701D01*
X0105023Y0050256D01*
X0105579Y0049701D01*
X0106479Y0049328D01*
X0108171Y0049328D01*
X0109072Y0049701D01*
X0109930Y0050798D02*
X0110279Y0050798D01*
X0111428Y0050798D02*
X0113148Y0050798D01*
X0114297Y0050798D02*
X0114883Y0050798D01*
X0118183Y0050798D02*
X0119487Y0050798D01*
X0122787Y0050798D02*
X0124808Y0050798D01*
X0127391Y0050798D02*
X0134016Y0050798D01*
X0132541Y0051797D02*
X0128866Y0051797D01*
X0129716Y0052795D02*
X0131691Y0052795D01*
X0131423Y0053794D02*
X0129984Y0053794D01*
X0129984Y0054792D02*
X0131423Y0054792D01*
X0131423Y0055791D02*
X0129984Y0055791D01*
X0129984Y0056789D02*
X0131833Y0056789D01*
X0132832Y0057788D02*
X0129776Y0057788D01*
X0130032Y0058786D02*
X0129011Y0058786D01*
X0129303Y0059785D02*
X0127741Y0059785D01*
X0127617Y0060783D02*
X0129121Y0060783D01*
X0129362Y0061782D02*
X0127682Y0061782D01*
X0127682Y0062780D02*
X0129251Y0062780D01*
X0129121Y0063779D02*
X0127682Y0063779D01*
X0127682Y0064777D02*
X0129415Y0064777D01*
X0128872Y0065776D02*
X0130467Y0065776D01*
X0124467Y0067773D02*
X0122311Y0067773D01*
X0122311Y0068771D02*
X0123911Y0068771D01*
X0123750Y0069770D02*
X0122311Y0069770D01*
X0122311Y0070768D02*
X0123750Y0070768D01*
X0124138Y0071767D02*
X0122311Y0071767D01*
X0122311Y0072765D02*
X0125136Y0072765D01*
X0124840Y0072469D02*
X0124840Y0072469D01*
X0124812Y0072441D02*
X0124812Y0072441D01*
X0121996Y0073764D02*
X0139129Y0073764D01*
X0142820Y0074762D02*
X0120839Y0074762D01*
X0118883Y0074762D02*
X0117970Y0074762D01*
X0116014Y0074762D02*
X0104926Y0074762D01*
X0106082Y0073764D02*
X0114857Y0073764D01*
X0102969Y0074762D02*
X0060400Y0074762D01*
X0060400Y0073764D02*
X0101813Y0073764D01*
X0101498Y0072765D02*
X0060400Y0072765D01*
X0060400Y0071767D02*
X0101498Y0071767D01*
X0101498Y0070768D02*
X0060400Y0070768D01*
X0060400Y0069770D02*
X0101498Y0069770D01*
X0101498Y0068771D02*
X0060400Y0068771D01*
X0060400Y0067773D02*
X0095466Y0067773D01*
X0098317Y0067773D02*
X0101498Y0067773D01*
X0100506Y0066774D02*
X0099112Y0066774D01*
X0092116Y0066774D02*
X0090307Y0066774D01*
X0086895Y0066774D02*
X0060400Y0066774D01*
X0060400Y0065776D02*
X0086264Y0065776D01*
X0086151Y0064777D02*
X0060400Y0064777D01*
X0060400Y0063779D02*
X0086151Y0063779D01*
X0086151Y0062780D02*
X0060400Y0062780D01*
X0060400Y0061782D02*
X0086151Y0061782D01*
X0086151Y0060783D02*
X0060400Y0060783D01*
X0060400Y0059785D02*
X0086333Y0059785D01*
X0087062Y0058786D02*
X0060400Y0058786D01*
X0060400Y0057788D02*
X0091397Y0057788D01*
X0090398Y0056789D02*
X0060400Y0056789D01*
X0060400Y0055791D02*
X0089988Y0055791D01*
X0089988Y0054792D02*
X0060400Y0054792D01*
X0060400Y0053794D02*
X0089988Y0053794D01*
X0089988Y0052795D02*
X0060400Y0052795D01*
X0060400Y0051797D02*
X0090388Y0051797D01*
X0091863Y0050798D02*
X0060400Y0050798D01*
X0060400Y0049800D02*
X0100876Y0049800D01*
X0099877Y0050798D02*
X0099768Y0050798D01*
X0096467Y0050798D02*
X0095881Y0050798D01*
X0094733Y0050798D02*
X0093012Y0050798D01*
X0104567Y0049800D02*
X0105480Y0049800D01*
X0084011Y0031826D02*
X0301735Y0031826D01*
X0301132Y0030828D02*
X0084588Y0030828D01*
X0085164Y0029829D02*
X0300640Y0029829D01*
X0300245Y0028831D02*
X0085731Y0028831D01*
X0085999Y0027832D02*
X0299942Y0027832D01*
X0299737Y0026834D02*
X0086266Y0026834D01*
X0086534Y0025835D02*
X0299608Y0025835D01*
X0302473Y0032825D02*
X0083071Y0032825D01*
X0082072Y0033823D02*
X0303377Y0033823D01*
X0304499Y0034822D02*
X0080834Y0034822D01*
X0079105Y0035821D02*
X0305942Y0035821D01*
X0308049Y0036819D02*
X0076308Y0036819D01*
X0069792Y0036819D02*
X0060400Y0036819D01*
X0060400Y0035821D02*
X0066995Y0035821D01*
X0065266Y0034822D02*
X0060400Y0034822D01*
X0060400Y0033823D02*
X0064028Y0033823D01*
X0063029Y0032825D02*
X0060400Y0032825D01*
X0060400Y0031826D02*
X0062089Y0031826D01*
X0061512Y0030828D02*
X0060400Y0030828D01*
X0060400Y0029829D02*
X0060936Y0029829D01*
X0060400Y0075761D02*
X0426200Y0075761D01*
X0426200Y0076759D02*
X0060400Y0076759D01*
X0060400Y0077758D02*
X0426200Y0077758D01*
X0426200Y0078757D02*
X0416070Y0078757D01*
X0416392Y0079079D02*
X0415162Y0077849D01*
X0403973Y0077849D01*
X0402743Y0079079D01*
X0402743Y0090267D01*
X0403973Y0091498D01*
X0415162Y0091498D01*
X0416392Y0090267D01*
X0416392Y0079079D01*
X0416392Y0079755D02*
X0426200Y0079755D01*
X0426200Y0080754D02*
X0416392Y0080754D01*
X0416392Y0081752D02*
X0426200Y0081752D01*
X0426200Y0082751D02*
X0416392Y0082751D01*
X0416392Y0083749D02*
X0426200Y0083749D01*
X0426200Y0084748D02*
X0416392Y0084748D01*
X0416392Y0085746D02*
X0426200Y0085746D01*
X0426200Y0086745D02*
X0416392Y0086745D01*
X0416392Y0087743D02*
X0426200Y0087743D01*
X0426200Y0088742D02*
X0416392Y0088742D01*
X0416392Y0089740D02*
X0426200Y0089740D01*
X0426200Y0090739D02*
X0415921Y0090739D01*
X0415162Y0099502D02*
X0416392Y0100733D01*
X0416392Y0111921D01*
X0415162Y0113151D01*
X0403973Y0113151D01*
X0402743Y0111921D01*
X0402743Y0100733D01*
X0403973Y0099502D01*
X0415162Y0099502D01*
X0415385Y0099725D02*
X0426200Y0099725D01*
X0426200Y0098727D02*
X0060400Y0098727D01*
X0060400Y0099725D02*
X0256224Y0099725D01*
X0257188Y0098762D02*
X0254200Y0101750D01*
X0254200Y0105975D01*
X0256400Y0108175D01*
X0256400Y0109550D01*
X0254988Y0110962D01*
X0251723Y0110962D01*
X0250657Y0111404D01*
X0249841Y0112219D01*
X0249400Y0113285D01*
X0249400Y0133439D01*
X0249841Y0134505D01*
X0251841Y0136505D01*
X0252657Y0137321D01*
X0253723Y0137762D01*
X0254468Y0137762D01*
X0255549Y0138843D01*
X0261051Y0138843D01*
X0262281Y0137613D01*
X0262281Y0132111D01*
X0261051Y0130881D01*
X0255549Y0130881D01*
X0255200Y0131230D01*
X0255200Y0126975D01*
X0257188Y0128962D01*
X0261412Y0128962D01*
X0261856Y0128519D01*
X0262657Y0129321D01*
X0262657Y0129321D01*
X0265400Y0132063D01*
X0265400Y0164030D01*
X0264319Y0165111D01*
X0264319Y0170613D01*
X0265549Y0171843D01*
X0271051Y0171843D01*
X0272281Y0170613D01*
X0272281Y0165111D01*
X0271200Y0164030D01*
X0271200Y0130285D01*
X0270758Y0129219D01*
X0270501Y0128962D01*
X0271412Y0128962D01*
X0274400Y0125975D01*
X0274400Y0124863D01*
X0286420Y0112843D01*
X0287051Y0112843D01*
X0288281Y0111613D01*
X0288281Y0106111D01*
X0287051Y0104881D01*
X0281549Y0104881D01*
X0280319Y0106111D01*
X0280319Y0110742D01*
X0271856Y0119205D01*
X0271512Y0118862D01*
X0274400Y0115975D01*
X0274400Y0111750D01*
X0271512Y0108862D01*
X0274400Y0105975D01*
X0274400Y0101750D01*
X0271412Y0098762D01*
X0267188Y0098762D01*
X0264300Y0101650D01*
X0261412Y0098762D01*
X0257188Y0098762D01*
X0255226Y0100724D02*
X0060400Y0100724D01*
X0060400Y0101722D02*
X0254227Y0101722D01*
X0254200Y0102721D02*
X0060400Y0102721D01*
X0060400Y0103719D02*
X0254200Y0103719D01*
X0254200Y0104718D02*
X0060400Y0104718D01*
X0060400Y0105716D02*
X0254200Y0105716D01*
X0254940Y0106715D02*
X0060400Y0106715D01*
X0060400Y0107713D02*
X0255939Y0107713D01*
X0256400Y0108712D02*
X0060400Y0108712D01*
X0060400Y0109710D02*
X0256239Y0109710D01*
X0255241Y0110709D02*
X0060400Y0110709D01*
X0060400Y0111707D02*
X0250354Y0111707D01*
X0249640Y0112706D02*
X0060400Y0112706D01*
X0060400Y0113704D02*
X0249400Y0113704D01*
X0249400Y0114703D02*
X0060400Y0114703D01*
X0060400Y0115701D02*
X0249400Y0115701D01*
X0249400Y0116700D02*
X0060400Y0116700D01*
X0060400Y0117698D02*
X0249400Y0117698D01*
X0249400Y0118697D02*
X0060400Y0118697D01*
X0060400Y0119695D02*
X0249400Y0119695D01*
X0249400Y0120694D02*
X0060400Y0120694D01*
X0060400Y0121692D02*
X0249400Y0121692D01*
X0249400Y0122691D02*
X0060400Y0122691D01*
X0060400Y0123690D02*
X0249400Y0123690D01*
X0249400Y0124688D02*
X0060400Y0124688D01*
X0060400Y0125687D02*
X0249400Y0125687D01*
X0249400Y0126685D02*
X0060400Y0126685D01*
X0060400Y0127684D02*
X0249400Y0127684D01*
X0249400Y0128682D02*
X0060400Y0128682D01*
X0060400Y0129681D02*
X0249400Y0129681D01*
X0249400Y0130679D02*
X0060400Y0130679D01*
X0060400Y0131678D02*
X0249400Y0131678D01*
X0249400Y0132676D02*
X0060400Y0132676D01*
X0060400Y0133675D02*
X0249498Y0133675D01*
X0250010Y0134673D02*
X0060400Y0134673D01*
X0060400Y0135672D02*
X0251008Y0135672D01*
X0252007Y0136670D02*
X0060400Y0136670D01*
X0060400Y0137669D02*
X0253497Y0137669D01*
X0255373Y0138667D02*
X0060400Y0138667D01*
X0060400Y0139666D02*
X0265400Y0139666D01*
X0265400Y0140664D02*
X0060400Y0140664D01*
X0060400Y0141663D02*
X0265400Y0141663D01*
X0265400Y0142661D02*
X0060400Y0142661D01*
X0060400Y0143660D02*
X0121993Y0143660D01*
X0121752Y0143782D02*
X0122501Y0143401D01*
X0123300Y0143141D01*
X0124050Y0143022D01*
X0124050Y0147848D01*
X0125050Y0147848D01*
X0125050Y0143022D01*
X0125800Y0143141D01*
X0126599Y0143401D01*
X0127348Y0143782D01*
X0128028Y0144276D01*
X0128622Y0144871D01*
X0129116Y0145550D01*
X0129497Y0146299D01*
X0129757Y0147098D01*
X0129876Y0147848D01*
X0125050Y0147848D01*
X0125050Y0148848D01*
X0129876Y0148848D01*
X0129774Y0149489D01*
X0130044Y0149219D01*
X0132227Y0148315D01*
X0134590Y0148315D01*
X0136772Y0149219D01*
X0138443Y0150890D01*
X0139347Y0153073D01*
X0139347Y0155435D01*
X0138443Y0157618D01*
X0136772Y0159288D01*
X0134590Y0160193D01*
X0132227Y0160193D01*
X0130044Y0159288D01*
X0128374Y0157618D01*
X0127470Y0155435D01*
X0127470Y0153073D01*
X0127616Y0152720D01*
X0127348Y0152914D01*
X0126599Y0153296D01*
X0125800Y0153556D01*
X0125050Y0153674D01*
X0125050Y0148848D01*
X0124050Y0148848D01*
X0124050Y0147848D01*
X0119224Y0147848D01*
X0119343Y0147098D01*
X0119603Y0146299D01*
X0119984Y0145550D01*
X0120478Y0144871D01*
X0121072Y0144276D01*
X0121752Y0143782D01*
X0120690Y0144658D02*
X0060400Y0144658D01*
X0060400Y0145657D02*
X0119930Y0145657D01*
X0119487Y0146655D02*
X0060400Y0146655D01*
X0060400Y0147654D02*
X0119255Y0147654D01*
X0119224Y0148848D02*
X0124050Y0148848D01*
X0124050Y0153674D01*
X0123300Y0153556D01*
X0122501Y0153296D01*
X0121752Y0152914D01*
X0121484Y0152720D01*
X0121630Y0153073D01*
X0121630Y0155435D01*
X0120726Y0157618D01*
X0119661Y0158683D01*
X0120726Y0159748D01*
X0121630Y0161931D01*
X0121630Y0164293D01*
X0120726Y0166476D01*
X0119661Y0167541D01*
X0120726Y0168607D01*
X0121630Y0170789D01*
X0121630Y0173152D01*
X0121484Y0173505D01*
X0121752Y0173310D01*
X0122501Y0172929D01*
X0123300Y0172669D01*
X0124050Y0172550D01*
X0124050Y0177376D01*
X0119224Y0177376D01*
X0119326Y0176735D01*
X0119056Y0177005D01*
X0116873Y0177909D01*
X0114510Y0177909D01*
X0112328Y0177005D01*
X0110657Y0175334D01*
X0109753Y0173152D01*
X0109753Y0170789D01*
X0110657Y0168607D01*
X0111722Y0167541D01*
X0110657Y0166476D01*
X0109753Y0164293D01*
X0109753Y0161931D01*
X0110657Y0159748D01*
X0111722Y0158683D01*
X0110657Y0157618D01*
X0109753Y0155435D01*
X0109753Y0153073D01*
X0110657Y0150890D01*
X0112328Y0149219D01*
X0114510Y0148315D01*
X0116873Y0148315D01*
X0119056Y0149219D01*
X0119326Y0149489D01*
X0119224Y0148848D01*
X0117686Y0148652D02*
X0124050Y0148652D01*
X0124050Y0147654D02*
X0125050Y0147654D01*
X0125050Y0148652D02*
X0131414Y0148652D01*
X0129845Y0147654D02*
X0265400Y0147654D01*
X0265400Y0148652D02*
X0135403Y0148652D01*
X0137204Y0149651D02*
X0265400Y0149651D01*
X0265400Y0150649D02*
X0138202Y0150649D01*
X0138757Y0151648D02*
X0265400Y0151648D01*
X0265400Y0152646D02*
X0139170Y0152646D01*
X0139347Y0153645D02*
X0265400Y0153645D01*
X0265400Y0154643D02*
X0139347Y0154643D01*
X0139261Y0155642D02*
X0265400Y0155642D01*
X0265400Y0156640D02*
X0259718Y0156640D01*
X0259092Y0156381D02*
X0260555Y0156987D01*
X0261675Y0158107D01*
X0262281Y0159570D01*
X0262281Y0161154D01*
X0261675Y0162617D01*
X0260555Y0163737D01*
X0259092Y0164343D01*
X0258420Y0164343D01*
X0255943Y0166821D01*
X0254877Y0167262D01*
X0251030Y0167262D01*
X0250555Y0167737D01*
X0249092Y0168343D01*
X0247508Y0168343D01*
X0246045Y0167737D01*
X0244925Y0166617D01*
X0244319Y0165154D01*
X0244319Y0163570D01*
X0244925Y0162107D01*
X0246045Y0160987D01*
X0247508Y0160381D01*
X0249092Y0160381D01*
X0250555Y0160987D01*
X0251030Y0161462D01*
X0253099Y0161462D01*
X0254319Y0160242D01*
X0254319Y0159570D01*
X0254925Y0158107D01*
X0256045Y0156987D01*
X0257508Y0156381D01*
X0259092Y0156381D01*
X0256882Y0156640D02*
X0138848Y0156640D01*
X0138422Y0157639D02*
X0255393Y0157639D01*
X0254705Y0158637D02*
X0137423Y0158637D01*
X0135933Y0159636D02*
X0254319Y0159636D01*
X0253927Y0160634D02*
X0249703Y0160634D01*
X0246896Y0160634D02*
X0121093Y0160634D01*
X0121507Y0161633D02*
X0245399Y0161633D01*
X0244708Y0162631D02*
X0121630Y0162631D01*
X0121630Y0163630D02*
X0244319Y0163630D01*
X0244319Y0164628D02*
X0121492Y0164628D01*
X0121078Y0165627D02*
X0244515Y0165627D01*
X0244933Y0166626D02*
X0136023Y0166626D01*
X0136772Y0166936D02*
X0138443Y0168607D01*
X0139347Y0170789D01*
X0139347Y0173152D01*
X0138443Y0175334D01*
X0136772Y0177005D01*
X0134590Y0177909D01*
X0132227Y0177909D01*
X0130044Y0177005D01*
X0129774Y0176735D01*
X0129876Y0177376D01*
X0125050Y0177376D01*
X0125050Y0178376D01*
X0124050Y0178376D01*
X0124050Y0183202D01*
X0123300Y0183083D01*
X0122501Y0182823D01*
X0121752Y0182442D01*
X0121072Y0181948D01*
X0120478Y0181354D01*
X0119984Y0180674D01*
X0119603Y0179925D01*
X0119343Y0179126D01*
X0119224Y0178376D01*
X0124050Y0178376D01*
X0124050Y0177376D01*
X0125050Y0177376D01*
X0125050Y0172550D01*
X0125800Y0172669D01*
X0126599Y0172929D01*
X0127348Y0173310D01*
X0127616Y0173505D01*
X0127470Y0173152D01*
X0127470Y0170789D01*
X0128374Y0168607D01*
X0130044Y0166936D01*
X0132227Y0166032D01*
X0134590Y0166032D01*
X0136772Y0166936D01*
X0137460Y0167624D02*
X0245932Y0167624D01*
X0250668Y0167624D02*
X0264319Y0167624D01*
X0264319Y0166626D02*
X0256138Y0166626D01*
X0257136Y0165627D02*
X0264319Y0165627D01*
X0264802Y0164628D02*
X0258135Y0164628D01*
X0260662Y0163630D02*
X0265400Y0163630D01*
X0265400Y0162631D02*
X0261661Y0162631D01*
X0262083Y0161633D02*
X0265400Y0161633D01*
X0265400Y0160634D02*
X0262281Y0160634D01*
X0262281Y0159636D02*
X0265400Y0159636D01*
X0265400Y0158637D02*
X0261895Y0158637D01*
X0261207Y0157639D02*
X0265400Y0157639D01*
X0271200Y0157639D02*
X0301099Y0157639D01*
X0301326Y0157411D02*
X0303256Y0156612D01*
X0305344Y0156612D01*
X0307274Y0157411D01*
X0308751Y0158888D01*
X0309550Y0160818D01*
X0309550Y0162906D01*
X0308751Y0164836D01*
X0307274Y0166313D01*
X0305344Y0167112D01*
X0303256Y0167112D01*
X0301326Y0166313D01*
X0299849Y0164836D01*
X0299050Y0162906D01*
X0299050Y0160818D01*
X0299849Y0158888D01*
X0301326Y0157411D01*
X0300100Y0158637D02*
X0271200Y0158637D01*
X0271200Y0159636D02*
X0299540Y0159636D01*
X0299126Y0160634D02*
X0271200Y0160634D01*
X0271200Y0161633D02*
X0299050Y0161633D01*
X0299050Y0162631D02*
X0271200Y0162631D01*
X0271200Y0163630D02*
X0299350Y0163630D01*
X0299763Y0164628D02*
X0271798Y0164628D01*
X0272281Y0165627D02*
X0300640Y0165627D01*
X0302081Y0166626D02*
X0272281Y0166626D01*
X0272281Y0167624D02*
X0401743Y0167624D01*
X0401743Y0166626D02*
X0306519Y0166626D01*
X0307960Y0165627D02*
X0401743Y0165627D01*
X0401743Y0165079D02*
X0402973Y0163849D01*
X0414162Y0163849D01*
X0415392Y0165079D01*
X0415392Y0176267D01*
X0414162Y0177498D01*
X0402973Y0177498D01*
X0401743Y0176267D01*
X0401743Y0165079D01*
X0402194Y0164628D02*
X0308837Y0164628D01*
X0309250Y0163630D02*
X0426200Y0163630D01*
X0426200Y0164628D02*
X0414942Y0164628D01*
X0415392Y0165627D02*
X0426200Y0165627D01*
X0426200Y0166626D02*
X0415392Y0166626D01*
X0415392Y0167624D02*
X0426200Y0167624D01*
X0426200Y0168623D02*
X0415392Y0168623D01*
X0415392Y0169621D02*
X0426200Y0169621D01*
X0426200Y0170620D02*
X0415392Y0170620D01*
X0415392Y0171618D02*
X0426200Y0171618D01*
X0426200Y0172617D02*
X0415392Y0172617D01*
X0415392Y0173615D02*
X0426200Y0173615D01*
X0426200Y0174614D02*
X0415392Y0174614D01*
X0415392Y0175612D02*
X0426200Y0175612D01*
X0426200Y0176611D02*
X0415049Y0176611D01*
X0414162Y0185502D02*
X0415392Y0186733D01*
X0415392Y0197921D01*
X0414162Y0199151D01*
X0402973Y0199151D01*
X0401743Y0197921D01*
X0401743Y0186733D01*
X0402973Y0185502D01*
X0414162Y0185502D01*
X0414257Y0185597D02*
X0426200Y0185597D01*
X0426200Y0184599D02*
X0289531Y0184599D01*
X0289531Y0185154D02*
X0288925Y0186617D01*
X0288450Y0187092D01*
X0288450Y0189040D01*
X0288475Y0189544D01*
X0288450Y0189614D01*
X0288450Y0189689D01*
X0288257Y0190155D01*
X0288087Y0190630D01*
X0288037Y0190686D01*
X0288008Y0190755D01*
X0287652Y0191112D01*
X0283984Y0195166D01*
X0284175Y0195357D01*
X0284781Y0196820D01*
X0284781Y0198404D01*
X0284175Y0199867D01*
X0283055Y0200987D01*
X0281592Y0201593D01*
X0280008Y0201593D01*
X0278545Y0200987D01*
X0277425Y0199867D01*
X0276819Y0198404D01*
X0276819Y0196820D01*
X0277425Y0195357D01*
X0277900Y0194882D01*
X0277900Y0194435D01*
X0277875Y0193931D01*
X0277900Y0193860D01*
X0277900Y0193785D01*
X0278093Y0193319D01*
X0278263Y0192844D01*
X0278313Y0192789D01*
X0278341Y0192719D01*
X0278698Y0192363D01*
X0282650Y0187995D01*
X0282650Y0187092D01*
X0282175Y0186617D01*
X0281569Y0185154D01*
X0281569Y0183570D01*
X0282175Y0182107D01*
X0283295Y0180987D01*
X0284758Y0180381D01*
X0286342Y0180381D01*
X0287805Y0180987D01*
X0288925Y0182107D01*
X0289531Y0183570D01*
X0289531Y0185154D01*
X0289348Y0185597D02*
X0402879Y0185597D01*
X0401880Y0186596D02*
X0288934Y0186596D01*
X0288450Y0187594D02*
X0401743Y0187594D01*
X0401743Y0188593D02*
X0288450Y0188593D01*
X0288458Y0189591D02*
X0401743Y0189591D01*
X0401743Y0190590D02*
X0288102Y0190590D01*
X0287221Y0191588D02*
X0401743Y0191588D01*
X0401743Y0192587D02*
X0286317Y0192587D01*
X0285414Y0193585D02*
X0401743Y0193585D01*
X0401743Y0194584D02*
X0284510Y0194584D01*
X0284268Y0195582D02*
X0401743Y0195582D01*
X0401743Y0196581D02*
X0284682Y0196581D01*
X0284781Y0197579D02*
X0401743Y0197579D01*
X0402400Y0198578D02*
X0284709Y0198578D01*
X0284296Y0199576D02*
X0426200Y0199576D01*
X0426200Y0198578D02*
X0414735Y0198578D01*
X0415392Y0197579D02*
X0426200Y0197579D01*
X0426200Y0196581D02*
X0415392Y0196581D01*
X0415392Y0195582D02*
X0426200Y0195582D01*
X0426200Y0194584D02*
X0415392Y0194584D01*
X0415392Y0193585D02*
X0426200Y0193585D01*
X0426200Y0192587D02*
X0415392Y0192587D01*
X0415392Y0191588D02*
X0426200Y0191588D01*
X0426200Y0190590D02*
X0415392Y0190590D01*
X0415392Y0189591D02*
X0426200Y0189591D01*
X0426200Y0188593D02*
X0415392Y0188593D01*
X0415392Y0187594D02*
X0426200Y0187594D01*
X0426200Y0186596D02*
X0415255Y0186596D01*
X0426200Y0183600D02*
X0289531Y0183600D01*
X0289130Y0182602D02*
X0426200Y0182602D01*
X0426200Y0181603D02*
X0288421Y0181603D01*
X0286882Y0180605D02*
X0426200Y0180605D01*
X0426200Y0179606D02*
X0129601Y0179606D01*
X0129497Y0179925D02*
X0129116Y0180674D01*
X0128622Y0181354D01*
X0128028Y0181948D01*
X0127348Y0182442D01*
X0126599Y0182823D01*
X0125800Y0183083D01*
X0125050Y0183202D01*
X0125050Y0178376D01*
X0129876Y0178376D01*
X0129757Y0179126D01*
X0129497Y0179925D01*
X0129151Y0180605D02*
X0284218Y0180605D01*
X0282679Y0181603D02*
X0128373Y0181603D01*
X0127035Y0182602D02*
X0281970Y0182602D01*
X0281569Y0183600D02*
X0060400Y0183600D01*
X0060400Y0182602D02*
X0122065Y0182602D01*
X0120727Y0181603D02*
X0060400Y0181603D01*
X0060400Y0180605D02*
X0065934Y0180605D01*
X0065922Y0180598D02*
X0065643Y0180319D01*
X0065446Y0179977D01*
X0065343Y0179595D01*
X0065343Y0175173D01*
X0071068Y0175173D01*
X0071068Y0174173D01*
X0072068Y0174173D01*
X0072068Y0175173D01*
X0077792Y0175173D01*
X0077792Y0179595D01*
X0077690Y0179977D01*
X0077492Y0180319D01*
X0077213Y0180598D01*
X0076871Y0180795D01*
X0076490Y0180898D01*
X0072068Y0180898D01*
X0072068Y0175173D01*
X0071068Y0175173D01*
X0071068Y0180898D01*
X0066646Y0180898D01*
X0066264Y0180795D01*
X0065922Y0180598D01*
X0065346Y0179606D02*
X0060400Y0179606D01*
X0060400Y0178608D02*
X0065343Y0178608D01*
X0065343Y0177609D02*
X0060400Y0177609D01*
X0060400Y0176611D02*
X0065343Y0176611D01*
X0065343Y0175612D02*
X0060400Y0175612D01*
X0060400Y0174614D02*
X0071068Y0174614D01*
X0071068Y0174173D02*
X0065343Y0174173D01*
X0065343Y0169751D01*
X0065446Y0169370D01*
X0065643Y0169028D01*
X0065922Y0168749D01*
X0066264Y0168551D01*
X0066646Y0168449D01*
X0071068Y0168449D01*
X0071068Y0174173D01*
X0071068Y0173615D02*
X0072068Y0173615D01*
X0072068Y0174173D02*
X0072068Y0168449D01*
X0076490Y0168449D01*
X0076871Y0168551D01*
X0077213Y0168749D01*
X0077492Y0169028D01*
X0077690Y0169370D01*
X0077792Y0169751D01*
X0077792Y0174173D01*
X0072068Y0174173D01*
X0072068Y0174614D02*
X0091652Y0174614D01*
X0091450Y0174127D02*
X0091450Y0172098D01*
X0092226Y0170223D01*
X0093661Y0168789D01*
X0095294Y0168112D01*
X0093661Y0167436D01*
X0092226Y0166001D01*
X0091450Y0164127D01*
X0091450Y0162098D01*
X0092226Y0160223D01*
X0093661Y0158789D01*
X0095294Y0158112D01*
X0093661Y0157436D01*
X0092226Y0156001D01*
X0091450Y0154127D01*
X0091450Y0152098D01*
X0092226Y0150223D01*
X0093661Y0148789D01*
X0095536Y0148012D01*
X0103564Y0148012D01*
X0105439Y0148789D01*
X0106874Y0150223D01*
X0107650Y0152098D01*
X0107650Y0154127D01*
X0106874Y0156001D01*
X0105439Y0157436D01*
X0103806Y0158112D01*
X0105439Y0158789D01*
X0106874Y0160223D01*
X0107650Y0162098D01*
X0107650Y0164127D01*
X0106874Y0166001D01*
X0105439Y0167436D01*
X0103806Y0168112D01*
X0105439Y0168789D01*
X0106874Y0170223D01*
X0107650Y0172098D01*
X0107650Y0174127D01*
X0106874Y0176001D01*
X0105439Y0177436D01*
X0103564Y0178212D01*
X0095536Y0178212D01*
X0093661Y0177436D01*
X0092226Y0176001D01*
X0091450Y0174127D01*
X0091450Y0173615D02*
X0077792Y0173615D01*
X0077792Y0172617D02*
X0091450Y0172617D01*
X0091649Y0171618D02*
X0077792Y0171618D01*
X0077792Y0170620D02*
X0092062Y0170620D01*
X0092829Y0169621D02*
X0077757Y0169621D01*
X0076995Y0168623D02*
X0094062Y0168623D01*
X0094116Y0167624D02*
X0060400Y0167624D01*
X0060400Y0166626D02*
X0092851Y0166626D01*
X0092071Y0165627D02*
X0060400Y0165627D01*
X0060400Y0164628D02*
X0091658Y0164628D01*
X0091450Y0163630D02*
X0060400Y0163630D01*
X0060400Y0162631D02*
X0091450Y0162631D01*
X0091643Y0161633D02*
X0060400Y0161633D01*
X0060400Y0160634D02*
X0092056Y0160634D01*
X0092814Y0159636D02*
X0060400Y0159636D01*
X0060400Y0158637D02*
X0094026Y0158637D01*
X0094152Y0157639D02*
X0060400Y0157639D01*
X0060400Y0156640D02*
X0092866Y0156640D01*
X0092078Y0155642D02*
X0060400Y0155642D01*
X0060400Y0154643D02*
X0091664Y0154643D01*
X0091450Y0153645D02*
X0060400Y0153645D01*
X0060400Y0152646D02*
X0091450Y0152646D01*
X0091636Y0151648D02*
X0060400Y0151648D01*
X0060400Y0150649D02*
X0092050Y0150649D01*
X0092799Y0149651D02*
X0060400Y0149651D01*
X0060400Y0148652D02*
X0093990Y0148652D01*
X0105110Y0148652D02*
X0113697Y0148652D01*
X0111896Y0149651D02*
X0106301Y0149651D01*
X0107050Y0150649D02*
X0110898Y0150649D01*
X0110343Y0151648D02*
X0107464Y0151648D01*
X0107650Y0152646D02*
X0109930Y0152646D01*
X0109753Y0153645D02*
X0107650Y0153645D01*
X0107436Y0154643D02*
X0109753Y0154643D01*
X0109839Y0155642D02*
X0107022Y0155642D01*
X0106234Y0156640D02*
X0110252Y0156640D01*
X0110678Y0157639D02*
X0104948Y0157639D01*
X0105074Y0158637D02*
X0111677Y0158637D01*
X0110770Y0159636D02*
X0106286Y0159636D01*
X0107044Y0160634D02*
X0110290Y0160634D01*
X0109877Y0161633D02*
X0107457Y0161633D01*
X0107650Y0162631D02*
X0109753Y0162631D01*
X0109753Y0163630D02*
X0107650Y0163630D01*
X0107442Y0164628D02*
X0109892Y0164628D01*
X0110306Y0165627D02*
X0107029Y0165627D01*
X0106249Y0166626D02*
X0110807Y0166626D01*
X0111640Y0167624D02*
X0104984Y0167624D01*
X0105038Y0168623D02*
X0110651Y0168623D01*
X0110237Y0169621D02*
X0106271Y0169621D01*
X0107038Y0170620D02*
X0109823Y0170620D01*
X0109753Y0171618D02*
X0107451Y0171618D01*
X0107650Y0172617D02*
X0109753Y0172617D01*
X0109945Y0173615D02*
X0107650Y0173615D01*
X0107448Y0174614D02*
X0110359Y0174614D01*
X0110935Y0175612D02*
X0107035Y0175612D01*
X0106264Y0176611D02*
X0111933Y0176611D01*
X0113786Y0177609D02*
X0105020Y0177609D01*
X0097573Y0185597D02*
X0152375Y0185597D01*
X0152810Y0185162D02*
X0154150Y0185162D01*
X0154150Y0188962D01*
X0154950Y0188962D01*
X0154950Y0185162D01*
X0156290Y0185162D01*
X0158750Y0187623D01*
X0158750Y0188962D01*
X0154950Y0188962D01*
X0154950Y0189762D01*
X0158750Y0189762D01*
X0158750Y0191102D01*
X0156290Y0193562D01*
X0154950Y0193562D01*
X0154950Y0189762D01*
X0154150Y0189762D01*
X0154150Y0188962D01*
X0150350Y0188962D01*
X0150350Y0187623D01*
X0152810Y0185162D01*
X0154150Y0185597D02*
X0154950Y0185597D01*
X0154950Y0186596D02*
X0154150Y0186596D01*
X0154150Y0187594D02*
X0154950Y0187594D01*
X0154950Y0188593D02*
X0154150Y0188593D01*
X0154150Y0189591D02*
X0099350Y0189591D01*
X0099350Y0188593D02*
X0150350Y0188593D01*
X0150378Y0187594D02*
X0099350Y0187594D01*
X0099350Y0187374D02*
X0096538Y0184562D01*
X0092562Y0184562D01*
X0089750Y0187374D01*
X0089750Y0191350D01*
X0092562Y0194162D01*
X0096538Y0194162D01*
X0099350Y0191350D01*
X0099350Y0187374D01*
X0098572Y0186596D02*
X0151377Y0186596D01*
X0150350Y0189762D02*
X0154150Y0189762D01*
X0154150Y0193562D01*
X0152810Y0193562D01*
X0150350Y0191102D01*
X0150350Y0189762D01*
X0150350Y0190590D02*
X0099350Y0190590D01*
X0099112Y0191588D02*
X0150836Y0191588D01*
X0151835Y0192587D02*
X0098114Y0192587D01*
X0097115Y0193585D02*
X0277983Y0193585D01*
X0277900Y0194584D02*
X0078392Y0194584D01*
X0078392Y0195582D02*
X0277332Y0195582D01*
X0276918Y0196581D02*
X0078392Y0196581D01*
X0078392Y0197579D02*
X0276819Y0197579D01*
X0276891Y0198578D02*
X0078392Y0198578D01*
X0078392Y0199576D02*
X0110070Y0199576D01*
X0110435Y0199212D02*
X0108150Y0201497D01*
X0108150Y0202812D01*
X0111750Y0202812D01*
X0112350Y0202812D01*
X0112350Y0199212D01*
X0113665Y0199212D01*
X0115950Y0201497D01*
X0115950Y0202812D01*
X0112350Y0202812D01*
X0112350Y0203412D01*
X0115950Y0203412D01*
X0115950Y0204728D01*
X0113665Y0207012D01*
X0112350Y0207012D01*
X0112350Y0203412D01*
X0111750Y0203412D01*
X0111750Y0202812D01*
X0111750Y0199212D01*
X0110435Y0199212D01*
X0111750Y0199576D02*
X0112350Y0199576D01*
X0112350Y0200575D02*
X0111750Y0200575D01*
X0111750Y0201573D02*
X0112350Y0201573D01*
X0112350Y0202572D02*
X0111750Y0202572D01*
X0111750Y0203412D02*
X0108150Y0203412D01*
X0108150Y0204728D01*
X0110435Y0207012D01*
X0111750Y0207012D01*
X0111750Y0203412D01*
X0111750Y0203570D02*
X0112350Y0203570D01*
X0112350Y0204569D02*
X0111750Y0204569D01*
X0111750Y0205567D02*
X0112350Y0205567D01*
X0112350Y0206566D02*
X0111750Y0206566D01*
X0109988Y0206566D02*
X0060400Y0206566D01*
X0060400Y0207564D02*
X0426200Y0207564D01*
X0426200Y0206566D02*
X0130362Y0206566D01*
X0129915Y0207012D02*
X0128600Y0207012D01*
X0128600Y0203412D01*
X0132200Y0203412D01*
X0132200Y0204728D01*
X0129915Y0207012D01*
X0128600Y0206566D02*
X0128000Y0206566D01*
X0128000Y0207012D02*
X0126685Y0207012D01*
X0124400Y0204728D01*
X0124400Y0203412D01*
X0128000Y0203412D01*
X0128000Y0202812D01*
X0128600Y0202812D01*
X0128600Y0199212D01*
X0129915Y0199212D01*
X0132200Y0201497D01*
X0132200Y0202812D01*
X0128600Y0202812D01*
X0128600Y0203412D01*
X0128000Y0203412D01*
X0128000Y0207012D01*
X0128000Y0205567D02*
X0128600Y0205567D01*
X0128600Y0204569D02*
X0128000Y0204569D01*
X0128000Y0203570D02*
X0128600Y0203570D01*
X0128000Y0202812D02*
X0124400Y0202812D01*
X0124400Y0201497D01*
X0126685Y0199212D01*
X0128000Y0199212D01*
X0128000Y0202812D01*
X0128000Y0202572D02*
X0128600Y0202572D01*
X0128600Y0201573D02*
X0128000Y0201573D01*
X0128000Y0200575D02*
X0128600Y0200575D01*
X0128600Y0199576D02*
X0128000Y0199576D01*
X0126320Y0199576D02*
X0114030Y0199576D01*
X0115028Y0200575D02*
X0125322Y0200575D01*
X0124400Y0201573D02*
X0115950Y0201573D01*
X0115950Y0202572D02*
X0124400Y0202572D01*
X0124400Y0203570D02*
X0115950Y0203570D01*
X0115950Y0204569D02*
X0124400Y0204569D01*
X0125240Y0205567D02*
X0115110Y0205567D01*
X0114112Y0206566D02*
X0126238Y0206566D01*
X0131360Y0205567D02*
X0426200Y0205567D01*
X0426200Y0204569D02*
X0132200Y0204569D01*
X0132200Y0203570D02*
X0426200Y0203570D01*
X0426200Y0202572D02*
X0132200Y0202572D01*
X0132200Y0201573D02*
X0279960Y0201573D01*
X0281640Y0201573D02*
X0426200Y0201573D01*
X0426200Y0200575D02*
X0283467Y0200575D01*
X0278133Y0200575D02*
X0131278Y0200575D01*
X0130280Y0199576D02*
X0277304Y0199576D01*
X0278474Y0192587D02*
X0157265Y0192587D01*
X0158264Y0191588D02*
X0279399Y0191588D01*
X0280302Y0190590D02*
X0158750Y0190590D01*
X0158750Y0188593D02*
X0282109Y0188593D01*
X0282650Y0187594D02*
X0158722Y0187594D01*
X0157723Y0186596D02*
X0282166Y0186596D01*
X0281752Y0185597D02*
X0156725Y0185597D01*
X0154950Y0189591D02*
X0281206Y0189591D01*
X0281569Y0184599D02*
X0096575Y0184599D01*
X0092525Y0184599D02*
X0060400Y0184599D01*
X0060400Y0185597D02*
X0091527Y0185597D01*
X0090528Y0186596D02*
X0060400Y0186596D01*
X0060400Y0187594D02*
X0089750Y0187594D01*
X0089750Y0188593D02*
X0060400Y0188593D01*
X0060400Y0189591D02*
X0065885Y0189591D01*
X0065973Y0189502D02*
X0077162Y0189502D01*
X0078392Y0190733D01*
X0078392Y0201921D01*
X0077162Y0203151D01*
X0065973Y0203151D01*
X0064743Y0201921D01*
X0064743Y0190733D01*
X0065973Y0189502D01*
X0064886Y0190590D02*
X0060400Y0190590D01*
X0060400Y0191588D02*
X0064743Y0191588D01*
X0064743Y0192587D02*
X0060400Y0192587D01*
X0060400Y0193585D02*
X0064743Y0193585D01*
X0064743Y0194584D02*
X0060400Y0194584D01*
X0060400Y0195582D02*
X0064743Y0195582D01*
X0064743Y0196581D02*
X0060400Y0196581D01*
X0060400Y0197579D02*
X0064743Y0197579D01*
X0064743Y0198578D02*
X0060400Y0198578D01*
X0060400Y0199576D02*
X0064743Y0199576D01*
X0064743Y0200575D02*
X0060400Y0200575D01*
X0060400Y0201573D02*
X0064743Y0201573D01*
X0065394Y0202572D02*
X0060400Y0202572D01*
X0060400Y0203570D02*
X0108150Y0203570D01*
X0108150Y0202572D02*
X0077741Y0202572D01*
X0078392Y0201573D02*
X0108150Y0201573D01*
X0109072Y0200575D02*
X0078392Y0200575D01*
X0078392Y0193585D02*
X0091985Y0193585D01*
X0090986Y0192587D02*
X0078392Y0192587D01*
X0078392Y0191588D02*
X0089988Y0191588D01*
X0089750Y0190590D02*
X0078249Y0190590D01*
X0077251Y0189591D02*
X0089750Y0189591D01*
X0077201Y0180605D02*
X0119949Y0180605D01*
X0119499Y0179606D02*
X0077789Y0179606D01*
X0077792Y0178608D02*
X0119261Y0178608D01*
X0117597Y0177609D02*
X0124050Y0177609D01*
X0124050Y0176611D02*
X0125050Y0176611D01*
X0125050Y0177609D02*
X0131503Y0177609D01*
X0129839Y0178608D02*
X0426200Y0178608D01*
X0426200Y0177609D02*
X0135314Y0177609D01*
X0137167Y0176611D02*
X0402086Y0176611D01*
X0401743Y0175612D02*
X0138165Y0175612D01*
X0138741Y0174614D02*
X0401743Y0174614D01*
X0401743Y0173615D02*
X0139155Y0173615D01*
X0139347Y0172617D02*
X0401743Y0172617D01*
X0401743Y0171618D02*
X0271276Y0171618D01*
X0272275Y0170620D02*
X0401743Y0170620D01*
X0401743Y0169621D02*
X0272281Y0169621D01*
X0272281Y0168623D02*
X0401743Y0168623D01*
X0426200Y0162631D02*
X0309550Y0162631D01*
X0309550Y0161633D02*
X0426200Y0161633D01*
X0426200Y0160634D02*
X0309474Y0160634D01*
X0309060Y0159636D02*
X0426200Y0159636D01*
X0426200Y0158637D02*
X0308500Y0158637D01*
X0307501Y0157639D02*
X0426200Y0157639D01*
X0426200Y0156640D02*
X0305412Y0156640D01*
X0303188Y0156640D02*
X0271200Y0156640D01*
X0271200Y0155642D02*
X0426200Y0155642D01*
X0426200Y0154643D02*
X0271200Y0154643D01*
X0271200Y0153645D02*
X0426200Y0153645D01*
X0426200Y0152646D02*
X0271200Y0152646D01*
X0271200Y0151648D02*
X0301510Y0151648D01*
X0302374Y0152512D02*
X0299650Y0149788D01*
X0299650Y0148162D01*
X0304000Y0148162D01*
X0304000Y0147562D01*
X0304600Y0147562D01*
X0304600Y0143212D01*
X0306226Y0143212D01*
X0308950Y0145936D01*
X0308950Y0147562D01*
X0304600Y0147562D01*
X0304600Y0148162D01*
X0308950Y0148162D01*
X0308950Y0149788D01*
X0306226Y0152512D01*
X0304600Y0152512D01*
X0304600Y0148162D01*
X0304000Y0148162D01*
X0304000Y0152512D01*
X0302374Y0152512D01*
X0304000Y0151648D02*
X0304600Y0151648D01*
X0304600Y0150649D02*
X0304000Y0150649D01*
X0304000Y0149651D02*
X0304600Y0149651D01*
X0304600Y0148652D02*
X0304000Y0148652D01*
X0304000Y0147654D02*
X0271200Y0147654D01*
X0271200Y0148652D02*
X0299650Y0148652D01*
X0299650Y0149651D02*
X0271200Y0149651D01*
X0271200Y0150649D02*
X0300511Y0150649D01*
X0299650Y0147562D02*
X0304000Y0147562D01*
X0304000Y0143212D01*
X0302374Y0143212D01*
X0299650Y0145936D01*
X0299650Y0147562D01*
X0299650Y0146655D02*
X0271200Y0146655D01*
X0271200Y0145657D02*
X0299929Y0145657D01*
X0300928Y0144658D02*
X0271200Y0144658D01*
X0271200Y0143660D02*
X0301926Y0143660D01*
X0304000Y0143660D02*
X0304600Y0143660D01*
X0304600Y0144658D02*
X0304000Y0144658D01*
X0304000Y0145657D02*
X0304600Y0145657D01*
X0304600Y0146655D02*
X0304000Y0146655D01*
X0304600Y0147654D02*
X0426200Y0147654D01*
X0426200Y0148652D02*
X0308950Y0148652D01*
X0308950Y0149651D02*
X0426200Y0149651D01*
X0426200Y0150649D02*
X0308089Y0150649D01*
X0307090Y0151648D02*
X0426200Y0151648D01*
X0426200Y0146655D02*
X0308950Y0146655D01*
X0308671Y0145657D02*
X0426200Y0145657D01*
X0426200Y0144658D02*
X0307672Y0144658D01*
X0306674Y0143660D02*
X0426200Y0143660D01*
X0426200Y0142661D02*
X0271200Y0142661D01*
X0271200Y0141663D02*
X0426200Y0141663D01*
X0426200Y0140664D02*
X0271200Y0140664D01*
X0271200Y0139666D02*
X0426200Y0139666D01*
X0426200Y0138667D02*
X0271200Y0138667D01*
X0271200Y0137669D02*
X0426200Y0137669D01*
X0426200Y0136670D02*
X0271200Y0136670D01*
X0271200Y0135672D02*
X0426200Y0135672D01*
X0426200Y0134673D02*
X0271200Y0134673D01*
X0271200Y0133675D02*
X0426200Y0133675D01*
X0426200Y0132676D02*
X0271200Y0132676D01*
X0271200Y0131678D02*
X0426200Y0131678D01*
X0426200Y0130679D02*
X0271200Y0130679D01*
X0270949Y0129681D02*
X0426200Y0129681D01*
X0426200Y0128682D02*
X0271693Y0128682D01*
X0272691Y0127684D02*
X0426200Y0127684D01*
X0426200Y0126685D02*
X0273690Y0126685D01*
X0274400Y0125687D02*
X0426200Y0125687D01*
X0426200Y0124688D02*
X0274575Y0124688D01*
X0275574Y0123690D02*
X0426200Y0123690D01*
X0426200Y0122691D02*
X0276572Y0122691D01*
X0277571Y0121692D02*
X0426200Y0121692D01*
X0426200Y0120694D02*
X0278569Y0120694D01*
X0279568Y0119695D02*
X0426200Y0119695D01*
X0426200Y0118697D02*
X0280566Y0118697D01*
X0281565Y0117698D02*
X0426200Y0117698D01*
X0426200Y0116700D02*
X0282563Y0116700D01*
X0283562Y0115701D02*
X0426200Y0115701D01*
X0426200Y0114703D02*
X0284560Y0114703D01*
X0285559Y0113704D02*
X0426200Y0113704D01*
X0426200Y0112706D02*
X0415607Y0112706D01*
X0416392Y0111707D02*
X0426200Y0111707D01*
X0426200Y0110709D02*
X0416392Y0110709D01*
X0416392Y0109710D02*
X0426200Y0109710D01*
X0426200Y0108712D02*
X0416392Y0108712D01*
X0416392Y0107713D02*
X0426200Y0107713D01*
X0426200Y0106715D02*
X0416392Y0106715D01*
X0416392Y0105716D02*
X0426200Y0105716D01*
X0426200Y0104718D02*
X0416392Y0104718D01*
X0416392Y0103719D02*
X0426200Y0103719D01*
X0426200Y0102721D02*
X0416392Y0102721D01*
X0416392Y0101722D02*
X0426200Y0101722D01*
X0426200Y0100724D02*
X0416383Y0100724D01*
X0426200Y0097728D02*
X0060400Y0097728D01*
X0060400Y0096730D02*
X0426200Y0096730D01*
X0426200Y0095731D02*
X0060400Y0095731D01*
X0060400Y0094733D02*
X0426200Y0094733D01*
X0426200Y0093734D02*
X0060400Y0093734D01*
X0060400Y0092736D02*
X0426200Y0092736D01*
X0426200Y0091737D02*
X0060400Y0091737D01*
X0060400Y0090739D02*
X0403214Y0090739D01*
X0402743Y0089740D02*
X0060400Y0089740D01*
X0060400Y0088742D02*
X0402743Y0088742D01*
X0402743Y0087743D02*
X0060400Y0087743D01*
X0060400Y0086745D02*
X0402743Y0086745D01*
X0402743Y0085746D02*
X0060400Y0085746D01*
X0060400Y0084748D02*
X0402743Y0084748D01*
X0402743Y0083749D02*
X0060400Y0083749D01*
X0060400Y0082751D02*
X0402743Y0082751D01*
X0402743Y0081752D02*
X0060400Y0081752D01*
X0060400Y0080754D02*
X0402743Y0080754D01*
X0402743Y0079755D02*
X0060400Y0079755D01*
X0060400Y0078757D02*
X0403066Y0078757D01*
X0403751Y0099725D02*
X0272376Y0099725D01*
X0273374Y0100724D02*
X0402752Y0100724D01*
X0402743Y0101722D02*
X0274373Y0101722D01*
X0274400Y0102721D02*
X0402743Y0102721D01*
X0402743Y0103719D02*
X0274400Y0103719D01*
X0274400Y0104718D02*
X0402743Y0104718D01*
X0402743Y0105716D02*
X0287886Y0105716D01*
X0288281Y0106715D02*
X0402743Y0106715D01*
X0402743Y0107713D02*
X0288281Y0107713D01*
X0288281Y0108712D02*
X0402743Y0108712D01*
X0402743Y0109710D02*
X0288281Y0109710D01*
X0288281Y0110709D02*
X0402743Y0110709D01*
X0402743Y0111707D02*
X0288187Y0111707D01*
X0287188Y0112706D02*
X0403528Y0112706D01*
X0426200Y0074762D02*
X0146211Y0074762D01*
X0147449Y0073764D02*
X0426200Y0073764D01*
X0426200Y0072765D02*
X0148201Y0072765D01*
X0148400Y0071767D02*
X0426200Y0071767D01*
X0426200Y0070768D02*
X0148400Y0070768D01*
X0148254Y0069770D02*
X0426200Y0069770D01*
X0426200Y0068771D02*
X0148400Y0068771D01*
X0148123Y0067773D02*
X0426200Y0067773D01*
X0426200Y0066774D02*
X0147656Y0066774D01*
X0148287Y0065776D02*
X0426200Y0065776D01*
X0426200Y0064777D02*
X0148400Y0064777D01*
X0148400Y0063779D02*
X0426200Y0063779D01*
X0426200Y0062780D02*
X0148400Y0062780D01*
X0148400Y0061782D02*
X0426200Y0061782D01*
X0426200Y0060783D02*
X0148400Y0060783D01*
X0148218Y0059785D02*
X0426200Y0059785D01*
X0426200Y0058786D02*
X0147489Y0058786D01*
X0148192Y0057788D02*
X0426200Y0057788D01*
X0426200Y0056789D02*
X0148400Y0056789D01*
X0148400Y0055791D02*
X0426200Y0055791D01*
X0426200Y0054792D02*
X0148400Y0054792D01*
X0148400Y0053794D02*
X0426200Y0053794D01*
X0426200Y0052795D02*
X0148132Y0052795D01*
X0147282Y0051797D02*
X0426200Y0051797D01*
X0426200Y0050798D02*
X0145807Y0050798D01*
X0143224Y0050798D02*
X0141203Y0050798D01*
X0137903Y0050798D02*
X0136599Y0050798D01*
X0132485Y0051852D02*
X0132485Y0051852D01*
X0127107Y0143660D02*
X0265400Y0143660D01*
X0265400Y0144658D02*
X0128410Y0144658D01*
X0129170Y0145657D02*
X0265400Y0145657D01*
X0265400Y0146655D02*
X0129613Y0146655D01*
X0125050Y0146655D02*
X0124050Y0146655D01*
X0124050Y0145657D02*
X0125050Y0145657D01*
X0125050Y0144658D02*
X0124050Y0144658D01*
X0124050Y0143660D02*
X0125050Y0143660D01*
X0125050Y0149651D02*
X0124050Y0149651D01*
X0124050Y0150649D02*
X0125050Y0150649D01*
X0125050Y0151648D02*
X0124050Y0151648D01*
X0124050Y0152646D02*
X0125050Y0152646D01*
X0125050Y0153645D02*
X0124050Y0153645D01*
X0123864Y0153645D02*
X0121630Y0153645D01*
X0121630Y0154643D02*
X0127470Y0154643D01*
X0127470Y0153645D02*
X0125236Y0153645D01*
X0127555Y0155642D02*
X0121545Y0155642D01*
X0121131Y0156640D02*
X0127969Y0156640D01*
X0128395Y0157639D02*
X0120705Y0157639D01*
X0119707Y0158637D02*
X0129393Y0158637D01*
X0130883Y0159636D02*
X0120614Y0159636D01*
X0120577Y0166626D02*
X0130794Y0166626D01*
X0129356Y0167624D02*
X0119744Y0167624D01*
X0120733Y0168623D02*
X0128367Y0168623D01*
X0127954Y0169621D02*
X0121146Y0169621D01*
X0121560Y0170620D02*
X0127540Y0170620D01*
X0127470Y0171618D02*
X0121630Y0171618D01*
X0121630Y0172617D02*
X0123630Y0172617D01*
X0124050Y0172617D02*
X0125050Y0172617D01*
X0125470Y0172617D02*
X0127470Y0172617D01*
X0125050Y0173615D02*
X0124050Y0173615D01*
X0124050Y0174614D02*
X0125050Y0174614D01*
X0125050Y0175612D02*
X0124050Y0175612D01*
X0124050Y0178608D02*
X0125050Y0178608D01*
X0125050Y0179606D02*
X0124050Y0179606D01*
X0124050Y0180605D02*
X0125050Y0180605D01*
X0125050Y0181603D02*
X0124050Y0181603D01*
X0124050Y0182602D02*
X0125050Y0182602D01*
X0139347Y0171618D02*
X0265324Y0171618D01*
X0264325Y0170620D02*
X0139277Y0170620D01*
X0138863Y0169621D02*
X0264319Y0169621D01*
X0264319Y0168623D02*
X0138449Y0168623D01*
X0154150Y0190590D02*
X0154950Y0190590D01*
X0154950Y0191588D02*
X0154150Y0191588D01*
X0154150Y0192587D02*
X0154950Y0192587D01*
X0108990Y0205567D02*
X0060400Y0205567D01*
X0060400Y0204569D02*
X0108150Y0204569D01*
X0078392Y0216079D02*
X0078392Y0227267D01*
X0077162Y0228498D01*
X0065973Y0228498D01*
X0064743Y0227267D01*
X0064743Y0216079D01*
X0065973Y0214849D01*
X0077162Y0214849D01*
X0078392Y0216079D01*
X0078392Y0216551D02*
X0426200Y0216551D01*
X0426200Y0215553D02*
X0077866Y0215553D01*
X0078392Y0217550D02*
X0426200Y0217550D01*
X0426200Y0218548D02*
X0078392Y0218548D01*
X0078392Y0219547D02*
X0273403Y0219547D01*
X0273688Y0219262D02*
X0277912Y0219262D01*
X0280800Y0222150D01*
X0283688Y0219262D01*
X0287912Y0219262D01*
X0290900Y0222250D01*
X0290900Y0226475D01*
X0288012Y0229362D01*
X0290900Y0232250D01*
X0290900Y0236475D01*
X0288012Y0239362D01*
X0290900Y0242250D01*
X0290900Y0246475D01*
X0287912Y0249462D01*
X0283688Y0249462D01*
X0280800Y0246575D01*
X0278700Y0248675D01*
X0278700Y0253161D01*
X0283420Y0257881D01*
X0284092Y0257881D01*
X0285555Y0258487D01*
X0286675Y0259607D01*
X0287281Y0261070D01*
X0287281Y0262654D01*
X0286675Y0264117D01*
X0285555Y0265237D01*
X0284092Y0265843D01*
X0282508Y0265843D01*
X0281045Y0265237D01*
X0279925Y0264117D01*
X0279319Y0262654D01*
X0279319Y0261982D01*
X0274157Y0256821D01*
X0273341Y0256005D01*
X0272900Y0254939D01*
X0272900Y0248675D01*
X0270700Y0246475D01*
X0270700Y0242250D01*
X0273588Y0239362D01*
X0270700Y0236475D01*
X0270700Y0232250D01*
X0273588Y0229362D01*
X0270700Y0226475D01*
X0270700Y0222250D01*
X0273688Y0219262D01*
X0272405Y0220545D02*
X0078392Y0220545D01*
X0078392Y0221544D02*
X0271406Y0221544D01*
X0270700Y0222542D02*
X0078392Y0222542D01*
X0078392Y0223541D02*
X0270700Y0223541D01*
X0270700Y0224539D02*
X0078392Y0224539D01*
X0078392Y0225538D02*
X0270700Y0225538D01*
X0270762Y0226536D02*
X0078392Y0226536D01*
X0078125Y0227535D02*
X0271760Y0227535D01*
X0272759Y0228533D02*
X0060400Y0228533D01*
X0060400Y0227535D02*
X0065011Y0227535D01*
X0064743Y0226536D02*
X0060400Y0226536D01*
X0060400Y0225538D02*
X0064743Y0225538D01*
X0064743Y0224539D02*
X0060400Y0224539D01*
X0060400Y0223541D02*
X0064743Y0223541D01*
X0064743Y0222542D02*
X0060400Y0222542D01*
X0060400Y0221544D02*
X0064743Y0221544D01*
X0064743Y0220545D02*
X0060400Y0220545D01*
X0060400Y0219547D02*
X0064743Y0219547D01*
X0064743Y0218548D02*
X0060400Y0218548D01*
X0060400Y0217550D02*
X0064743Y0217550D01*
X0064743Y0216551D02*
X0060400Y0216551D01*
X0060400Y0215553D02*
X0065270Y0215553D01*
X0060400Y0214554D02*
X0426200Y0214554D01*
X0426200Y0213556D02*
X0060400Y0213556D01*
X0060400Y0212557D02*
X0426200Y0212557D01*
X0426200Y0211559D02*
X0060400Y0211559D01*
X0060400Y0210560D02*
X0426200Y0210560D01*
X0426200Y0209561D02*
X0060400Y0209561D01*
X0060400Y0208563D02*
X0426200Y0208563D01*
X0426200Y0219547D02*
X0288197Y0219547D01*
X0289195Y0220545D02*
X0426200Y0220545D01*
X0426200Y0221544D02*
X0290194Y0221544D01*
X0290900Y0222542D02*
X0426200Y0222542D01*
X0426200Y0223541D02*
X0290900Y0223541D01*
X0290900Y0224539D02*
X0426200Y0224539D01*
X0426200Y0225538D02*
X0290900Y0225538D01*
X0290838Y0226536D02*
X0426200Y0226536D01*
X0426200Y0227535D02*
X0289840Y0227535D01*
X0288841Y0228533D02*
X0426200Y0228533D01*
X0426200Y0229532D02*
X0319857Y0229532D01*
X0320774Y0229911D02*
X0322251Y0231388D01*
X0323050Y0233318D01*
X0323050Y0235406D01*
X0322251Y0237336D01*
X0320774Y0238813D01*
X0318844Y0239612D01*
X0316756Y0239612D01*
X0314826Y0238813D01*
X0313349Y0237336D01*
X0312550Y0235406D01*
X0312550Y0233318D01*
X0313349Y0231388D01*
X0314826Y0229911D01*
X0316756Y0229112D01*
X0318844Y0229112D01*
X0320774Y0229911D01*
X0321393Y0230530D02*
X0426200Y0230530D01*
X0426200Y0231529D02*
X0322309Y0231529D01*
X0322722Y0232527D02*
X0426200Y0232527D01*
X0426200Y0233526D02*
X0323050Y0233526D01*
X0323050Y0234524D02*
X0426200Y0234524D01*
X0426200Y0235523D02*
X0323002Y0235523D01*
X0322588Y0236521D02*
X0426200Y0236521D01*
X0426200Y0237520D02*
X0322067Y0237520D01*
X0321068Y0238518D02*
X0426200Y0238518D01*
X0426200Y0239517D02*
X0319075Y0239517D01*
X0316525Y0239517D02*
X0288167Y0239517D01*
X0288856Y0238518D02*
X0301380Y0238518D01*
X0301874Y0239012D02*
X0299150Y0236288D01*
X0299150Y0234662D01*
X0303500Y0234662D01*
X0303500Y0234062D01*
X0304100Y0234062D01*
X0304100Y0229712D01*
X0305726Y0229712D01*
X0308450Y0232436D01*
X0308450Y0234062D01*
X0304100Y0234062D01*
X0304100Y0234662D01*
X0308450Y0234662D01*
X0308450Y0236288D01*
X0305726Y0239012D01*
X0304100Y0239012D01*
X0304100Y0234662D01*
X0303500Y0234662D01*
X0303500Y0239012D01*
X0301874Y0239012D01*
X0303500Y0238518D02*
X0304100Y0238518D01*
X0304100Y0237520D02*
X0303500Y0237520D01*
X0303500Y0236521D02*
X0304100Y0236521D01*
X0304100Y0235523D02*
X0303500Y0235523D01*
X0303500Y0234524D02*
X0290900Y0234524D01*
X0290900Y0233526D02*
X0299150Y0233526D01*
X0299150Y0234062D02*
X0299150Y0232436D01*
X0301874Y0229712D01*
X0303500Y0229712D01*
X0303500Y0234062D01*
X0299150Y0234062D01*
X0299150Y0235523D02*
X0290900Y0235523D01*
X0290853Y0236521D02*
X0299383Y0236521D01*
X0300382Y0237520D02*
X0289855Y0237520D01*
X0289166Y0240515D02*
X0404307Y0240515D01*
X0403743Y0241079D02*
X0404973Y0239849D01*
X0416162Y0239849D01*
X0417392Y0241079D01*
X0417392Y0252267D01*
X0416162Y0253498D01*
X0404973Y0253498D01*
X0403743Y0252267D01*
X0403743Y0241079D01*
X0403743Y0241514D02*
X0290164Y0241514D01*
X0290900Y0242512D02*
X0403743Y0242512D01*
X0403743Y0243511D02*
X0290900Y0243511D01*
X0290900Y0244509D02*
X0403743Y0244509D01*
X0403743Y0245508D02*
X0290900Y0245508D01*
X0290868Y0246506D02*
X0403743Y0246506D01*
X0403743Y0247505D02*
X0289870Y0247505D01*
X0288871Y0248503D02*
X0403743Y0248503D01*
X0403743Y0249502D02*
X0278700Y0249502D01*
X0278700Y0250500D02*
X0403743Y0250500D01*
X0403743Y0251499D02*
X0278700Y0251499D01*
X0278700Y0252497D02*
X0403973Y0252497D01*
X0404972Y0253496D02*
X0279035Y0253496D01*
X0280034Y0254495D02*
X0426200Y0254495D01*
X0426200Y0255493D02*
X0281032Y0255493D01*
X0282031Y0256492D02*
X0426200Y0256492D01*
X0426200Y0257490D02*
X0283029Y0257490D01*
X0285556Y0258489D02*
X0426200Y0258489D01*
X0426200Y0259487D02*
X0286555Y0259487D01*
X0287039Y0260486D02*
X0426200Y0260486D01*
X0426200Y0261484D02*
X0287281Y0261484D01*
X0287281Y0262483D02*
X0403993Y0262483D01*
X0403743Y0262733D02*
X0404973Y0261502D01*
X0416162Y0261502D01*
X0417392Y0262733D01*
X0417392Y0273921D01*
X0416162Y0275151D01*
X0404973Y0275151D01*
X0403743Y0273921D01*
X0403743Y0262733D01*
X0403743Y0263481D02*
X0286939Y0263481D01*
X0286313Y0264480D02*
X0403743Y0264480D01*
X0403743Y0265478D02*
X0284973Y0265478D01*
X0281627Y0265478D02*
X0229647Y0265478D01*
X0229781Y0265154D02*
X0229175Y0266617D01*
X0228055Y0267737D01*
X0226592Y0268343D01*
X0225920Y0268343D01*
X0209781Y0284482D01*
X0209781Y0285154D01*
X0209175Y0286617D01*
X0208055Y0287737D01*
X0206592Y0288343D01*
X0205008Y0288343D01*
X0203545Y0287737D01*
X0202425Y0286617D01*
X0201819Y0285154D01*
X0201819Y0283570D01*
X0202000Y0283133D01*
X0201045Y0282737D01*
X0199925Y0281617D01*
X0199319Y0280154D01*
X0199319Y0278570D01*
X0199500Y0278133D01*
X0198545Y0277737D01*
X0197425Y0276617D01*
X0196819Y0275154D01*
X0196819Y0273570D01*
X0197425Y0272107D01*
X0198545Y0270987D01*
X0200008Y0270381D01*
X0200680Y0270381D01*
X0211819Y0259242D01*
X0211819Y0258570D01*
X0212425Y0257107D01*
X0213545Y0255987D01*
X0215008Y0255381D01*
X0216592Y0255381D01*
X0218055Y0255987D01*
X0219175Y0257107D01*
X0219571Y0258062D01*
X0220008Y0257881D01*
X0221592Y0257881D01*
X0223055Y0258487D01*
X0224175Y0259607D01*
X0224571Y0260562D01*
X0225008Y0260381D01*
X0226592Y0260381D01*
X0228055Y0260987D01*
X0229175Y0262107D01*
X0229781Y0263570D01*
X0229781Y0265154D01*
X0229781Y0264480D02*
X0280287Y0264480D01*
X0279661Y0263481D02*
X0229744Y0263481D01*
X0229331Y0262483D02*
X0279319Y0262483D01*
X0278821Y0261484D02*
X0228552Y0261484D01*
X0226844Y0260486D02*
X0277822Y0260486D01*
X0276824Y0259487D02*
X0224055Y0259487D01*
X0224539Y0260486D02*
X0224756Y0260486D01*
X0223056Y0258489D02*
X0275825Y0258489D01*
X0274827Y0257490D02*
X0219334Y0257490D01*
X0218559Y0256492D02*
X0273828Y0256492D01*
X0273129Y0255493D02*
X0216862Y0255493D01*
X0214738Y0255493D02*
X0132283Y0255493D01*
X0132800Y0254976D02*
X0130164Y0257612D01*
X0126436Y0257612D01*
X0123800Y0254976D01*
X0123800Y0251248D01*
X0126436Y0248612D01*
X0130164Y0248612D01*
X0132800Y0251248D01*
X0132800Y0254976D01*
X0132800Y0254495D02*
X0272900Y0254495D01*
X0272900Y0253496D02*
X0132800Y0253496D01*
X0132800Y0252497D02*
X0272900Y0252497D01*
X0272900Y0251499D02*
X0132800Y0251499D01*
X0132052Y0250500D02*
X0272900Y0250500D01*
X0272900Y0249502D02*
X0131054Y0249502D01*
X0125546Y0249502D02*
X0114804Y0249502D01*
X0113914Y0248612D02*
X0116550Y0251248D01*
X0116550Y0254976D01*
X0113914Y0257612D01*
X0110186Y0257612D01*
X0107550Y0254976D01*
X0107550Y0251248D01*
X0110186Y0248612D01*
X0113914Y0248612D01*
X0115802Y0250500D02*
X0124548Y0250500D01*
X0123800Y0251499D02*
X0116550Y0251499D01*
X0116550Y0252497D02*
X0123800Y0252497D01*
X0123800Y0253496D02*
X0116550Y0253496D01*
X0116550Y0254495D02*
X0123800Y0254495D01*
X0124317Y0255493D02*
X0116033Y0255493D01*
X0115035Y0256492D02*
X0125315Y0256492D01*
X0126314Y0257490D02*
X0114036Y0257490D01*
X0110064Y0257490D02*
X0069929Y0257490D01*
X0070342Y0258489D02*
X0072068Y0258489D01*
X0072352Y0258204D02*
X0078248Y0258204D01*
X0079478Y0259434D01*
X0079478Y0265330D01*
X0078686Y0266122D01*
X0079478Y0266914D01*
X0079478Y0272810D01*
X0078251Y0274037D01*
X0078299Y0274064D01*
X0078578Y0274344D01*
X0078776Y0274686D01*
X0078878Y0275067D01*
X0078878Y0277154D01*
X0075489Y0277154D01*
X0075489Y0277531D01*
X0078878Y0277531D01*
X0078878Y0279618D01*
X0078776Y0279999D01*
X0078578Y0280341D01*
X0078299Y0280621D01*
X0077957Y0280818D01*
X0077575Y0280920D01*
X0075489Y0280920D01*
X0075489Y0277532D01*
X0075111Y0277532D01*
X0075111Y0280920D01*
X0073025Y0280920D01*
X0072643Y0280818D01*
X0072301Y0280621D01*
X0072022Y0280341D01*
X0071824Y0279999D01*
X0071722Y0279618D01*
X0071722Y0277531D01*
X0075111Y0277531D01*
X0075111Y0277154D01*
X0071722Y0277154D01*
X0071722Y0275067D01*
X0071824Y0274686D01*
X0072022Y0274344D01*
X0072301Y0274064D01*
X0072349Y0274037D01*
X0071122Y0272810D01*
X0071122Y0266914D01*
X0071914Y0266122D01*
X0071122Y0265330D01*
X0071122Y0259434D01*
X0072352Y0258204D01*
X0071122Y0259487D02*
X0070707Y0259487D01*
X0070707Y0260486D02*
X0071122Y0260486D01*
X0071122Y0261484D02*
X0070696Y0261484D01*
X0070283Y0262483D02*
X0071122Y0262483D01*
X0071122Y0263481D02*
X0069814Y0263481D01*
X0068815Y0264480D02*
X0071122Y0264480D01*
X0071270Y0265478D02*
X0066948Y0265478D01*
X0063967Y0265478D02*
X0060400Y0265478D01*
X0060400Y0264480D02*
X0062100Y0264480D01*
X0061101Y0263481D02*
X0060400Y0263481D01*
X0060400Y0262483D02*
X0060632Y0262483D01*
X0060573Y0258489D02*
X0060400Y0258489D01*
X0060400Y0257490D02*
X0060986Y0257490D01*
X0060400Y0256492D02*
X0061955Y0256492D01*
X0060400Y0255493D02*
X0063618Y0255493D01*
X0060400Y0254495D02*
X0107550Y0254495D01*
X0107550Y0253496D02*
X0060400Y0253496D01*
X0060400Y0252497D02*
X0107550Y0252497D01*
X0107550Y0251499D02*
X0060400Y0251499D01*
X0060400Y0250500D02*
X0108298Y0250500D01*
X0109296Y0249502D02*
X0077811Y0249502D01*
X0078392Y0248921D02*
X0077162Y0250151D01*
X0065973Y0250151D01*
X0064743Y0248921D01*
X0064743Y0237733D01*
X0065973Y0236502D01*
X0077162Y0236502D01*
X0078392Y0237733D01*
X0078392Y0248921D01*
X0078392Y0248503D02*
X0272729Y0248503D01*
X0271730Y0247505D02*
X0078392Y0247505D01*
X0078392Y0246506D02*
X0270732Y0246506D01*
X0270700Y0245508D02*
X0078392Y0245508D01*
X0078392Y0244509D02*
X0270700Y0244509D01*
X0270700Y0243511D02*
X0078392Y0243511D01*
X0078392Y0242512D02*
X0270700Y0242512D01*
X0271436Y0241514D02*
X0078392Y0241514D01*
X0078392Y0240515D02*
X0272434Y0240515D01*
X0273433Y0239517D02*
X0078392Y0239517D01*
X0078392Y0238518D02*
X0272744Y0238518D01*
X0271745Y0237520D02*
X0078179Y0237520D01*
X0077181Y0236521D02*
X0270747Y0236521D01*
X0270700Y0235523D02*
X0060400Y0235523D01*
X0060400Y0236521D02*
X0065955Y0236521D01*
X0064956Y0237520D02*
X0060400Y0237520D01*
X0060400Y0238518D02*
X0064743Y0238518D01*
X0064743Y0239517D02*
X0060400Y0239517D01*
X0060400Y0240515D02*
X0064743Y0240515D01*
X0064743Y0241514D02*
X0060400Y0241514D01*
X0060400Y0242512D02*
X0064743Y0242512D01*
X0064743Y0243511D02*
X0060400Y0243511D01*
X0060400Y0244509D02*
X0064743Y0244509D01*
X0064743Y0245508D02*
X0060400Y0245508D01*
X0060400Y0246506D02*
X0064743Y0246506D01*
X0064743Y0247505D02*
X0060400Y0247505D01*
X0060400Y0248503D02*
X0064743Y0248503D01*
X0065324Y0249502D02*
X0060400Y0249502D01*
X0067297Y0255493D02*
X0108067Y0255493D01*
X0109065Y0256492D02*
X0068960Y0256492D01*
X0071560Y0266477D02*
X0060400Y0266477D01*
X0060400Y0267475D02*
X0071122Y0267475D01*
X0071122Y0268474D02*
X0060400Y0268474D01*
X0060400Y0269472D02*
X0071122Y0269472D01*
X0071122Y0270471D02*
X0060400Y0270471D01*
X0060400Y0271469D02*
X0071122Y0271469D01*
X0071122Y0272468D02*
X0060400Y0272468D01*
X0060400Y0273466D02*
X0071778Y0273466D01*
X0071952Y0274465D02*
X0060400Y0274465D01*
X0060400Y0275463D02*
X0062930Y0275463D01*
X0061670Y0276462D02*
X0060400Y0276462D01*
X0060400Y0277460D02*
X0060868Y0277460D01*
X0060455Y0278459D02*
X0060400Y0278459D01*
X0060400Y0282453D02*
X0060751Y0282453D01*
X0060400Y0283451D02*
X0061386Y0283451D01*
X0060400Y0284450D02*
X0062385Y0284450D01*
X0060400Y0285448D02*
X0201941Y0285448D01*
X0201819Y0284450D02*
X0068530Y0284450D01*
X0069529Y0283451D02*
X0201868Y0283451D01*
X0200760Y0282453D02*
X0070164Y0282453D01*
X0070578Y0281454D02*
X0199857Y0281454D01*
X0199444Y0280456D02*
X0078464Y0280456D01*
X0078878Y0279457D02*
X0199319Y0279457D01*
X0199365Y0278459D02*
X0097523Y0278459D01*
X0097049Y0278655D02*
X0093708Y0278655D01*
X0090621Y0277376D01*
X0088258Y0275014D01*
X0087566Y0273343D01*
X0087508Y0273343D01*
X0086045Y0272737D01*
X0084925Y0271617D01*
X0084319Y0270154D01*
X0084319Y0268570D01*
X0084925Y0267107D01*
X0086045Y0265987D01*
X0087508Y0265381D01*
X0088375Y0265381D01*
X0090621Y0263135D01*
X0093708Y0261857D01*
X0097049Y0261857D01*
X0100137Y0263135D01*
X0102499Y0265498D01*
X0103778Y0268585D01*
X0103778Y0271927D01*
X0102499Y0275014D01*
X0100137Y0277376D01*
X0097049Y0278655D01*
X0099934Y0277460D02*
X0198268Y0277460D01*
X0197361Y0276462D02*
X0101051Y0276462D01*
X0102050Y0275463D02*
X0159041Y0275463D01*
X0158534Y0275253D02*
X0157409Y0274128D01*
X0156800Y0272658D01*
X0156800Y0271067D01*
X0157409Y0269596D01*
X0158534Y0268471D01*
X0160004Y0267862D01*
X0161596Y0267862D01*
X0163066Y0268471D01*
X0164191Y0269596D01*
X0164800Y0271067D01*
X0164800Y0272658D01*
X0164191Y0274128D01*
X0163066Y0275253D01*
X0161596Y0275862D01*
X0160004Y0275862D01*
X0158534Y0275253D01*
X0157746Y0274465D02*
X0153006Y0274465D01*
X0152967Y0274503D02*
X0152410Y0274875D01*
X0151792Y0275132D01*
X0151135Y0275262D01*
X0150900Y0275262D01*
X0150900Y0271962D01*
X0154200Y0271962D01*
X0154200Y0272197D01*
X0154069Y0272854D01*
X0153813Y0273473D01*
X0153441Y0274030D01*
X0152967Y0274503D01*
X0153816Y0273466D02*
X0157135Y0273466D01*
X0156800Y0272468D02*
X0154146Y0272468D01*
X0154200Y0271762D02*
X0150900Y0271762D01*
X0150900Y0268462D01*
X0151135Y0268462D01*
X0151792Y0268593D01*
X0152410Y0268849D01*
X0152967Y0269221D01*
X0153441Y0269695D01*
X0153813Y0270252D01*
X0154069Y0270870D01*
X0154200Y0271527D01*
X0154200Y0271762D01*
X0154188Y0271469D02*
X0156800Y0271469D01*
X0157047Y0270471D02*
X0153904Y0270471D01*
X0153218Y0269472D02*
X0157533Y0269472D01*
X0158532Y0268474D02*
X0151192Y0268474D01*
X0150900Y0268474D02*
X0150700Y0268474D01*
X0150700Y0268462D02*
X0150700Y0271762D01*
X0150900Y0271762D01*
X0150900Y0271962D01*
X0150700Y0271962D01*
X0150700Y0271762D01*
X0147400Y0271762D01*
X0147400Y0271527D01*
X0147531Y0270870D01*
X0147787Y0270252D01*
X0148159Y0269695D01*
X0148633Y0269221D01*
X0149189Y0268849D01*
X0149808Y0268593D01*
X0150465Y0268462D01*
X0150700Y0268462D01*
X0150408Y0268474D02*
X0103732Y0268474D01*
X0103778Y0269472D02*
X0148382Y0269472D01*
X0147696Y0270471D02*
X0103778Y0270471D01*
X0103778Y0271469D02*
X0147412Y0271469D01*
X0147400Y0271962D02*
X0150700Y0271962D01*
X0150700Y0275262D01*
X0150465Y0275262D01*
X0149808Y0275132D01*
X0149189Y0274875D01*
X0148633Y0274503D01*
X0148159Y0274030D01*
X0147787Y0273473D01*
X0147531Y0272854D01*
X0147400Y0272197D01*
X0147400Y0271962D01*
X0147454Y0272468D02*
X0103554Y0272468D01*
X0103140Y0273466D02*
X0147784Y0273466D01*
X0148594Y0274465D02*
X0102727Y0274465D01*
X0103318Y0267475D02*
X0203586Y0267475D01*
X0204584Y0266477D02*
X0102905Y0266477D01*
X0102479Y0265478D02*
X0205583Y0265478D01*
X0206581Y0264480D02*
X0101481Y0264480D01*
X0100482Y0263481D02*
X0207580Y0263481D01*
X0208578Y0262483D02*
X0098560Y0262483D01*
X0092197Y0262483D02*
X0079478Y0262483D01*
X0079478Y0263481D02*
X0090275Y0263481D01*
X0089277Y0264480D02*
X0079478Y0264480D01*
X0079330Y0265478D02*
X0087274Y0265478D01*
X0085555Y0266477D02*
X0079040Y0266477D01*
X0079478Y0267475D02*
X0084773Y0267475D01*
X0084359Y0268474D02*
X0079478Y0268474D01*
X0079478Y0269472D02*
X0084319Y0269472D01*
X0084450Y0270471D02*
X0079478Y0270471D01*
X0079478Y0271469D02*
X0084864Y0271469D01*
X0085775Y0272468D02*
X0079478Y0272468D01*
X0078822Y0273466D02*
X0087617Y0273466D01*
X0088031Y0274465D02*
X0078648Y0274465D01*
X0078878Y0275463D02*
X0088708Y0275463D01*
X0089706Y0276462D02*
X0078878Y0276462D01*
X0078878Y0278459D02*
X0093234Y0278459D01*
X0090823Y0277460D02*
X0075489Y0277460D01*
X0075111Y0277460D02*
X0070047Y0277460D01*
X0070460Y0278459D02*
X0071722Y0278459D01*
X0071722Y0279457D02*
X0070707Y0279457D01*
X0070707Y0280456D02*
X0072136Y0280456D01*
X0075111Y0280456D02*
X0075489Y0280456D01*
X0075489Y0279457D02*
X0075111Y0279457D01*
X0075111Y0278459D02*
X0075489Y0278459D01*
X0071722Y0276462D02*
X0069245Y0276462D01*
X0067985Y0275463D02*
X0071722Y0275463D01*
X0060400Y0286447D02*
X0202354Y0286447D01*
X0203253Y0287445D02*
X0060400Y0287445D01*
X0060400Y0288444D02*
X0426200Y0288444D01*
X0426200Y0289442D02*
X0246093Y0289442D01*
X0246805Y0289737D02*
X0247925Y0290857D01*
X0248531Y0292320D01*
X0248531Y0293904D01*
X0248432Y0294143D01*
X0254508Y0300219D01*
X0254950Y0301285D01*
X0254950Y0307075D01*
X0261778Y0307075D01*
X0262566Y0307863D01*
X0269239Y0307863D01*
X0270018Y0308642D01*
X0270152Y0308565D01*
X0270534Y0308463D01*
X0272790Y0308463D01*
X0272790Y0312612D01*
X0273790Y0312612D01*
X0273790Y0308463D01*
X0276047Y0308463D01*
X0276428Y0308565D01*
X0276770Y0308762D01*
X0277049Y0309042D01*
X0277247Y0309384D01*
X0277349Y0309765D01*
X0277349Y0312612D01*
X0273790Y0312612D01*
X0273790Y0313612D01*
X0277349Y0313612D01*
X0277349Y0316459D01*
X0277247Y0316841D01*
X0277049Y0317183D01*
X0276770Y0317462D01*
X0276428Y0317660D01*
X0276047Y0317762D01*
X0273790Y0317762D01*
X0273790Y0313612D01*
X0272790Y0313612D01*
X0272790Y0317762D01*
X0270534Y0317762D01*
X0270152Y0317660D01*
X0270018Y0317582D01*
X0269239Y0318362D01*
X0262566Y0318362D01*
X0261778Y0319149D01*
X0254950Y0319149D01*
X0254950Y0320641D01*
X0255930Y0321621D01*
X0258561Y0321621D01*
X0259791Y0322851D01*
X0259791Y0328353D01*
X0258561Y0329583D01*
X0253059Y0329583D01*
X0251829Y0328353D01*
X0251829Y0325722D01*
X0250900Y0324794D01*
X0250900Y0330877D01*
X0250124Y0332751D01*
X0248689Y0334186D01*
X0246814Y0334962D01*
X0244786Y0334962D01*
X0242911Y0334186D01*
X0241476Y0332751D01*
X0240700Y0330877D01*
X0240700Y0322848D01*
X0241476Y0320973D01*
X0242900Y0319550D01*
X0242900Y0319149D01*
X0242322Y0319149D01*
X0241092Y0317919D01*
X0241092Y0308305D01*
X0241167Y0308230D01*
X0240993Y0308057D01*
X0240993Y0303168D01*
X0242223Y0301937D01*
X0248024Y0301937D01*
X0242771Y0296684D01*
X0242295Y0296487D01*
X0241175Y0295367D01*
X0240569Y0293904D01*
X0240569Y0292320D01*
X0241175Y0290857D01*
X0242295Y0289737D01*
X0243758Y0289131D01*
X0245342Y0289131D01*
X0246805Y0289737D01*
X0247509Y0290441D02*
X0426200Y0290441D01*
X0426200Y0291439D02*
X0248166Y0291439D01*
X0248531Y0292438D02*
X0426200Y0292438D01*
X0426200Y0293436D02*
X0248531Y0293436D01*
X0248724Y0294435D02*
X0426200Y0294435D01*
X0426200Y0295433D02*
X0306718Y0295433D01*
X0306592Y0295381D02*
X0308055Y0295987D01*
X0309175Y0297107D01*
X0309781Y0298570D01*
X0309781Y0300154D01*
X0309175Y0301617D01*
X0309100Y0301692D01*
X0309100Y0302032D01*
X0309175Y0302107D01*
X0309781Y0303570D01*
X0309781Y0305154D01*
X0309175Y0306617D01*
X0308055Y0307737D01*
X0306592Y0308343D01*
X0306486Y0308343D01*
X0291600Y0323229D01*
X0291600Y0332519D01*
X0291098Y0333731D01*
X0290169Y0334660D01*
X0284169Y0340660D01*
X0282956Y0341162D01*
X0269667Y0341162D01*
X0262098Y0348731D01*
X0261169Y0349660D01*
X0259956Y0350162D01*
X0244925Y0350162D01*
X0243774Y0351313D01*
X0241844Y0352112D01*
X0239756Y0352112D01*
X0237826Y0351313D01*
X0236675Y0350162D01*
X0234667Y0350162D01*
X0218693Y0366136D01*
X0217480Y0366639D01*
X0204486Y0366639D01*
X0203717Y0367407D01*
X0195678Y0367407D01*
X0194448Y0366177D01*
X0194448Y0360500D01*
X0195678Y0359270D01*
X0203717Y0359270D01*
X0204486Y0360039D01*
X0215457Y0360039D01*
X0228633Y0346862D01*
X0223931Y0342160D01*
X0223002Y0341231D01*
X0222500Y0340019D01*
X0222500Y0333775D01*
X0221503Y0332777D01*
X0221503Y0333852D01*
X0217550Y0333852D01*
X0217550Y0334852D01*
X0221503Y0334852D01*
X0221503Y0337109D01*
X0221401Y0337490D01*
X0221203Y0337832D01*
X0220924Y0338112D01*
X0220582Y0338309D01*
X0220200Y0338411D01*
X0217550Y0338411D01*
X0217550Y0334852D01*
X0216550Y0334852D01*
X0216550Y0333852D01*
X0212597Y0333852D01*
X0212597Y0331596D01*
X0212699Y0331214D01*
X0212777Y0331080D01*
X0211997Y0330301D01*
X0211997Y0323443D01*
X0213227Y0322213D01*
X0220873Y0322213D01*
X0220936Y0322277D01*
X0221476Y0320973D01*
X0222500Y0319950D01*
X0222500Y0309192D01*
X0222425Y0309117D01*
X0221819Y0307654D01*
X0221819Y0306070D01*
X0222425Y0304607D01*
X0223545Y0303487D01*
X0225008Y0302881D01*
X0226065Y0302881D01*
X0226473Y0302712D01*
X0228063Y0302712D01*
X0228838Y0301937D01*
X0236877Y0301937D01*
X0238107Y0303168D01*
X0238107Y0308057D01*
X0236877Y0309287D01*
X0229100Y0309287D01*
X0229100Y0319950D01*
X0230124Y0320973D01*
X0230900Y0322848D01*
X0230900Y0330877D01*
X0230124Y0332751D01*
X0229100Y0333775D01*
X0229100Y0337995D01*
X0234667Y0343562D01*
X0236675Y0343562D01*
X0237826Y0342411D01*
X0239756Y0341612D01*
X0241844Y0341612D01*
X0243774Y0342411D01*
X0244925Y0343562D01*
X0257933Y0343562D01*
X0264781Y0336714D01*
X0264581Y0336631D01*
X0263231Y0335281D01*
X0262500Y0333517D01*
X0262500Y0326207D01*
X0263231Y0324443D01*
X0264581Y0323093D01*
X0266345Y0322362D01*
X0268255Y0322362D01*
X0270019Y0323093D01*
X0271369Y0324443D01*
X0272100Y0326207D01*
X0272100Y0333517D01*
X0271667Y0334562D01*
X0272933Y0334562D01*
X0272500Y0333517D01*
X0272500Y0326207D01*
X0273231Y0324443D01*
X0274581Y0323093D01*
X0276345Y0322362D01*
X0278255Y0322362D01*
X0280019Y0323093D01*
X0281369Y0324443D01*
X0282100Y0326207D01*
X0282100Y0333395D01*
X0285000Y0330495D01*
X0285000Y0321206D01*
X0285502Y0319993D01*
X0301819Y0303676D01*
X0301819Y0303570D01*
X0302425Y0302107D01*
X0302500Y0302032D01*
X0302500Y0301692D01*
X0302425Y0301617D01*
X0301819Y0300154D01*
X0301819Y0298570D01*
X0302425Y0297107D01*
X0303545Y0295987D01*
X0305008Y0295381D01*
X0306592Y0295381D01*
X0304882Y0295433D02*
X0249722Y0295433D01*
X0250721Y0296432D02*
X0303100Y0296432D01*
X0302291Y0297430D02*
X0251719Y0297430D01*
X0252718Y0298429D02*
X0301877Y0298429D01*
X0301819Y0299428D02*
X0253717Y0299428D01*
X0254594Y0300426D02*
X0301932Y0300426D01*
X0302345Y0301425D02*
X0254950Y0301425D01*
X0254950Y0302423D02*
X0302294Y0302423D01*
X0301880Y0303422D02*
X0254950Y0303422D01*
X0254950Y0304420D02*
X0301075Y0304420D01*
X0300077Y0305419D02*
X0254950Y0305419D01*
X0254950Y0306417D02*
X0299078Y0306417D01*
X0298080Y0307416D02*
X0262119Y0307416D01*
X0269790Y0308414D02*
X0297081Y0308414D01*
X0296083Y0309413D02*
X0277255Y0309413D01*
X0277349Y0310411D02*
X0295084Y0310411D01*
X0294086Y0311410D02*
X0277349Y0311410D01*
X0277349Y0312408D02*
X0293087Y0312408D01*
X0292089Y0313407D02*
X0273790Y0313407D01*
X0273790Y0314405D02*
X0272790Y0314405D01*
X0272790Y0315404D02*
X0273790Y0315404D01*
X0273790Y0316402D02*
X0272790Y0316402D01*
X0272790Y0317401D02*
X0273790Y0317401D01*
X0276832Y0317401D02*
X0288095Y0317401D01*
X0289093Y0316402D02*
X0277349Y0316402D01*
X0277349Y0315404D02*
X0290092Y0315404D01*
X0291090Y0314405D02*
X0277349Y0314405D01*
X0273790Y0312408D02*
X0272790Y0312408D01*
X0272790Y0311410D02*
X0273790Y0311410D01*
X0273790Y0310411D02*
X0272790Y0310411D01*
X0272790Y0309413D02*
X0273790Y0309413D01*
X0262528Y0318399D02*
X0287096Y0318399D01*
X0286098Y0319398D02*
X0254950Y0319398D01*
X0254950Y0320396D02*
X0285335Y0320396D01*
X0285000Y0321395D02*
X0255703Y0321395D01*
X0259333Y0322393D02*
X0266270Y0322393D01*
X0268330Y0322393D02*
X0276270Y0322393D01*
X0278330Y0322393D02*
X0285000Y0322393D01*
X0285000Y0323392D02*
X0280318Y0323392D01*
X0281316Y0324390D02*
X0285000Y0324390D01*
X0285000Y0325389D02*
X0281761Y0325389D01*
X0282100Y0326387D02*
X0285000Y0326387D01*
X0285000Y0327386D02*
X0282100Y0327386D01*
X0282100Y0328384D02*
X0285000Y0328384D01*
X0285000Y0329383D02*
X0282100Y0329383D01*
X0282100Y0330381D02*
X0285000Y0330381D01*
X0284115Y0331380D02*
X0282100Y0331380D01*
X0282100Y0332378D02*
X0283117Y0332378D01*
X0282118Y0333377D02*
X0282100Y0333377D01*
X0286460Y0338369D02*
X0288560Y0338369D01*
X0289559Y0337371D02*
X0287458Y0337371D01*
X0288457Y0336372D02*
X0290557Y0336372D01*
X0291556Y0335374D02*
X0289455Y0335374D01*
X0290169Y0334660D02*
X0290169Y0334660D01*
X0290454Y0334375D02*
X0292554Y0334375D01*
X0293553Y0333377D02*
X0291244Y0333377D01*
X0291600Y0332378D02*
X0294551Y0332378D01*
X0295550Y0331380D02*
X0291600Y0331380D01*
X0291600Y0330381D02*
X0305007Y0330381D01*
X0305008Y0330381D02*
X0306592Y0330381D01*
X0307271Y0330662D01*
X0309329Y0330662D01*
X0310008Y0330381D01*
X0311592Y0330381D01*
X0312271Y0330662D01*
X0314329Y0330662D01*
X0315008Y0330381D01*
X0316592Y0330381D01*
X0318055Y0330987D01*
X0319175Y0332107D01*
X0319781Y0333570D01*
X0319781Y0333773D01*
X0320400Y0334392D01*
X0320400Y0344332D01*
X0319170Y0345562D01*
X0302975Y0345562D01*
X0302975Y0346189D01*
X0301745Y0347419D01*
X0296855Y0347419D01*
X0295625Y0346189D01*
X0295625Y0341770D01*
X0288437Y0348958D01*
X0288437Y0348958D01*
X0287396Y0349999D01*
X0286036Y0350562D01*
X0280025Y0350562D01*
X0278774Y0351813D01*
X0276844Y0352612D01*
X0274756Y0352612D01*
X0272826Y0351813D01*
X0271349Y0350336D01*
X0270550Y0348406D01*
X0270550Y0346318D01*
X0271349Y0344388D01*
X0272826Y0342911D01*
X0274756Y0342112D01*
X0276844Y0342112D01*
X0278774Y0342911D01*
X0279025Y0343162D01*
X0283767Y0343162D01*
X0295704Y0331225D01*
X0297064Y0330662D01*
X0304329Y0330662D01*
X0305008Y0330381D01*
X0304844Y0329612D02*
X0302756Y0329612D01*
X0300826Y0328813D01*
X0299349Y0327336D01*
X0298550Y0325406D01*
X0298550Y0323318D01*
X0299349Y0321388D01*
X0300826Y0319911D01*
X0302756Y0319112D01*
X0304844Y0319112D01*
X0306774Y0319911D01*
X0308251Y0321388D01*
X0309050Y0323318D01*
X0309050Y0325406D01*
X0308251Y0327336D01*
X0306774Y0328813D01*
X0304844Y0329612D01*
X0305398Y0329383D02*
X0336800Y0329383D01*
X0336800Y0330381D02*
X0316593Y0330381D01*
X0315874Y0329012D02*
X0313150Y0326288D01*
X0313150Y0324662D01*
X0317500Y0324662D01*
X0317500Y0324062D01*
X0318100Y0324062D01*
X0318100Y0319712D01*
X0319726Y0319712D01*
X0322450Y0322436D01*
X0322450Y0324062D01*
X0318100Y0324062D01*
X0318100Y0324662D01*
X0322450Y0324662D01*
X0322450Y0326288D01*
X0319726Y0329012D01*
X0318100Y0329012D01*
X0318100Y0324662D01*
X0317500Y0324662D01*
X0317500Y0329012D01*
X0315874Y0329012D01*
X0315246Y0328384D02*
X0307202Y0328384D01*
X0308201Y0327386D02*
X0314248Y0327386D01*
X0313249Y0326387D02*
X0308644Y0326387D01*
X0309050Y0325389D02*
X0313150Y0325389D01*
X0313150Y0324062D02*
X0313150Y0322436D01*
X0315874Y0319712D01*
X0317500Y0319712D01*
X0317500Y0324062D01*
X0313150Y0324062D01*
X0313150Y0323392D02*
X0309050Y0323392D01*
X0309050Y0324390D02*
X0317500Y0324390D01*
X0318100Y0324390D02*
X0426200Y0324390D01*
X0426200Y0323392D02*
X0419419Y0323392D01*
X0419492Y0323319D02*
X0419213Y0323598D01*
X0418871Y0323795D01*
X0418490Y0323898D01*
X0414068Y0323898D01*
X0414068Y0318173D01*
X0419792Y0318173D01*
X0419792Y0322595D01*
X0419690Y0322977D01*
X0419492Y0323319D01*
X0419792Y0322393D02*
X0426200Y0322393D01*
X0426200Y0321395D02*
X0419792Y0321395D01*
X0419792Y0320396D02*
X0426200Y0320396D01*
X0426200Y0319398D02*
X0419792Y0319398D01*
X0419792Y0318399D02*
X0426200Y0318399D01*
X0426200Y0317401D02*
X0414068Y0317401D01*
X0414068Y0317173D02*
X0414068Y0318173D01*
X0413068Y0318173D01*
X0413068Y0317173D01*
X0414068Y0317173D01*
X0419792Y0317173D01*
X0419792Y0312751D01*
X0419690Y0312370D01*
X0419492Y0312028D01*
X0419213Y0311749D01*
X0418871Y0311551D01*
X0418490Y0311449D01*
X0414068Y0311449D01*
X0414068Y0317173D01*
X0414068Y0316402D02*
X0413068Y0316402D01*
X0413068Y0317173D02*
X0413068Y0311449D01*
X0408646Y0311449D01*
X0408264Y0311551D01*
X0407922Y0311749D01*
X0407643Y0312028D01*
X0407446Y0312370D01*
X0407343Y0312751D01*
X0407343Y0317173D01*
X0413068Y0317173D01*
X0413068Y0317401D02*
X0297428Y0317401D01*
X0296430Y0318399D02*
X0407343Y0318399D01*
X0407343Y0318173D02*
X0413068Y0318173D01*
X0413068Y0323898D01*
X0408646Y0323898D01*
X0408264Y0323795D01*
X0407922Y0323598D01*
X0407643Y0323319D01*
X0407446Y0322977D01*
X0407343Y0322595D01*
X0407343Y0318173D01*
X0407343Y0319398D02*
X0305534Y0319398D01*
X0307259Y0320396D02*
X0315190Y0320396D01*
X0314191Y0321395D02*
X0308253Y0321395D01*
X0308667Y0322393D02*
X0313193Y0322393D01*
X0317500Y0322393D02*
X0318100Y0322393D01*
X0318100Y0321395D02*
X0317500Y0321395D01*
X0317500Y0320396D02*
X0318100Y0320396D01*
X0320410Y0320396D02*
X0407343Y0320396D01*
X0407343Y0321395D02*
X0321409Y0321395D01*
X0322407Y0322393D02*
X0407343Y0322393D01*
X0407716Y0323392D02*
X0322450Y0323392D01*
X0322450Y0325389D02*
X0338003Y0325389D01*
X0338103Y0325362D02*
X0355300Y0325362D01*
X0355300Y0348862D01*
X0356300Y0348862D01*
X0356300Y0325362D01*
X0373497Y0325362D01*
X0373879Y0325464D01*
X0374221Y0325662D01*
X0374500Y0325941D01*
X0374698Y0326283D01*
X0374800Y0326665D01*
X0374800Y0348862D01*
X0356300Y0348862D01*
X0356300Y0349862D01*
X0374800Y0349862D01*
X0374800Y0372060D01*
X0374698Y0372441D01*
X0374500Y0372783D01*
X0374221Y0373062D01*
X0373879Y0373260D01*
X0373497Y0373362D01*
X0356300Y0373362D01*
X0356300Y0349862D01*
X0355300Y0349862D01*
X0355300Y0348862D01*
X0336800Y0348862D01*
X0336800Y0326665D01*
X0336902Y0326283D01*
X0337100Y0325941D01*
X0337379Y0325662D01*
X0337721Y0325464D01*
X0338103Y0325362D01*
X0336874Y0326387D02*
X0322351Y0326387D01*
X0321352Y0327386D02*
X0336800Y0327386D01*
X0336800Y0328384D02*
X0320354Y0328384D01*
X0318100Y0328384D02*
X0317500Y0328384D01*
X0317500Y0327386D02*
X0318100Y0327386D01*
X0318100Y0326387D02*
X0317500Y0326387D01*
X0317500Y0325389D02*
X0318100Y0325389D01*
X0318100Y0323392D02*
X0317500Y0323392D01*
X0315007Y0330381D02*
X0311593Y0330381D01*
X0310007Y0330381D02*
X0306593Y0330381D01*
X0302202Y0329383D02*
X0291600Y0329383D01*
X0291600Y0328384D02*
X0300398Y0328384D01*
X0299399Y0327386D02*
X0291600Y0327386D01*
X0291600Y0326387D02*
X0298956Y0326387D01*
X0298550Y0325389D02*
X0291600Y0325389D01*
X0291600Y0324390D02*
X0298550Y0324390D01*
X0298550Y0323392D02*
X0291600Y0323392D01*
X0292436Y0322393D02*
X0298933Y0322393D01*
X0299347Y0321395D02*
X0293434Y0321395D01*
X0294433Y0320396D02*
X0300341Y0320396D01*
X0302066Y0319398D02*
X0295431Y0319398D01*
X0298427Y0316402D02*
X0407343Y0316402D01*
X0407343Y0315404D02*
X0299425Y0315404D01*
X0300424Y0314405D02*
X0407343Y0314405D01*
X0407343Y0313407D02*
X0301422Y0313407D01*
X0302421Y0312408D02*
X0407435Y0312408D01*
X0413068Y0312408D02*
X0414068Y0312408D01*
X0414068Y0313407D02*
X0413068Y0313407D01*
X0413068Y0314405D02*
X0414068Y0314405D01*
X0414068Y0315404D02*
X0413068Y0315404D01*
X0413068Y0318399D02*
X0414068Y0318399D01*
X0414068Y0319398D02*
X0413068Y0319398D01*
X0413068Y0320396D02*
X0414068Y0320396D01*
X0414068Y0321395D02*
X0413068Y0321395D01*
X0413068Y0322393D02*
X0414068Y0322393D01*
X0414068Y0323392D02*
X0413068Y0323392D01*
X0419792Y0316402D02*
X0426200Y0316402D01*
X0426200Y0315404D02*
X0419792Y0315404D01*
X0419792Y0314405D02*
X0426200Y0314405D01*
X0426200Y0313407D02*
X0419792Y0313407D01*
X0419700Y0312408D02*
X0426200Y0312408D01*
X0426200Y0311410D02*
X0303419Y0311410D01*
X0304418Y0310411D02*
X0426200Y0310411D01*
X0426200Y0309413D02*
X0305416Y0309413D01*
X0306415Y0308414D02*
X0426200Y0308414D01*
X0426200Y0307416D02*
X0308377Y0307416D01*
X0309258Y0306417D02*
X0426200Y0306417D01*
X0426200Y0305419D02*
X0309672Y0305419D01*
X0309781Y0304420D02*
X0426200Y0304420D01*
X0426200Y0303422D02*
X0309719Y0303422D01*
X0309306Y0302423D02*
X0426200Y0302423D01*
X0426200Y0301425D02*
X0309255Y0301425D01*
X0309668Y0300426D02*
X0426200Y0300426D01*
X0426200Y0299428D02*
X0309781Y0299428D01*
X0309723Y0298429D02*
X0426200Y0298429D01*
X0426200Y0297430D02*
X0309309Y0297430D01*
X0308500Y0296432D02*
X0426200Y0296432D01*
X0426200Y0287445D02*
X0208347Y0287445D01*
X0209246Y0286447D02*
X0426200Y0286447D01*
X0426200Y0285448D02*
X0209659Y0285448D01*
X0209814Y0284450D02*
X0426200Y0284450D01*
X0426200Y0283451D02*
X0210812Y0283451D01*
X0211811Y0282453D02*
X0426200Y0282453D01*
X0426200Y0281454D02*
X0212809Y0281454D01*
X0213808Y0280456D02*
X0426200Y0280456D01*
X0426200Y0279457D02*
X0214806Y0279457D01*
X0215805Y0278459D02*
X0426200Y0278459D01*
X0426200Y0277460D02*
X0216803Y0277460D01*
X0217802Y0276462D02*
X0426200Y0276462D01*
X0426200Y0275463D02*
X0218800Y0275463D01*
X0219799Y0274465D02*
X0404287Y0274465D01*
X0403743Y0273466D02*
X0220797Y0273466D01*
X0221796Y0272468D02*
X0403743Y0272468D01*
X0403743Y0271469D02*
X0222794Y0271469D01*
X0223793Y0270471D02*
X0403743Y0270471D01*
X0403743Y0269472D02*
X0224791Y0269472D01*
X0225790Y0268474D02*
X0403743Y0268474D01*
X0403743Y0267475D02*
X0228317Y0267475D01*
X0229233Y0266477D02*
X0403743Y0266477D01*
X0417392Y0266477D02*
X0426200Y0266477D01*
X0426200Y0267475D02*
X0417392Y0267475D01*
X0417392Y0268474D02*
X0426200Y0268474D01*
X0426200Y0269472D02*
X0417392Y0269472D01*
X0417392Y0270471D02*
X0426200Y0270471D01*
X0426200Y0271469D02*
X0417392Y0271469D01*
X0417392Y0272468D02*
X0426200Y0272468D01*
X0426200Y0273466D02*
X0417392Y0273466D01*
X0416848Y0274465D02*
X0426200Y0274465D01*
X0426200Y0265478D02*
X0417392Y0265478D01*
X0417392Y0264480D02*
X0426200Y0264480D01*
X0426200Y0263481D02*
X0417392Y0263481D01*
X0417142Y0262483D02*
X0426200Y0262483D01*
X0426200Y0253496D02*
X0416164Y0253496D01*
X0417162Y0252497D02*
X0426200Y0252497D01*
X0426200Y0251499D02*
X0417392Y0251499D01*
X0417392Y0250500D02*
X0426200Y0250500D01*
X0426200Y0249502D02*
X0417392Y0249502D01*
X0417392Y0248503D02*
X0426200Y0248503D01*
X0426200Y0247505D02*
X0417392Y0247505D01*
X0417392Y0246506D02*
X0426200Y0246506D01*
X0426200Y0245508D02*
X0417392Y0245508D01*
X0417392Y0244509D02*
X0426200Y0244509D01*
X0426200Y0243511D02*
X0417392Y0243511D01*
X0417392Y0242512D02*
X0426200Y0242512D01*
X0426200Y0241514D02*
X0417392Y0241514D01*
X0416828Y0240515D02*
X0426200Y0240515D01*
X0426200Y0325389D02*
X0373597Y0325389D01*
X0374726Y0326387D02*
X0426200Y0326387D01*
X0426200Y0327386D02*
X0374800Y0327386D01*
X0374800Y0328384D02*
X0426200Y0328384D01*
X0426200Y0329383D02*
X0374800Y0329383D01*
X0374800Y0330381D02*
X0426200Y0330381D01*
X0426200Y0331380D02*
X0374800Y0331380D01*
X0374800Y0332378D02*
X0426200Y0332378D01*
X0426200Y0333377D02*
X0420037Y0333377D01*
X0420392Y0333733D02*
X0419162Y0332502D01*
X0407973Y0332502D01*
X0406743Y0333733D01*
X0406743Y0344921D01*
X0407973Y0346151D01*
X0419162Y0346151D01*
X0420392Y0344921D01*
X0420392Y0333733D01*
X0420392Y0334375D02*
X0426200Y0334375D01*
X0426200Y0335374D02*
X0420392Y0335374D01*
X0420392Y0336372D02*
X0426200Y0336372D01*
X0426200Y0337371D02*
X0420392Y0337371D01*
X0420392Y0338369D02*
X0426200Y0338369D01*
X0426200Y0339368D02*
X0420392Y0339368D01*
X0420392Y0340366D02*
X0426200Y0340366D01*
X0426200Y0341365D02*
X0420392Y0341365D01*
X0420392Y0342363D02*
X0426200Y0342363D01*
X0426200Y0343362D02*
X0420392Y0343362D01*
X0420392Y0344361D02*
X0426200Y0344361D01*
X0426200Y0345359D02*
X0419954Y0345359D01*
X0417034Y0350352D02*
X0426200Y0350352D01*
X0426200Y0351350D02*
X0420122Y0351350D01*
X0421841Y0352349D02*
X0426200Y0352349D01*
X0426200Y0353347D02*
X0423143Y0353347D01*
X0424168Y0354346D02*
X0426200Y0354346D01*
X0426200Y0355344D02*
X0424992Y0355344D01*
X0425662Y0356343D02*
X0426200Y0356343D01*
X0426200Y0349353D02*
X0356300Y0349353D01*
X0356300Y0348355D02*
X0355300Y0348355D01*
X0355300Y0349353D02*
X0288042Y0349353D01*
X0289040Y0348355D02*
X0336800Y0348355D01*
X0336800Y0347356D02*
X0301807Y0347356D01*
X0302806Y0346358D02*
X0336800Y0346358D01*
X0336800Y0345359D02*
X0319373Y0345359D01*
X0320372Y0344361D02*
X0336800Y0344361D01*
X0336800Y0343362D02*
X0320400Y0343362D01*
X0320400Y0342363D02*
X0336800Y0342363D01*
X0336800Y0341365D02*
X0320400Y0341365D01*
X0320400Y0340366D02*
X0336800Y0340366D01*
X0336800Y0339368D02*
X0320400Y0339368D01*
X0320400Y0338369D02*
X0336800Y0338369D01*
X0336800Y0337371D02*
X0320400Y0337371D01*
X0320400Y0336372D02*
X0336800Y0336372D01*
X0336800Y0335374D02*
X0320400Y0335374D01*
X0320383Y0334375D02*
X0336800Y0334375D01*
X0336800Y0333377D02*
X0319701Y0333377D01*
X0319287Y0332378D02*
X0336800Y0332378D01*
X0336800Y0331380D02*
X0318448Y0331380D01*
X0301745Y0350306D02*
X0296855Y0350306D01*
X0295625Y0351536D01*
X0295625Y0359575D01*
X0296855Y0360805D01*
X0298576Y0360805D01*
X0299431Y0361660D01*
X0300644Y0362162D01*
X0301200Y0362162D01*
X0301200Y0364332D01*
X0301819Y0364951D01*
X0301819Y0365154D01*
X0302425Y0366617D01*
X0303545Y0367737D01*
X0305008Y0368343D01*
X0306592Y0368343D01*
X0307271Y0368062D01*
X0309329Y0368062D01*
X0310008Y0368343D01*
X0311592Y0368343D01*
X0312271Y0368062D01*
X0314329Y0368062D01*
X0315008Y0368343D01*
X0316592Y0368343D01*
X0318055Y0367737D01*
X0319175Y0366617D01*
X0319781Y0365154D01*
X0319781Y0364951D01*
X0320400Y0364332D01*
X0320400Y0354392D01*
X0319170Y0353162D01*
X0302975Y0353162D01*
X0302975Y0351536D01*
X0301745Y0350306D01*
X0301791Y0350352D02*
X0336800Y0350352D01*
X0336800Y0349862D02*
X0336800Y0372060D01*
X0336902Y0372441D01*
X0337100Y0372783D01*
X0337379Y0373062D01*
X0337721Y0373260D01*
X0338103Y0373362D01*
X0355300Y0373362D01*
X0355300Y0349862D01*
X0336800Y0349862D01*
X0336800Y0351350D02*
X0302789Y0351350D01*
X0302975Y0352349D02*
X0336800Y0352349D01*
X0336800Y0353347D02*
X0319355Y0353347D01*
X0320353Y0354346D02*
X0336800Y0354346D01*
X0336800Y0355344D02*
X0320400Y0355344D01*
X0320400Y0356343D02*
X0336800Y0356343D01*
X0336800Y0357341D02*
X0320400Y0357341D01*
X0320400Y0358340D02*
X0336800Y0358340D01*
X0336800Y0359338D02*
X0320400Y0359338D01*
X0320400Y0360337D02*
X0336800Y0360337D01*
X0336800Y0361335D02*
X0320400Y0361335D01*
X0320400Y0362334D02*
X0336800Y0362334D01*
X0336800Y0363332D02*
X0320400Y0363332D01*
X0320400Y0364331D02*
X0336800Y0364331D01*
X0336800Y0365329D02*
X0319709Y0365329D01*
X0319295Y0366328D02*
X0336800Y0366328D01*
X0336800Y0367326D02*
X0318466Y0367326D01*
X0316637Y0368325D02*
X0336800Y0368325D01*
X0336800Y0369323D02*
X0084168Y0369323D01*
X0084733Y0368325D02*
X0304963Y0368325D01*
X0306637Y0368325D02*
X0309963Y0368325D01*
X0311637Y0368325D02*
X0314963Y0368325D01*
X0303134Y0367326D02*
X0203798Y0367326D01*
X0203785Y0359338D02*
X0216157Y0359338D01*
X0217156Y0358340D02*
X0200106Y0358340D01*
X0200774Y0358063D02*
X0198844Y0358862D01*
X0196756Y0358862D01*
X0194826Y0358063D01*
X0193349Y0356586D01*
X0192550Y0354656D01*
X0192550Y0352568D01*
X0193349Y0350638D01*
X0194826Y0349161D01*
X0195222Y0348998D01*
X0194448Y0348224D01*
X0194448Y0342547D01*
X0195678Y0341317D01*
X0203717Y0341317D01*
X0204947Y0342547D01*
X0204947Y0348224D01*
X0203717Y0349454D01*
X0203398Y0349454D01*
X0203398Y0352451D01*
X0203050Y0353290D01*
X0203050Y0354656D01*
X0202251Y0356586D01*
X0200774Y0358063D01*
X0201496Y0357341D02*
X0208953Y0357341D01*
X0209874Y0358262D02*
X0207150Y0355538D01*
X0207150Y0353912D01*
X0211500Y0353912D01*
X0211500Y0353312D01*
X0212100Y0353312D01*
X0212100Y0348962D01*
X0213726Y0348962D01*
X0216450Y0351686D01*
X0216450Y0353312D01*
X0212100Y0353312D01*
X0212100Y0353912D01*
X0216450Y0353912D01*
X0216450Y0355538D01*
X0213726Y0358262D01*
X0212100Y0358262D01*
X0212100Y0353912D01*
X0211500Y0353912D01*
X0211500Y0358262D01*
X0209874Y0358262D01*
X0211500Y0357341D02*
X0212100Y0357341D01*
X0212100Y0356343D02*
X0211500Y0356343D01*
X0211500Y0355344D02*
X0212100Y0355344D01*
X0212100Y0354346D02*
X0211500Y0354346D01*
X0211500Y0353347D02*
X0203050Y0353347D01*
X0203050Y0354346D02*
X0207150Y0354346D01*
X0207150Y0355344D02*
X0202765Y0355344D01*
X0202352Y0356343D02*
X0207954Y0356343D01*
X0207150Y0353312D02*
X0207150Y0351686D01*
X0209874Y0348962D01*
X0211500Y0348962D01*
X0211500Y0353312D01*
X0207150Y0353312D01*
X0207150Y0352349D02*
X0203398Y0352349D01*
X0203398Y0351350D02*
X0207486Y0351350D01*
X0208485Y0350352D02*
X0203398Y0350352D01*
X0203818Y0349353D02*
X0209483Y0349353D01*
X0211500Y0349353D02*
X0212100Y0349353D01*
X0212100Y0350352D02*
X0211500Y0350352D01*
X0211500Y0351350D02*
X0212100Y0351350D01*
X0212100Y0352349D02*
X0211500Y0352349D01*
X0212100Y0353347D02*
X0222148Y0353347D01*
X0221150Y0354346D02*
X0216450Y0354346D01*
X0216450Y0355344D02*
X0220151Y0355344D01*
X0219153Y0356343D02*
X0215646Y0356343D01*
X0214647Y0357341D02*
X0218154Y0357341D01*
X0216450Y0352349D02*
X0223147Y0352349D01*
X0224145Y0351350D02*
X0216114Y0351350D01*
X0215115Y0350352D02*
X0225144Y0350352D01*
X0226142Y0349353D02*
X0214117Y0349353D01*
X0204817Y0348355D02*
X0227141Y0348355D01*
X0228139Y0347356D02*
X0204947Y0347356D01*
X0204947Y0346358D02*
X0228128Y0346358D01*
X0227130Y0345359D02*
X0204947Y0345359D01*
X0204947Y0344361D02*
X0226131Y0344361D01*
X0225133Y0343362D02*
X0204947Y0343362D01*
X0204763Y0342363D02*
X0224134Y0342363D01*
X0223136Y0341365D02*
X0203765Y0341365D01*
X0195631Y0341365D02*
X0060400Y0341365D01*
X0060400Y0342363D02*
X0158124Y0342363D01*
X0158174Y0342335D02*
X0158555Y0342232D01*
X0170457Y0342232D01*
X0170457Y0353862D01*
X0157253Y0353862D01*
X0157253Y0343535D01*
X0157355Y0343153D01*
X0157552Y0342811D01*
X0157832Y0342532D01*
X0158174Y0342335D01*
X0157299Y0343362D02*
X0060400Y0343362D01*
X0060400Y0344361D02*
X0157253Y0344361D01*
X0157253Y0345359D02*
X0060400Y0345359D01*
X0060400Y0346358D02*
X0157253Y0346358D01*
X0157253Y0347356D02*
X0060400Y0347356D01*
X0060400Y0348355D02*
X0157253Y0348355D01*
X0157253Y0349353D02*
X0060400Y0349353D01*
X0060400Y0350352D02*
X0067127Y0350352D01*
X0065223Y0351350D02*
X0060400Y0351350D01*
X0060400Y0352349D02*
X0063580Y0352349D01*
X0062582Y0353347D02*
X0060400Y0353347D01*
X0060400Y0354346D02*
X0061583Y0354346D01*
X0060831Y0355344D02*
X0060400Y0355344D01*
X0060400Y0340366D02*
X0222644Y0340366D01*
X0222500Y0339368D02*
X0060400Y0339368D01*
X0060400Y0338369D02*
X0127027Y0338369D01*
X0127145Y0338487D02*
X0126025Y0337367D01*
X0125419Y0335904D01*
X0125419Y0335232D01*
X0121657Y0331471D01*
X0120841Y0330655D01*
X0120400Y0329589D01*
X0120400Y0327092D01*
X0119925Y0326617D01*
X0119319Y0325154D01*
X0119319Y0323570D01*
X0119925Y0322107D01*
X0121045Y0320987D01*
X0122508Y0320381D01*
X0124092Y0320381D01*
X0125555Y0320987D01*
X0126675Y0322107D01*
X0127281Y0323570D01*
X0127281Y0325154D01*
X0126675Y0326617D01*
X0126200Y0327092D01*
X0126200Y0327811D01*
X0129520Y0331131D01*
X0130192Y0331131D01*
X0131655Y0331737D01*
X0132775Y0332857D01*
X0133381Y0334320D01*
X0133381Y0335904D01*
X0132775Y0337367D01*
X0131655Y0338487D01*
X0130192Y0339093D01*
X0128608Y0339093D01*
X0127145Y0338487D01*
X0126029Y0337371D02*
X0060400Y0337371D01*
X0060400Y0336372D02*
X0125613Y0336372D01*
X0125419Y0335374D02*
X0096152Y0335374D01*
X0095164Y0336362D02*
X0097800Y0333726D01*
X0097800Y0329998D01*
X0095164Y0327362D01*
X0091436Y0327362D01*
X0088800Y0329998D01*
X0088800Y0333726D01*
X0091436Y0336362D01*
X0095164Y0336362D01*
X0097151Y0334375D02*
X0124562Y0334375D01*
X0123563Y0333377D02*
X0097800Y0333377D01*
X0097800Y0332378D02*
X0122565Y0332378D01*
X0121566Y0331380D02*
X0097800Y0331380D01*
X0097800Y0330381D02*
X0120728Y0330381D01*
X0120400Y0329383D02*
X0097185Y0329383D01*
X0096186Y0328384D02*
X0120400Y0328384D01*
X0120400Y0327386D02*
X0095188Y0327386D01*
X0094915Y0325762D02*
X0093600Y0325762D01*
X0093600Y0322162D01*
X0097200Y0322162D01*
X0097200Y0323478D01*
X0094915Y0325762D01*
X0095289Y0325389D02*
X0119416Y0325389D01*
X0119319Y0324390D02*
X0096287Y0324390D01*
X0097200Y0323392D02*
X0119393Y0323392D01*
X0119806Y0322393D02*
X0097200Y0322393D01*
X0097200Y0321562D02*
X0093600Y0321562D01*
X0093600Y0317962D01*
X0094915Y0317962D01*
X0097200Y0320247D01*
X0097200Y0321562D01*
X0097200Y0321395D02*
X0120637Y0321395D01*
X0122472Y0320396D02*
X0097200Y0320396D01*
X0096351Y0319398D02*
X0182705Y0319398D01*
X0182425Y0319117D02*
X0181819Y0317654D01*
X0181819Y0316070D01*
X0182425Y0314607D01*
X0182900Y0314132D01*
X0182900Y0304592D01*
X0182425Y0304117D01*
X0181819Y0302654D01*
X0181819Y0301070D01*
X0182425Y0299607D01*
X0183545Y0298487D01*
X0185008Y0297881D01*
X0186592Y0297881D01*
X0188055Y0298487D01*
X0189175Y0299607D01*
X0189781Y0301070D01*
X0189781Y0302654D01*
X0189175Y0304117D01*
X0188700Y0304592D01*
X0188700Y0314132D01*
X0189175Y0314607D01*
X0189781Y0316070D01*
X0189781Y0317654D01*
X0189175Y0319117D01*
X0188055Y0320237D01*
X0186592Y0320843D01*
X0185008Y0320843D01*
X0183545Y0320237D01*
X0182425Y0319117D01*
X0182128Y0318399D02*
X0095352Y0318399D01*
X0093600Y0318399D02*
X0093000Y0318399D01*
X0093000Y0317962D02*
X0093000Y0321562D01*
X0093600Y0321562D01*
X0093600Y0322162D01*
X0093000Y0322162D01*
X0093000Y0321562D01*
X0089400Y0321562D01*
X0089400Y0320247D01*
X0091685Y0317962D01*
X0093000Y0317962D01*
X0093000Y0319398D02*
X0093600Y0319398D01*
X0093600Y0320396D02*
X0093000Y0320396D01*
X0093000Y0321395D02*
X0093600Y0321395D01*
X0093000Y0322162D02*
X0089400Y0322162D01*
X0089400Y0323478D01*
X0091685Y0325762D01*
X0093000Y0325762D01*
X0093000Y0322162D01*
X0093000Y0322393D02*
X0093600Y0322393D01*
X0093600Y0323392D02*
X0093000Y0323392D01*
X0093000Y0324390D02*
X0093600Y0324390D01*
X0093600Y0325389D02*
X0093000Y0325389D01*
X0091311Y0325389D02*
X0086137Y0325389D01*
X0085164Y0326362D02*
X0081436Y0326362D01*
X0078800Y0323726D01*
X0078800Y0319998D01*
X0081436Y0317362D01*
X0085164Y0317362D01*
X0087800Y0319998D01*
X0087800Y0323726D01*
X0085164Y0326362D01*
X0085164Y0327362D02*
X0087800Y0329998D01*
X0087800Y0333726D01*
X0085164Y0336362D01*
X0081436Y0336362D01*
X0078800Y0333726D01*
X0078800Y0329998D01*
X0081436Y0327362D01*
X0085164Y0327362D01*
X0085188Y0327386D02*
X0091412Y0327386D01*
X0090414Y0328384D02*
X0086186Y0328384D01*
X0087185Y0329383D02*
X0089415Y0329383D01*
X0088800Y0330381D02*
X0087800Y0330381D01*
X0087800Y0331380D02*
X0088800Y0331380D01*
X0088800Y0332378D02*
X0087800Y0332378D01*
X0087800Y0333377D02*
X0088800Y0333377D01*
X0089449Y0334375D02*
X0087151Y0334375D01*
X0086152Y0335374D02*
X0090448Y0335374D01*
X0080448Y0335374D02*
X0060400Y0335374D01*
X0060400Y0334375D02*
X0079449Y0334375D01*
X0078800Y0333377D02*
X0060400Y0333377D01*
X0060400Y0332378D02*
X0078800Y0332378D01*
X0078800Y0331380D02*
X0060400Y0331380D01*
X0060400Y0330381D02*
X0078800Y0330381D01*
X0079415Y0329383D02*
X0060400Y0329383D01*
X0060400Y0328384D02*
X0080414Y0328384D01*
X0081412Y0327386D02*
X0060400Y0327386D01*
X0060400Y0326387D02*
X0119830Y0326387D01*
X0125963Y0321395D02*
X0221302Y0321395D01*
X0222053Y0320396D02*
X0187671Y0320396D01*
X0188895Y0319398D02*
X0222500Y0319398D01*
X0222500Y0318399D02*
X0189472Y0318399D01*
X0189781Y0317401D02*
X0222500Y0317401D01*
X0222500Y0316402D02*
X0189781Y0316402D01*
X0189505Y0315404D02*
X0222500Y0315404D01*
X0222500Y0314405D02*
X0188973Y0314405D01*
X0188700Y0313407D02*
X0222500Y0313407D01*
X0222500Y0312408D02*
X0188700Y0312408D01*
X0188700Y0311410D02*
X0222500Y0311410D01*
X0222500Y0310411D02*
X0188700Y0310411D01*
X0188700Y0309413D02*
X0222500Y0309413D01*
X0222134Y0308414D02*
X0188700Y0308414D01*
X0188700Y0307416D02*
X0221819Y0307416D01*
X0221819Y0306417D02*
X0188700Y0306417D01*
X0188700Y0305419D02*
X0222089Y0305419D01*
X0222612Y0304420D02*
X0188872Y0304420D01*
X0189463Y0303422D02*
X0223703Y0303422D01*
X0228352Y0302423D02*
X0189781Y0302423D01*
X0189781Y0301425D02*
X0247511Y0301425D01*
X0246513Y0300426D02*
X0189514Y0300426D01*
X0188995Y0299428D02*
X0245514Y0299428D01*
X0244516Y0298429D02*
X0187915Y0298429D01*
X0183685Y0298429D02*
X0141468Y0298429D01*
X0140470Y0297430D02*
X0243517Y0297430D01*
X0242240Y0296432D02*
X0139471Y0296432D01*
X0138472Y0295433D02*
X0241241Y0295433D01*
X0240789Y0294435D02*
X0137474Y0294435D01*
X0137281Y0294242D02*
X0143420Y0300381D01*
X0144092Y0300381D01*
X0145555Y0300987D01*
X0146675Y0302107D01*
X0147281Y0303570D01*
X0147281Y0305154D01*
X0146675Y0306617D01*
X0145555Y0307737D01*
X0144092Y0308343D01*
X0142508Y0308343D01*
X0141045Y0307737D01*
X0139925Y0306617D01*
X0139319Y0305154D01*
X0139319Y0304482D01*
X0133180Y0298343D01*
X0132508Y0298343D01*
X0131045Y0297737D01*
X0129925Y0296617D01*
X0129319Y0295154D01*
X0129319Y0293570D01*
X0129925Y0292107D01*
X0131045Y0290987D01*
X0132508Y0290381D01*
X0134092Y0290381D01*
X0135555Y0290987D01*
X0136675Y0292107D01*
X0137281Y0293570D01*
X0137281Y0294242D01*
X0137226Y0293436D02*
X0240569Y0293436D01*
X0240569Y0292438D02*
X0136812Y0292438D01*
X0136007Y0291439D02*
X0240934Y0291439D01*
X0241591Y0290441D02*
X0134236Y0290441D01*
X0132364Y0290441D02*
X0060400Y0290441D01*
X0060400Y0291439D02*
X0130593Y0291439D01*
X0129788Y0292438D02*
X0060400Y0292438D01*
X0060400Y0293436D02*
X0129374Y0293436D01*
X0129319Y0294435D02*
X0060400Y0294435D01*
X0060400Y0295433D02*
X0129435Y0295433D01*
X0129848Y0296432D02*
X0060400Y0296432D01*
X0060400Y0297430D02*
X0081368Y0297430D01*
X0081436Y0297362D02*
X0085164Y0297362D01*
X0087800Y0299998D01*
X0087800Y0303726D01*
X0085164Y0306362D01*
X0081436Y0306362D01*
X0078800Y0303726D01*
X0078800Y0299998D01*
X0081436Y0297362D01*
X0080369Y0298429D02*
X0060400Y0298429D01*
X0060400Y0299428D02*
X0079371Y0299428D01*
X0078800Y0300426D02*
X0060400Y0300426D01*
X0060400Y0301425D02*
X0078800Y0301425D01*
X0078800Y0302423D02*
X0060400Y0302423D01*
X0060400Y0303422D02*
X0078800Y0303422D01*
X0079494Y0304420D02*
X0060400Y0304420D01*
X0060400Y0305419D02*
X0080492Y0305419D01*
X0081685Y0307962D02*
X0079400Y0310247D01*
X0079400Y0311562D01*
X0083000Y0311562D01*
X0083600Y0311562D01*
X0083600Y0307962D01*
X0084915Y0307962D01*
X0087200Y0310247D01*
X0087200Y0311562D01*
X0083600Y0311562D01*
X0083600Y0312162D01*
X0087200Y0312162D01*
X0087200Y0313478D01*
X0084915Y0315762D01*
X0083600Y0315762D01*
X0083600Y0312162D01*
X0083000Y0312162D01*
X0083000Y0311562D01*
X0083000Y0307962D01*
X0081685Y0307962D01*
X0081233Y0308414D02*
X0060400Y0308414D01*
X0060400Y0307416D02*
X0091383Y0307416D01*
X0091436Y0307362D02*
X0095164Y0307362D01*
X0097800Y0309998D01*
X0097800Y0313726D01*
X0095164Y0316362D01*
X0091436Y0316362D01*
X0088800Y0313726D01*
X0088800Y0309998D01*
X0091436Y0307362D01*
X0092405Y0306362D02*
X0090751Y0305677D01*
X0089485Y0304411D01*
X0088800Y0302757D01*
X0088800Y0300967D01*
X0089485Y0299313D01*
X0090751Y0298047D01*
X0092405Y0297362D01*
X0094195Y0297362D01*
X0095849Y0298047D01*
X0097115Y0299313D01*
X0097800Y0300967D01*
X0097800Y0302757D01*
X0097115Y0304411D01*
X0095849Y0305677D01*
X0094195Y0306362D01*
X0092405Y0306362D01*
X0090492Y0305419D02*
X0086108Y0305419D01*
X0087106Y0304420D02*
X0089494Y0304420D01*
X0089075Y0303422D02*
X0087800Y0303422D01*
X0087800Y0302423D02*
X0088800Y0302423D01*
X0088800Y0301425D02*
X0087800Y0301425D01*
X0087800Y0300426D02*
X0089024Y0300426D01*
X0089438Y0299428D02*
X0087229Y0299428D01*
X0086231Y0298429D02*
X0090369Y0298429D01*
X0092240Y0297430D02*
X0085232Y0297430D01*
X0094360Y0297430D02*
X0130738Y0297430D01*
X0133266Y0298429D02*
X0096231Y0298429D01*
X0097162Y0299428D02*
X0134264Y0299428D01*
X0135263Y0300426D02*
X0097576Y0300426D01*
X0097800Y0301425D02*
X0136261Y0301425D01*
X0137260Y0302423D02*
X0097800Y0302423D01*
X0097525Y0303422D02*
X0138258Y0303422D01*
X0139257Y0304420D02*
X0097106Y0304420D01*
X0096108Y0305419D02*
X0139428Y0305419D01*
X0139842Y0306417D02*
X0060400Y0306417D01*
X0060400Y0309413D02*
X0080234Y0309413D01*
X0079400Y0310411D02*
X0060400Y0310411D01*
X0060400Y0311410D02*
X0079400Y0311410D01*
X0079400Y0312162D02*
X0083000Y0312162D01*
X0083000Y0315762D01*
X0081685Y0315762D01*
X0079400Y0313478D01*
X0079400Y0312162D01*
X0079400Y0312408D02*
X0060400Y0312408D01*
X0060400Y0313407D02*
X0079400Y0313407D01*
X0080328Y0314405D02*
X0060400Y0314405D01*
X0060400Y0315404D02*
X0081326Y0315404D01*
X0083000Y0315404D02*
X0083600Y0315404D01*
X0083600Y0314405D02*
X0083000Y0314405D01*
X0083000Y0313407D02*
X0083600Y0313407D01*
X0083600Y0312408D02*
X0083000Y0312408D01*
X0083000Y0311410D02*
X0083600Y0311410D01*
X0083600Y0310411D02*
X0083000Y0310411D01*
X0083000Y0309413D02*
X0083600Y0309413D01*
X0083600Y0308414D02*
X0083000Y0308414D01*
X0085367Y0308414D02*
X0090384Y0308414D01*
X0089386Y0309413D02*
X0086366Y0309413D01*
X0087200Y0310411D02*
X0088800Y0310411D01*
X0088800Y0311410D02*
X0087200Y0311410D01*
X0087200Y0312408D02*
X0088800Y0312408D01*
X0088800Y0313407D02*
X0087200Y0313407D01*
X0086272Y0314405D02*
X0089479Y0314405D01*
X0090478Y0315404D02*
X0085274Y0315404D01*
X0085202Y0317401D02*
X0181819Y0317401D01*
X0181819Y0316402D02*
X0060400Y0316402D01*
X0060400Y0317401D02*
X0081398Y0317401D01*
X0080399Y0318399D02*
X0060400Y0318399D01*
X0060400Y0319398D02*
X0079401Y0319398D01*
X0078800Y0320396D02*
X0060400Y0320396D01*
X0060400Y0321395D02*
X0078800Y0321395D01*
X0078800Y0322393D02*
X0060400Y0322393D01*
X0060400Y0323392D02*
X0078800Y0323392D01*
X0079464Y0324390D02*
X0060400Y0324390D01*
X0060400Y0325389D02*
X0080463Y0325389D01*
X0087136Y0324390D02*
X0090313Y0324390D01*
X0089400Y0323392D02*
X0087800Y0323392D01*
X0087800Y0322393D02*
X0089400Y0322393D01*
X0089400Y0321395D02*
X0087800Y0321395D01*
X0087800Y0320396D02*
X0089400Y0320396D01*
X0090249Y0319398D02*
X0087199Y0319398D01*
X0086201Y0318399D02*
X0091248Y0318399D01*
X0096122Y0315404D02*
X0182095Y0315404D01*
X0182627Y0314405D02*
X0097121Y0314405D01*
X0097800Y0313407D02*
X0182900Y0313407D01*
X0182900Y0312408D02*
X0097800Y0312408D01*
X0097800Y0311410D02*
X0182900Y0311410D01*
X0182900Y0310411D02*
X0097800Y0310411D01*
X0097214Y0309413D02*
X0182900Y0309413D01*
X0182900Y0308414D02*
X0096216Y0308414D01*
X0095217Y0307416D02*
X0140723Y0307416D01*
X0145877Y0307416D02*
X0182900Y0307416D01*
X0182900Y0306417D02*
X0146758Y0306417D01*
X0147172Y0305419D02*
X0182900Y0305419D01*
X0182728Y0304420D02*
X0147281Y0304420D01*
X0147219Y0303422D02*
X0182137Y0303422D01*
X0181819Y0302423D02*
X0146806Y0302423D01*
X0145992Y0301425D02*
X0181819Y0301425D01*
X0182086Y0300426D02*
X0144200Y0300426D01*
X0142467Y0299428D02*
X0182605Y0299428D01*
X0183929Y0320396D02*
X0124128Y0320396D01*
X0126794Y0322393D02*
X0213047Y0322393D01*
X0212049Y0323392D02*
X0127207Y0323392D01*
X0127281Y0324390D02*
X0211997Y0324390D01*
X0211997Y0325389D02*
X0127184Y0325389D01*
X0126770Y0326387D02*
X0211997Y0326387D01*
X0211997Y0327386D02*
X0126200Y0327386D01*
X0126773Y0328384D02*
X0211997Y0328384D01*
X0211997Y0329383D02*
X0127772Y0329383D01*
X0128770Y0330381D02*
X0212078Y0330381D01*
X0212655Y0331380D02*
X0130792Y0331380D01*
X0132296Y0332378D02*
X0212597Y0332378D01*
X0212597Y0333377D02*
X0132990Y0333377D01*
X0133381Y0334375D02*
X0216550Y0334375D01*
X0216550Y0334852D02*
X0212597Y0334852D01*
X0212597Y0337109D01*
X0212699Y0337490D01*
X0212897Y0337832D01*
X0213176Y0338112D01*
X0213518Y0338309D01*
X0213900Y0338411D01*
X0216550Y0338411D01*
X0216550Y0334852D01*
X0216550Y0335374D02*
X0217550Y0335374D01*
X0217550Y0336372D02*
X0216550Y0336372D01*
X0216550Y0337371D02*
X0217550Y0337371D01*
X0217550Y0338369D02*
X0216550Y0338369D01*
X0213743Y0338369D02*
X0131773Y0338369D01*
X0132771Y0337371D02*
X0212667Y0337371D01*
X0212597Y0336372D02*
X0133187Y0336372D01*
X0133381Y0335374D02*
X0212597Y0335374D01*
X0217550Y0334375D02*
X0222500Y0334375D01*
X0222500Y0335374D02*
X0221503Y0335374D01*
X0221503Y0336372D02*
X0222500Y0336372D01*
X0222500Y0337371D02*
X0221433Y0337371D01*
X0222500Y0338369D02*
X0220357Y0338369D01*
X0221503Y0333377D02*
X0222102Y0333377D01*
X0229100Y0334375D02*
X0243369Y0334375D01*
X0242102Y0333377D02*
X0238618Y0333377D01*
X0238732Y0333295D02*
X0238159Y0333711D01*
X0237527Y0334033D01*
X0236854Y0334251D01*
X0236300Y0334339D01*
X0236300Y0327362D01*
X0240300Y0327362D01*
X0240300Y0330216D01*
X0240189Y0330916D01*
X0239970Y0331590D01*
X0239649Y0332221D01*
X0239232Y0332794D01*
X0238732Y0333295D01*
X0239534Y0332378D02*
X0241322Y0332378D01*
X0240908Y0331380D02*
X0240038Y0331380D01*
X0240274Y0330381D02*
X0240700Y0330381D01*
X0240700Y0329383D02*
X0240300Y0329383D01*
X0240300Y0328384D02*
X0240700Y0328384D01*
X0240700Y0327386D02*
X0240300Y0327386D01*
X0240300Y0326362D02*
X0236300Y0326362D01*
X0236300Y0319385D01*
X0236854Y0319473D01*
X0237527Y0319692D01*
X0238159Y0320013D01*
X0238732Y0320430D01*
X0239232Y0320931D01*
X0239649Y0321504D01*
X0239970Y0322135D01*
X0240189Y0322808D01*
X0240300Y0323508D01*
X0240300Y0326362D01*
X0240700Y0326387D02*
X0236300Y0326387D01*
X0236300Y0326362D02*
X0236300Y0327362D01*
X0235300Y0327362D01*
X0235300Y0326362D01*
X0236300Y0326362D01*
X0236300Y0325389D02*
X0235300Y0325389D01*
X0235300Y0326362D02*
X0235300Y0319385D01*
X0234746Y0319473D01*
X0234073Y0319692D01*
X0233441Y0320013D01*
X0232868Y0320430D01*
X0232368Y0320931D01*
X0231951Y0321504D01*
X0231630Y0322135D01*
X0231411Y0322808D01*
X0231300Y0323508D01*
X0231300Y0326362D01*
X0235300Y0326362D01*
X0235300Y0326387D02*
X0230900Y0326387D01*
X0230900Y0325389D02*
X0231300Y0325389D01*
X0231300Y0324390D02*
X0230900Y0324390D01*
X0230900Y0323392D02*
X0231318Y0323392D01*
X0231546Y0322393D02*
X0230712Y0322393D01*
X0230298Y0321395D02*
X0232030Y0321395D01*
X0232915Y0320396D02*
X0229547Y0320396D01*
X0229100Y0319398D02*
X0235221Y0319398D01*
X0235300Y0319398D02*
X0236300Y0319398D01*
X0236379Y0319398D02*
X0242900Y0319398D01*
X0242053Y0320396D02*
X0238685Y0320396D01*
X0239570Y0321395D02*
X0241302Y0321395D01*
X0240888Y0322393D02*
X0240054Y0322393D01*
X0240282Y0323392D02*
X0240700Y0323392D01*
X0240700Y0324390D02*
X0240300Y0324390D01*
X0240300Y0325389D02*
X0240700Y0325389D01*
X0236300Y0324390D02*
X0235300Y0324390D01*
X0235300Y0323392D02*
X0236300Y0323392D01*
X0236300Y0322393D02*
X0235300Y0322393D01*
X0235300Y0321395D02*
X0236300Y0321395D01*
X0236300Y0320396D02*
X0235300Y0320396D01*
X0229100Y0318399D02*
X0241572Y0318399D01*
X0241092Y0317401D02*
X0229100Y0317401D01*
X0229100Y0316402D02*
X0241092Y0316402D01*
X0241092Y0315404D02*
X0229100Y0315404D01*
X0229100Y0314405D02*
X0241092Y0314405D01*
X0241092Y0313407D02*
X0229100Y0313407D01*
X0229100Y0312408D02*
X0241092Y0312408D01*
X0241092Y0311410D02*
X0229100Y0311410D01*
X0229100Y0310411D02*
X0241092Y0310411D01*
X0241092Y0309413D02*
X0229100Y0309413D01*
X0237749Y0308414D02*
X0241092Y0308414D01*
X0240993Y0307416D02*
X0238107Y0307416D01*
X0238107Y0306417D02*
X0240993Y0306417D01*
X0240993Y0305419D02*
X0238107Y0305419D01*
X0238107Y0304420D02*
X0240993Y0304420D01*
X0240993Y0303422D02*
X0238107Y0303422D01*
X0237362Y0302423D02*
X0241738Y0302423D01*
X0243007Y0289442D02*
X0060400Y0289442D01*
X0079478Y0261484D02*
X0209577Y0261484D01*
X0210575Y0260486D02*
X0079478Y0260486D01*
X0079478Y0259487D02*
X0211574Y0259487D01*
X0211853Y0258489D02*
X0078532Y0258489D01*
X0060400Y0234524D02*
X0270700Y0234524D01*
X0270700Y0233526D02*
X0060400Y0233526D01*
X0060400Y0232527D02*
X0270700Y0232527D01*
X0271421Y0231529D02*
X0060400Y0231529D01*
X0060400Y0230530D02*
X0272419Y0230530D01*
X0273418Y0229532D02*
X0060400Y0229532D01*
X0071068Y0180605D02*
X0072068Y0180605D01*
X0072068Y0179606D02*
X0071068Y0179606D01*
X0071068Y0178608D02*
X0072068Y0178608D01*
X0072068Y0177609D02*
X0071068Y0177609D01*
X0071068Y0176611D02*
X0072068Y0176611D01*
X0072068Y0175612D02*
X0071068Y0175612D01*
X0071068Y0172617D02*
X0072068Y0172617D01*
X0072068Y0171618D02*
X0071068Y0171618D01*
X0071068Y0170620D02*
X0072068Y0170620D01*
X0072068Y0169621D02*
X0071068Y0169621D01*
X0071068Y0168623D02*
X0072068Y0168623D01*
X0066141Y0168623D02*
X0060400Y0168623D01*
X0060400Y0169621D02*
X0065378Y0169621D01*
X0065343Y0170620D02*
X0060400Y0170620D01*
X0060400Y0171618D02*
X0065343Y0171618D01*
X0065343Y0172617D02*
X0060400Y0172617D01*
X0060400Y0173615D02*
X0065343Y0173615D01*
X0077792Y0175612D02*
X0092065Y0175612D01*
X0092836Y0176611D02*
X0077792Y0176611D01*
X0077792Y0177609D02*
X0094080Y0177609D01*
X0131285Y0256492D02*
X0213041Y0256492D01*
X0212266Y0257490D02*
X0130286Y0257490D01*
X0150700Y0269472D02*
X0150900Y0269472D01*
X0150900Y0270471D02*
X0150700Y0270471D01*
X0150700Y0271469D02*
X0150900Y0271469D01*
X0150900Y0272468D02*
X0150700Y0272468D01*
X0150700Y0273466D02*
X0150900Y0273466D01*
X0150900Y0274465D02*
X0150700Y0274465D01*
X0162559Y0275463D02*
X0169041Y0275463D01*
X0168534Y0275253D02*
X0167409Y0274128D01*
X0166800Y0272658D01*
X0166800Y0271067D01*
X0167409Y0269596D01*
X0168534Y0268471D01*
X0170004Y0267862D01*
X0171596Y0267862D01*
X0173066Y0268471D01*
X0174191Y0269596D01*
X0174800Y0271067D01*
X0174800Y0272658D01*
X0174191Y0274128D01*
X0173066Y0275253D01*
X0171596Y0275862D01*
X0170004Y0275862D01*
X0168534Y0275253D01*
X0167746Y0274465D02*
X0163854Y0274465D01*
X0164465Y0273466D02*
X0167135Y0273466D01*
X0166800Y0272468D02*
X0164800Y0272468D01*
X0164800Y0271469D02*
X0166800Y0271469D01*
X0167047Y0270471D02*
X0164553Y0270471D01*
X0164067Y0269472D02*
X0167533Y0269472D01*
X0168532Y0268474D02*
X0163068Y0268474D01*
X0173068Y0268474D02*
X0202587Y0268474D01*
X0201589Y0269472D02*
X0174067Y0269472D01*
X0174553Y0270471D02*
X0199792Y0270471D01*
X0198063Y0271469D02*
X0174800Y0271469D01*
X0174800Y0272468D02*
X0197276Y0272468D01*
X0196862Y0273466D02*
X0174465Y0273466D01*
X0173854Y0274465D02*
X0196819Y0274465D01*
X0196947Y0275463D02*
X0172559Y0275463D01*
X0230900Y0327386D02*
X0231300Y0327386D01*
X0231300Y0327362D02*
X0235300Y0327362D01*
X0235300Y0334339D01*
X0234746Y0334251D01*
X0234073Y0334033D01*
X0233441Y0333711D01*
X0232868Y0333295D01*
X0232368Y0332794D01*
X0231951Y0332221D01*
X0231630Y0331590D01*
X0231411Y0330916D01*
X0231300Y0330216D01*
X0231300Y0327362D01*
X0231300Y0328384D02*
X0230900Y0328384D01*
X0230900Y0329383D02*
X0231300Y0329383D01*
X0231326Y0330381D02*
X0230900Y0330381D01*
X0230692Y0331380D02*
X0231562Y0331380D01*
X0232066Y0332378D02*
X0230278Y0332378D01*
X0229498Y0333377D02*
X0232982Y0333377D01*
X0235300Y0333377D02*
X0236300Y0333377D01*
X0236300Y0332378D02*
X0235300Y0332378D01*
X0235300Y0331380D02*
X0236300Y0331380D01*
X0236300Y0330381D02*
X0235300Y0330381D01*
X0235300Y0329383D02*
X0236300Y0329383D01*
X0236300Y0328384D02*
X0235300Y0328384D01*
X0235300Y0327386D02*
X0236300Y0327386D01*
X0229100Y0335374D02*
X0263323Y0335374D01*
X0262856Y0334375D02*
X0248231Y0334375D01*
X0249498Y0333377D02*
X0262500Y0333377D01*
X0262500Y0332378D02*
X0250278Y0332378D01*
X0250692Y0331380D02*
X0262500Y0331380D01*
X0262500Y0330381D02*
X0250900Y0330381D01*
X0250900Y0329383D02*
X0252858Y0329383D01*
X0251860Y0328384D02*
X0250900Y0328384D01*
X0250900Y0327386D02*
X0251829Y0327386D01*
X0251829Y0326387D02*
X0250900Y0326387D01*
X0250900Y0325389D02*
X0251495Y0325389D01*
X0258761Y0329383D02*
X0262500Y0329383D01*
X0262500Y0328384D02*
X0259760Y0328384D01*
X0259791Y0327386D02*
X0262500Y0327386D01*
X0262500Y0326387D02*
X0259791Y0326387D01*
X0259791Y0325389D02*
X0262839Y0325389D01*
X0263284Y0324390D02*
X0259791Y0324390D01*
X0259791Y0323392D02*
X0264282Y0323392D01*
X0270318Y0323392D02*
X0274282Y0323392D01*
X0273284Y0324390D02*
X0271316Y0324390D01*
X0271761Y0325389D02*
X0272839Y0325389D01*
X0272500Y0326387D02*
X0272100Y0326387D01*
X0272100Y0327386D02*
X0272500Y0327386D01*
X0272500Y0328384D02*
X0272100Y0328384D01*
X0272100Y0329383D02*
X0272500Y0329383D01*
X0272500Y0330381D02*
X0272100Y0330381D01*
X0272100Y0331380D02*
X0272500Y0331380D01*
X0272500Y0332378D02*
X0272100Y0332378D01*
X0272100Y0333377D02*
X0272500Y0333377D01*
X0272856Y0334375D02*
X0271744Y0334375D01*
X0269464Y0341365D02*
X0285565Y0341365D01*
X0286563Y0340366D02*
X0284463Y0340366D01*
X0285461Y0339368D02*
X0287562Y0339368D01*
X0284566Y0342363D02*
X0277451Y0342363D01*
X0274149Y0342363D02*
X0268466Y0342363D01*
X0267467Y0343362D02*
X0272376Y0343362D01*
X0271377Y0344361D02*
X0266469Y0344361D01*
X0265470Y0345359D02*
X0270947Y0345359D01*
X0270550Y0346358D02*
X0264472Y0346358D01*
X0263473Y0347356D02*
X0270550Y0347356D01*
X0270550Y0348355D02*
X0262475Y0348355D01*
X0262098Y0348731D02*
X0262098Y0348731D01*
X0261476Y0349353D02*
X0270942Y0349353D01*
X0271365Y0350352D02*
X0244735Y0350352D01*
X0243684Y0351350D02*
X0272363Y0351350D01*
X0274119Y0352349D02*
X0232480Y0352349D01*
X0231482Y0353347D02*
X0295625Y0353347D01*
X0295625Y0352349D02*
X0277481Y0352349D01*
X0279237Y0351350D02*
X0295811Y0351350D01*
X0296809Y0350352D02*
X0286544Y0350352D01*
X0290039Y0347356D02*
X0296793Y0347356D01*
X0295794Y0346358D02*
X0291037Y0346358D01*
X0292036Y0345359D02*
X0295625Y0345359D01*
X0295625Y0344361D02*
X0293034Y0344361D01*
X0294033Y0343362D02*
X0295625Y0343362D01*
X0295625Y0342363D02*
X0295031Y0342363D01*
X0295625Y0354346D02*
X0230483Y0354346D01*
X0229485Y0355344D02*
X0295625Y0355344D01*
X0295625Y0356343D02*
X0242857Y0356343D01*
X0242726Y0356212D02*
X0245450Y0358936D01*
X0245450Y0360562D01*
X0241100Y0360562D01*
X0241100Y0356212D01*
X0242726Y0356212D01*
X0243855Y0357341D02*
X0273245Y0357341D01*
X0273874Y0356712D02*
X0271150Y0359436D01*
X0271150Y0361062D01*
X0275500Y0361062D01*
X0276100Y0361062D01*
X0276100Y0356712D01*
X0277726Y0356712D01*
X0280450Y0359436D01*
X0280450Y0361062D01*
X0276100Y0361062D01*
X0276100Y0361662D01*
X0280450Y0361662D01*
X0280450Y0363288D01*
X0277726Y0366012D01*
X0276100Y0366012D01*
X0276100Y0361662D01*
X0275500Y0361662D01*
X0275500Y0361062D01*
X0275500Y0356712D01*
X0273874Y0356712D01*
X0275500Y0357341D02*
X0276100Y0357341D01*
X0276100Y0358340D02*
X0275500Y0358340D01*
X0275500Y0359338D02*
X0276100Y0359338D01*
X0276100Y0360337D02*
X0275500Y0360337D01*
X0275500Y0361335D02*
X0245450Y0361335D01*
X0245450Y0361162D02*
X0245450Y0362788D01*
X0242726Y0365512D01*
X0241100Y0365512D01*
X0241100Y0361162D01*
X0245450Y0361162D01*
X0245450Y0360337D02*
X0271150Y0360337D01*
X0271248Y0359338D02*
X0245450Y0359338D01*
X0244854Y0358340D02*
X0272246Y0358340D01*
X0271150Y0361662D02*
X0275500Y0361662D01*
X0275500Y0366012D01*
X0273874Y0366012D01*
X0271150Y0363288D01*
X0271150Y0361662D01*
X0271150Y0362334D02*
X0245450Y0362334D01*
X0244906Y0363332D02*
X0271194Y0363332D01*
X0272192Y0364331D02*
X0243908Y0364331D01*
X0242909Y0365329D02*
X0273191Y0365329D01*
X0275500Y0365329D02*
X0276100Y0365329D01*
X0276100Y0364331D02*
X0275500Y0364331D01*
X0275500Y0363332D02*
X0276100Y0363332D01*
X0276100Y0362334D02*
X0275500Y0362334D01*
X0276100Y0361335D02*
X0299106Y0361335D01*
X0301200Y0362334D02*
X0280450Y0362334D01*
X0280406Y0363332D02*
X0301200Y0363332D01*
X0301200Y0364331D02*
X0279408Y0364331D01*
X0278409Y0365329D02*
X0301891Y0365329D01*
X0302305Y0366328D02*
X0218230Y0366328D01*
X0219500Y0365329D02*
X0238691Y0365329D01*
X0238874Y0365512D02*
X0236150Y0362788D01*
X0236150Y0361162D01*
X0240500Y0361162D01*
X0240500Y0360562D01*
X0241100Y0360562D01*
X0241100Y0361162D01*
X0240500Y0361162D01*
X0240500Y0365512D01*
X0238874Y0365512D01*
X0240500Y0365329D02*
X0241100Y0365329D01*
X0241100Y0364331D02*
X0240500Y0364331D01*
X0240500Y0363332D02*
X0241100Y0363332D01*
X0241100Y0362334D02*
X0240500Y0362334D01*
X0240500Y0361335D02*
X0241100Y0361335D01*
X0240500Y0360562D02*
X0236150Y0360562D01*
X0236150Y0358936D01*
X0238874Y0356212D01*
X0240500Y0356212D01*
X0240500Y0360562D01*
X0240500Y0360337D02*
X0241100Y0360337D01*
X0241100Y0359338D02*
X0240500Y0359338D01*
X0240500Y0358340D02*
X0241100Y0358340D01*
X0241100Y0357341D02*
X0240500Y0357341D01*
X0240500Y0356343D02*
X0241100Y0356343D01*
X0238743Y0356343D02*
X0228486Y0356343D01*
X0227488Y0357341D02*
X0237745Y0357341D01*
X0236746Y0358340D02*
X0226489Y0358340D01*
X0225491Y0359338D02*
X0236150Y0359338D01*
X0236150Y0360337D02*
X0224492Y0360337D01*
X0223494Y0361335D02*
X0236150Y0361335D01*
X0236150Y0362334D02*
X0222495Y0362334D01*
X0221497Y0363332D02*
X0236694Y0363332D01*
X0237692Y0364331D02*
X0220498Y0364331D01*
X0233479Y0351350D02*
X0237916Y0351350D01*
X0236865Y0350352D02*
X0234477Y0350352D01*
X0234467Y0343362D02*
X0236876Y0343362D01*
X0237942Y0342363D02*
X0233468Y0342363D01*
X0232470Y0341365D02*
X0260130Y0341365D01*
X0259132Y0342363D02*
X0243658Y0342363D01*
X0244724Y0343362D02*
X0258133Y0343362D01*
X0261129Y0340366D02*
X0231471Y0340366D01*
X0230473Y0339368D02*
X0262127Y0339368D01*
X0263126Y0338369D02*
X0229474Y0338369D01*
X0229100Y0337371D02*
X0264124Y0337371D01*
X0264322Y0336372D02*
X0229100Y0336372D01*
X0194632Y0342363D02*
X0183791Y0342363D01*
X0183741Y0342335D02*
X0184083Y0342532D01*
X0184362Y0342811D01*
X0184560Y0343153D01*
X0184662Y0343535D01*
X0184662Y0353862D01*
X0171458Y0353862D01*
X0171458Y0354862D01*
X0184662Y0354862D01*
X0184662Y0365190D01*
X0184560Y0365571D01*
X0184362Y0365913D01*
X0184083Y0366192D01*
X0183741Y0366390D01*
X0183360Y0366492D01*
X0171457Y0366492D01*
X0171457Y0354862D01*
X0170457Y0354862D01*
X0170457Y0353862D01*
X0171457Y0353862D01*
X0171457Y0342232D01*
X0183360Y0342232D01*
X0183741Y0342335D01*
X0184616Y0343362D02*
X0194448Y0343362D01*
X0194448Y0344361D02*
X0184662Y0344361D01*
X0184662Y0345359D02*
X0194448Y0345359D01*
X0194448Y0346358D02*
X0184662Y0346358D01*
X0184662Y0347356D02*
X0194448Y0347356D01*
X0194578Y0348355D02*
X0184662Y0348355D01*
X0184662Y0349353D02*
X0194634Y0349353D01*
X0193636Y0350352D02*
X0184662Y0350352D01*
X0184662Y0351350D02*
X0193054Y0351350D01*
X0192641Y0352349D02*
X0184662Y0352349D01*
X0184662Y0353347D02*
X0192550Y0353347D01*
X0192550Y0354346D02*
X0171458Y0354346D01*
X0171457Y0355344D02*
X0170457Y0355344D01*
X0170457Y0354862D02*
X0170457Y0366492D01*
X0158555Y0366492D01*
X0158174Y0366390D01*
X0157832Y0366192D01*
X0157552Y0365913D01*
X0157355Y0365571D01*
X0157253Y0365190D01*
X0157253Y0354862D01*
X0170457Y0354862D01*
X0170457Y0354346D02*
X0155414Y0354346D01*
X0155084Y0353547D02*
X0155853Y0355404D01*
X0155853Y0363320D01*
X0155084Y0365177D01*
X0153662Y0366598D01*
X0151805Y0367368D01*
X0149795Y0367368D01*
X0147938Y0366598D01*
X0146516Y0365177D01*
X0145747Y0363320D01*
X0145747Y0355404D01*
X0146516Y0353547D01*
X0147938Y0352126D01*
X0149795Y0351357D01*
X0151805Y0351357D01*
X0153662Y0352126D01*
X0155084Y0353547D01*
X0154883Y0353347D02*
X0157253Y0353347D01*
X0157253Y0352349D02*
X0153885Y0352349D01*
X0157253Y0351350D02*
X0078877Y0351350D01*
X0080520Y0352349D02*
X0098962Y0352349D01*
X0099091Y0352283D02*
X0099757Y0352066D01*
X0100316Y0351978D01*
X0100316Y0358878D01*
X0101284Y0358878D01*
X0101284Y0351978D01*
X0101843Y0352066D01*
X0102509Y0352283D01*
X0103134Y0352601D01*
X0103701Y0353013D01*
X0104196Y0353509D01*
X0104608Y0354076D01*
X0104927Y0354700D01*
X0105143Y0355367D01*
X0105253Y0356059D01*
X0105253Y0358878D01*
X0101284Y0358878D01*
X0101284Y0359846D01*
X0105253Y0359846D01*
X0105253Y0362665D01*
X0105143Y0363358D01*
X0104927Y0364024D01*
X0104608Y0364649D01*
X0104196Y0365216D01*
X0103701Y0365711D01*
X0103134Y0366123D01*
X0102509Y0366441D01*
X0101843Y0366658D01*
X0101284Y0366747D01*
X0101284Y0359847D01*
X0100316Y0359847D01*
X0100316Y0366747D01*
X0099757Y0366658D01*
X0099091Y0366441D01*
X0098466Y0366123D01*
X0097899Y0365711D01*
X0097404Y0365216D01*
X0096992Y0364649D01*
X0096673Y0364024D01*
X0096457Y0363358D01*
X0096347Y0362665D01*
X0096347Y0359846D01*
X0100316Y0359846D01*
X0100316Y0358878D01*
X0096347Y0358878D01*
X0096347Y0356059D01*
X0096457Y0355367D01*
X0096673Y0354700D01*
X0096992Y0354076D01*
X0097404Y0353509D01*
X0097899Y0353013D01*
X0098466Y0352601D01*
X0099091Y0352283D01*
X0100316Y0352349D02*
X0101284Y0352349D01*
X0101284Y0353347D02*
X0100316Y0353347D01*
X0100316Y0354346D02*
X0101284Y0354346D01*
X0101284Y0355344D02*
X0100316Y0355344D01*
X0100316Y0356343D02*
X0101284Y0356343D01*
X0101284Y0357341D02*
X0100316Y0357341D01*
X0100316Y0358340D02*
X0101284Y0358340D01*
X0101284Y0359338D02*
X0105747Y0359338D01*
X0105747Y0358340D02*
X0105253Y0358340D01*
X0105253Y0357341D02*
X0105747Y0357341D01*
X0105747Y0356343D02*
X0105253Y0356343D01*
X0105136Y0355344D02*
X0105772Y0355344D01*
X0105747Y0355404D02*
X0106516Y0353547D01*
X0107938Y0352126D01*
X0109795Y0351357D01*
X0111805Y0351357D01*
X0113662Y0352126D01*
X0115084Y0353547D01*
X0115853Y0355404D01*
X0115853Y0363320D01*
X0115084Y0365177D01*
X0113662Y0366598D01*
X0111805Y0367368D01*
X0109795Y0367368D01*
X0107938Y0366598D01*
X0106516Y0365177D01*
X0105747Y0363320D01*
X0105747Y0355404D01*
X0106186Y0354346D02*
X0104746Y0354346D01*
X0104035Y0353347D02*
X0106717Y0353347D01*
X0107715Y0352349D02*
X0102638Y0352349D01*
X0097565Y0353347D02*
X0081518Y0353347D01*
X0082517Y0354346D02*
X0096854Y0354346D01*
X0096464Y0355344D02*
X0083269Y0355344D01*
X0083846Y0356343D02*
X0096347Y0356343D01*
X0096347Y0357341D02*
X0084422Y0357341D01*
X0084851Y0358340D02*
X0096347Y0358340D01*
X0096347Y0360337D02*
X0085386Y0360337D01*
X0085650Y0361335D02*
X0096347Y0361335D01*
X0096347Y0362334D02*
X0085650Y0362334D01*
X0085650Y0363332D02*
X0096453Y0363332D01*
X0096830Y0364331D02*
X0085650Y0364331D01*
X0085536Y0365329D02*
X0097517Y0365329D01*
X0098868Y0366328D02*
X0085268Y0366328D01*
X0085001Y0367326D02*
X0109695Y0367326D01*
X0111905Y0367326D02*
X0129695Y0367326D01*
X0129795Y0367368D02*
X0127938Y0366598D01*
X0126516Y0365177D01*
X0125747Y0363320D01*
X0125747Y0355404D01*
X0126516Y0353547D01*
X0127938Y0352126D01*
X0129795Y0351357D01*
X0131805Y0351357D01*
X0133662Y0352126D01*
X0135084Y0353547D01*
X0135853Y0355404D01*
X0135853Y0363320D01*
X0135084Y0365177D01*
X0133662Y0366598D01*
X0131805Y0367368D01*
X0129795Y0367368D01*
X0131905Y0367326D02*
X0149695Y0367326D01*
X0151905Y0367326D02*
X0195597Y0367326D01*
X0194599Y0366328D02*
X0183849Y0366328D01*
X0184625Y0365329D02*
X0194448Y0365329D01*
X0194448Y0364331D02*
X0184662Y0364331D01*
X0184662Y0363332D02*
X0194448Y0363332D01*
X0194448Y0362334D02*
X0184662Y0362334D01*
X0184662Y0361335D02*
X0194448Y0361335D01*
X0194612Y0360337D02*
X0184662Y0360337D01*
X0184662Y0359338D02*
X0195610Y0359338D01*
X0195494Y0358340D02*
X0184662Y0358340D01*
X0184662Y0357341D02*
X0194104Y0357341D01*
X0193248Y0356343D02*
X0184662Y0356343D01*
X0184662Y0355344D02*
X0192835Y0355344D01*
X0171457Y0356343D02*
X0170457Y0356343D01*
X0170457Y0357341D02*
X0171457Y0357341D01*
X0171457Y0358340D02*
X0170457Y0358340D01*
X0170457Y0359338D02*
X0171457Y0359338D01*
X0171457Y0360337D02*
X0170457Y0360337D01*
X0170457Y0361335D02*
X0171457Y0361335D01*
X0171457Y0362334D02*
X0170457Y0362334D01*
X0170457Y0363332D02*
X0171457Y0363332D01*
X0171457Y0364331D02*
X0170457Y0364331D01*
X0170457Y0365329D02*
X0171457Y0365329D01*
X0171457Y0366328D02*
X0170457Y0366328D01*
X0158066Y0366328D02*
X0153933Y0366328D01*
X0154931Y0365329D02*
X0157290Y0365329D01*
X0157253Y0364331D02*
X0155434Y0364331D01*
X0155848Y0363332D02*
X0157253Y0363332D01*
X0157253Y0362334D02*
X0155853Y0362334D01*
X0155853Y0361335D02*
X0157253Y0361335D01*
X0157253Y0360337D02*
X0155853Y0360337D01*
X0155853Y0359338D02*
X0157253Y0359338D01*
X0157253Y0358340D02*
X0155853Y0358340D01*
X0155853Y0357341D02*
X0157253Y0357341D01*
X0157253Y0356343D02*
X0155853Y0356343D01*
X0155828Y0355344D02*
X0157253Y0355344D01*
X0157253Y0350352D02*
X0076973Y0350352D01*
X0085118Y0359338D02*
X0100316Y0359338D01*
X0100316Y0360337D02*
X0101284Y0360337D01*
X0101284Y0361335D02*
X0100316Y0361335D01*
X0100316Y0362334D02*
X0101284Y0362334D01*
X0101284Y0363332D02*
X0100316Y0363332D01*
X0100316Y0364331D02*
X0101284Y0364331D01*
X0101284Y0365329D02*
X0100316Y0365329D01*
X0100316Y0366328D02*
X0101284Y0366328D01*
X0102732Y0366328D02*
X0107667Y0366328D01*
X0106669Y0365329D02*
X0104083Y0365329D01*
X0104770Y0364331D02*
X0106166Y0364331D01*
X0105752Y0363332D02*
X0105147Y0363332D01*
X0105253Y0362334D02*
X0105747Y0362334D01*
X0105747Y0361335D02*
X0105253Y0361335D01*
X0105253Y0360337D02*
X0105747Y0360337D01*
X0115853Y0360337D02*
X0116347Y0360337D01*
X0116347Y0359846D02*
X0120316Y0359846D01*
X0120316Y0358878D01*
X0121284Y0358878D01*
X0121284Y0351978D01*
X0121843Y0352066D01*
X0122509Y0352283D01*
X0123134Y0352601D01*
X0123701Y0353013D01*
X0124196Y0353509D01*
X0124608Y0354076D01*
X0124927Y0354700D01*
X0125143Y0355367D01*
X0125253Y0356059D01*
X0125253Y0358878D01*
X0121284Y0358878D01*
X0121284Y0359846D01*
X0125253Y0359846D01*
X0125253Y0362665D01*
X0125143Y0363358D01*
X0124927Y0364024D01*
X0124608Y0364649D01*
X0124196Y0365216D01*
X0123701Y0365711D01*
X0123134Y0366123D01*
X0122509Y0366441D01*
X0121843Y0366658D01*
X0121284Y0366747D01*
X0121284Y0359847D01*
X0120316Y0359847D01*
X0120316Y0366747D01*
X0119757Y0366658D01*
X0119091Y0366441D01*
X0118466Y0366123D01*
X0117899Y0365711D01*
X0117404Y0365216D01*
X0116992Y0364649D01*
X0116673Y0364024D01*
X0116457Y0363358D01*
X0116347Y0362665D01*
X0116347Y0359846D01*
X0115853Y0359338D02*
X0120316Y0359338D01*
X0120316Y0358878D02*
X0116347Y0358878D01*
X0116347Y0356059D01*
X0116457Y0355367D01*
X0116673Y0354700D01*
X0116992Y0354076D01*
X0117404Y0353509D01*
X0117899Y0353013D01*
X0118466Y0352601D01*
X0119091Y0352283D01*
X0119757Y0352066D01*
X0120316Y0351978D01*
X0120316Y0358878D01*
X0120316Y0358340D02*
X0121284Y0358340D01*
X0121284Y0359338D02*
X0125747Y0359338D01*
X0125747Y0358340D02*
X0125253Y0358340D01*
X0125253Y0357341D02*
X0125747Y0357341D01*
X0125747Y0356343D02*
X0125253Y0356343D01*
X0125136Y0355344D02*
X0125772Y0355344D01*
X0126186Y0354346D02*
X0124746Y0354346D01*
X0124035Y0353347D02*
X0126717Y0353347D01*
X0127715Y0352349D02*
X0122638Y0352349D01*
X0121284Y0352349D02*
X0120316Y0352349D01*
X0120316Y0353347D02*
X0121284Y0353347D01*
X0121284Y0354346D02*
X0120316Y0354346D01*
X0120316Y0355344D02*
X0121284Y0355344D01*
X0121284Y0356343D02*
X0120316Y0356343D01*
X0120316Y0357341D02*
X0121284Y0357341D01*
X0121284Y0360337D02*
X0120316Y0360337D01*
X0120316Y0361335D02*
X0121284Y0361335D01*
X0121284Y0362334D02*
X0120316Y0362334D01*
X0120316Y0363332D02*
X0121284Y0363332D01*
X0121284Y0364331D02*
X0120316Y0364331D01*
X0120316Y0365329D02*
X0121284Y0365329D01*
X0121284Y0366328D02*
X0120316Y0366328D01*
X0118868Y0366328D02*
X0113933Y0366328D01*
X0114931Y0365329D02*
X0117517Y0365329D01*
X0116830Y0364331D02*
X0115434Y0364331D01*
X0115848Y0363332D02*
X0116453Y0363332D01*
X0116347Y0362334D02*
X0115853Y0362334D01*
X0115853Y0361335D02*
X0116347Y0361335D01*
X0116347Y0358340D02*
X0115853Y0358340D01*
X0115853Y0357341D02*
X0116347Y0357341D01*
X0116347Y0356343D02*
X0115853Y0356343D01*
X0115828Y0355344D02*
X0116464Y0355344D01*
X0116854Y0354346D02*
X0115414Y0354346D01*
X0114883Y0353347D02*
X0117565Y0353347D01*
X0118962Y0352349D02*
X0113885Y0352349D01*
X0125253Y0360337D02*
X0125747Y0360337D01*
X0125747Y0361335D02*
X0125253Y0361335D01*
X0125253Y0362334D02*
X0125747Y0362334D01*
X0125752Y0363332D02*
X0125147Y0363332D01*
X0124770Y0364331D02*
X0126166Y0364331D01*
X0126669Y0365329D02*
X0124083Y0365329D01*
X0122732Y0366328D02*
X0127667Y0366328D01*
X0133933Y0366328D02*
X0138868Y0366328D01*
X0139091Y0366441D02*
X0138466Y0366123D01*
X0137899Y0365711D01*
X0137404Y0365216D01*
X0136992Y0364649D01*
X0136673Y0364024D01*
X0136457Y0363358D01*
X0136347Y0362665D01*
X0136347Y0359846D01*
X0140316Y0359846D01*
X0140316Y0358878D01*
X0141284Y0358878D01*
X0141284Y0351978D01*
X0141843Y0352066D01*
X0142509Y0352283D01*
X0143134Y0352601D01*
X0143701Y0353013D01*
X0144196Y0353509D01*
X0144608Y0354076D01*
X0144927Y0354700D01*
X0145143Y0355367D01*
X0145253Y0356059D01*
X0145253Y0358878D01*
X0141284Y0358878D01*
X0141284Y0359846D01*
X0145253Y0359846D01*
X0145253Y0362665D01*
X0145143Y0363358D01*
X0144927Y0364024D01*
X0144608Y0364649D01*
X0144196Y0365216D01*
X0143701Y0365711D01*
X0143134Y0366123D01*
X0142509Y0366441D01*
X0141843Y0366658D01*
X0141284Y0366747D01*
X0141284Y0359847D01*
X0140316Y0359847D01*
X0140316Y0366747D01*
X0139757Y0366658D01*
X0139091Y0366441D01*
X0140316Y0366328D02*
X0141284Y0366328D01*
X0141284Y0365329D02*
X0140316Y0365329D01*
X0140316Y0364331D02*
X0141284Y0364331D01*
X0141284Y0363332D02*
X0140316Y0363332D01*
X0140316Y0362334D02*
X0141284Y0362334D01*
X0141284Y0361335D02*
X0140316Y0361335D01*
X0140316Y0360337D02*
X0141284Y0360337D01*
X0141284Y0359338D02*
X0145747Y0359338D01*
X0145747Y0358340D02*
X0145253Y0358340D01*
X0145253Y0357341D02*
X0145747Y0357341D01*
X0145747Y0356343D02*
X0145253Y0356343D01*
X0145136Y0355344D02*
X0145772Y0355344D01*
X0146186Y0354346D02*
X0144746Y0354346D01*
X0144035Y0353347D02*
X0146717Y0353347D01*
X0147715Y0352349D02*
X0142638Y0352349D01*
X0141284Y0352349D02*
X0140316Y0352349D01*
X0140316Y0351978D02*
X0140316Y0358878D01*
X0136347Y0358878D01*
X0136347Y0356059D01*
X0136457Y0355367D01*
X0136673Y0354700D01*
X0136992Y0354076D01*
X0137404Y0353509D01*
X0137899Y0353013D01*
X0138466Y0352601D01*
X0139091Y0352283D01*
X0139757Y0352066D01*
X0140316Y0351978D01*
X0140316Y0353347D02*
X0141284Y0353347D01*
X0141284Y0354346D02*
X0140316Y0354346D01*
X0140316Y0355344D02*
X0141284Y0355344D01*
X0141284Y0356343D02*
X0140316Y0356343D01*
X0140316Y0357341D02*
X0141284Y0357341D01*
X0141284Y0358340D02*
X0140316Y0358340D01*
X0140316Y0359338D02*
X0135853Y0359338D01*
X0135853Y0358340D02*
X0136347Y0358340D01*
X0136347Y0357341D02*
X0135853Y0357341D01*
X0135853Y0356343D02*
X0136347Y0356343D01*
X0136464Y0355344D02*
X0135828Y0355344D01*
X0135414Y0354346D02*
X0136854Y0354346D01*
X0137565Y0353347D02*
X0134883Y0353347D01*
X0133885Y0352349D02*
X0138962Y0352349D01*
X0136347Y0360337D02*
X0135853Y0360337D01*
X0135853Y0361335D02*
X0136347Y0361335D01*
X0136347Y0362334D02*
X0135853Y0362334D01*
X0135848Y0363332D02*
X0136453Y0363332D01*
X0136830Y0364331D02*
X0135434Y0364331D01*
X0134931Y0365329D02*
X0137517Y0365329D01*
X0142732Y0366328D02*
X0147667Y0366328D01*
X0146669Y0365329D02*
X0144083Y0365329D01*
X0144770Y0364331D02*
X0146166Y0364331D01*
X0145752Y0363332D02*
X0145147Y0363332D01*
X0145253Y0362334D02*
X0145747Y0362334D01*
X0145747Y0361335D02*
X0145253Y0361335D01*
X0145253Y0360337D02*
X0145747Y0360337D01*
X0170457Y0353347D02*
X0171457Y0353347D01*
X0171457Y0352349D02*
X0170457Y0352349D01*
X0170457Y0351350D02*
X0171457Y0351350D01*
X0171457Y0350352D02*
X0170457Y0350352D01*
X0170457Y0349353D02*
X0171457Y0349353D01*
X0171457Y0348355D02*
X0170457Y0348355D01*
X0170457Y0347356D02*
X0171457Y0347356D01*
X0171457Y0346358D02*
X0170457Y0346358D01*
X0170457Y0345359D02*
X0171457Y0345359D01*
X0171457Y0344361D02*
X0170457Y0344361D01*
X0170457Y0343362D02*
X0171457Y0343362D01*
X0171457Y0342363D02*
X0170457Y0342363D01*
X0083591Y0370322D02*
X0336800Y0370322D01*
X0336800Y0371320D02*
X0083015Y0371320D01*
X0082077Y0372319D02*
X0336869Y0372319D01*
X0337935Y0373317D02*
X0081078Y0373317D01*
X0079845Y0374316D02*
X0407933Y0374316D01*
X0406493Y0373317D02*
X0373665Y0373317D01*
X0374731Y0372319D02*
X0405372Y0372319D01*
X0404469Y0371320D02*
X0374800Y0371320D01*
X0374800Y0370322D02*
X0403732Y0370322D01*
X0403129Y0369323D02*
X0374800Y0369323D01*
X0374800Y0368325D02*
X0382147Y0368325D01*
X0381743Y0367921D02*
X0381743Y0356733D01*
X0382973Y0355502D01*
X0394162Y0355502D01*
X0395392Y0356733D01*
X0395392Y0367921D01*
X0394162Y0369151D01*
X0382973Y0369151D01*
X0381743Y0367921D01*
X0381743Y0367326D02*
X0374800Y0367326D01*
X0374800Y0366328D02*
X0381743Y0366328D01*
X0381743Y0365329D02*
X0374800Y0365329D01*
X0374800Y0364331D02*
X0381743Y0364331D01*
X0381743Y0363332D02*
X0374800Y0363332D01*
X0374800Y0362334D02*
X0381743Y0362334D01*
X0381743Y0361335D02*
X0374800Y0361335D01*
X0374800Y0360337D02*
X0381743Y0360337D01*
X0381743Y0359338D02*
X0374800Y0359338D01*
X0374800Y0358340D02*
X0381743Y0358340D01*
X0381743Y0357341D02*
X0374800Y0357341D01*
X0374800Y0356343D02*
X0382133Y0356343D01*
X0374800Y0355344D02*
X0404108Y0355344D01*
X0403438Y0356343D02*
X0395002Y0356343D01*
X0395392Y0357341D02*
X0402894Y0357341D01*
X0402456Y0358340D02*
X0395392Y0358340D01*
X0395392Y0359338D02*
X0402110Y0359338D01*
X0401847Y0360337D02*
X0395392Y0360337D01*
X0395392Y0361335D02*
X0401662Y0361335D01*
X0401564Y0362334D02*
X0395392Y0362334D01*
X0395392Y0363332D02*
X0414050Y0363332D01*
X0414050Y0362334D02*
X0415050Y0362334D01*
X0415050Y0361335D02*
X0414050Y0361335D01*
X0414050Y0360337D02*
X0415050Y0360337D01*
X0415050Y0359338D02*
X0414050Y0359338D01*
X0414050Y0358340D02*
X0415050Y0358340D01*
X0415050Y0357341D02*
X0414050Y0357341D01*
X0414050Y0356343D02*
X0415050Y0356343D01*
X0415050Y0355344D02*
X0414050Y0355344D01*
X0414050Y0354346D02*
X0415050Y0354346D01*
X0415050Y0353347D02*
X0414050Y0353347D01*
X0414050Y0352349D02*
X0415050Y0352349D01*
X0415050Y0351350D02*
X0414050Y0351350D01*
X0414050Y0350352D02*
X0415050Y0350352D01*
X0412066Y0350352D02*
X0374800Y0350352D01*
X0374800Y0351350D02*
X0408978Y0351350D01*
X0407259Y0352349D02*
X0374800Y0352349D01*
X0374800Y0353347D02*
X0405957Y0353347D01*
X0404932Y0354346D02*
X0374800Y0354346D01*
X0374800Y0348355D02*
X0426200Y0348355D01*
X0426200Y0347356D02*
X0394304Y0347356D01*
X0394162Y0347498D02*
X0382973Y0347498D01*
X0381743Y0346267D01*
X0381743Y0335079D01*
X0382973Y0333849D01*
X0394162Y0333849D01*
X0395392Y0335079D01*
X0395392Y0346267D01*
X0394162Y0347498D01*
X0395302Y0346358D02*
X0426200Y0346358D01*
X0407181Y0345359D02*
X0395392Y0345359D01*
X0395392Y0344361D02*
X0406743Y0344361D01*
X0406743Y0343362D02*
X0395392Y0343362D01*
X0395392Y0342363D02*
X0406743Y0342363D01*
X0406743Y0341365D02*
X0395392Y0341365D01*
X0395392Y0340366D02*
X0406743Y0340366D01*
X0406743Y0339368D02*
X0395392Y0339368D01*
X0395392Y0338369D02*
X0406743Y0338369D01*
X0406743Y0337371D02*
X0395392Y0337371D01*
X0395392Y0336372D02*
X0406743Y0336372D01*
X0406743Y0335374D02*
X0395392Y0335374D01*
X0394689Y0334375D02*
X0406743Y0334375D01*
X0407099Y0333377D02*
X0374800Y0333377D01*
X0374800Y0334375D02*
X0382447Y0334375D01*
X0381743Y0335374D02*
X0374800Y0335374D01*
X0374800Y0336372D02*
X0381743Y0336372D01*
X0381743Y0337371D02*
X0374800Y0337371D01*
X0374800Y0338369D02*
X0381743Y0338369D01*
X0381743Y0339368D02*
X0374800Y0339368D01*
X0374800Y0340366D02*
X0381743Y0340366D01*
X0381743Y0341365D02*
X0374800Y0341365D01*
X0374800Y0342363D02*
X0381743Y0342363D01*
X0381743Y0343362D02*
X0374800Y0343362D01*
X0374800Y0344361D02*
X0381743Y0344361D01*
X0381743Y0345359D02*
X0374800Y0345359D01*
X0374800Y0346358D02*
X0381833Y0346358D01*
X0382832Y0347356D02*
X0374800Y0347356D01*
X0356300Y0347356D02*
X0355300Y0347356D01*
X0355300Y0346358D02*
X0356300Y0346358D01*
X0356300Y0345359D02*
X0355300Y0345359D01*
X0355300Y0344361D02*
X0356300Y0344361D01*
X0356300Y0343362D02*
X0355300Y0343362D01*
X0355300Y0342363D02*
X0356300Y0342363D01*
X0356300Y0341365D02*
X0355300Y0341365D01*
X0355300Y0340366D02*
X0356300Y0340366D01*
X0356300Y0339368D02*
X0355300Y0339368D01*
X0355300Y0338369D02*
X0356300Y0338369D01*
X0356300Y0337371D02*
X0355300Y0337371D01*
X0355300Y0336372D02*
X0356300Y0336372D01*
X0356300Y0335374D02*
X0355300Y0335374D01*
X0355300Y0334375D02*
X0356300Y0334375D01*
X0356300Y0333377D02*
X0355300Y0333377D01*
X0355300Y0332378D02*
X0356300Y0332378D01*
X0356300Y0331380D02*
X0355300Y0331380D01*
X0355300Y0330381D02*
X0356300Y0330381D01*
X0356300Y0329383D02*
X0355300Y0329383D01*
X0355300Y0328384D02*
X0356300Y0328384D01*
X0356300Y0327386D02*
X0355300Y0327386D01*
X0355300Y0326387D02*
X0356300Y0326387D01*
X0356300Y0325389D02*
X0355300Y0325389D01*
X0355300Y0350352D02*
X0356300Y0350352D01*
X0356300Y0351350D02*
X0355300Y0351350D01*
X0355300Y0352349D02*
X0356300Y0352349D01*
X0356300Y0353347D02*
X0355300Y0353347D01*
X0355300Y0354346D02*
X0356300Y0354346D01*
X0356300Y0355344D02*
X0355300Y0355344D01*
X0355300Y0356343D02*
X0356300Y0356343D01*
X0356300Y0357341D02*
X0355300Y0357341D01*
X0355300Y0358340D02*
X0356300Y0358340D01*
X0356300Y0359338D02*
X0355300Y0359338D01*
X0355300Y0360337D02*
X0356300Y0360337D01*
X0356300Y0361335D02*
X0355300Y0361335D01*
X0355300Y0362334D02*
X0356300Y0362334D01*
X0356300Y0363332D02*
X0355300Y0363332D01*
X0355300Y0364331D02*
X0356300Y0364331D01*
X0356300Y0365329D02*
X0355300Y0365329D01*
X0355300Y0366328D02*
X0356300Y0366328D01*
X0356300Y0367326D02*
X0355300Y0367326D01*
X0355300Y0368325D02*
X0356300Y0368325D01*
X0356300Y0369323D02*
X0355300Y0369323D01*
X0355300Y0370322D02*
X0356300Y0370322D01*
X0356300Y0371320D02*
X0355300Y0371320D01*
X0355300Y0372319D02*
X0356300Y0372319D01*
X0356300Y0373317D02*
X0355300Y0373317D01*
X0394988Y0368325D02*
X0402638Y0368325D01*
X0402243Y0367326D02*
X0395392Y0367326D01*
X0395392Y0366328D02*
X0401940Y0366328D01*
X0401736Y0365329D02*
X0395392Y0365329D01*
X0395392Y0364331D02*
X0401607Y0364331D01*
X0296387Y0360337D02*
X0280450Y0360337D01*
X0280352Y0359338D02*
X0295625Y0359338D01*
X0295625Y0358340D02*
X0279354Y0358340D01*
X0278355Y0357341D02*
X0295625Y0357341D01*
X0282729Y0248503D02*
X0278871Y0248503D01*
X0279870Y0247505D02*
X0281730Y0247505D01*
X0290900Y0232527D02*
X0299150Y0232527D01*
X0300057Y0231529D02*
X0290179Y0231529D01*
X0289180Y0230530D02*
X0301056Y0230530D01*
X0303500Y0230530D02*
X0304100Y0230530D01*
X0304100Y0231529D02*
X0303500Y0231529D01*
X0303500Y0232527D02*
X0304100Y0232527D01*
X0304100Y0233526D02*
X0303500Y0233526D01*
X0304100Y0234524D02*
X0312550Y0234524D01*
X0312550Y0233526D02*
X0308450Y0233526D01*
X0308450Y0232527D02*
X0312877Y0232527D01*
X0313291Y0231529D02*
X0307543Y0231529D01*
X0306544Y0230530D02*
X0314207Y0230530D01*
X0315743Y0229532D02*
X0288182Y0229532D01*
X0281406Y0221544D02*
X0280194Y0221544D01*
X0279195Y0220545D02*
X0282405Y0220545D01*
X0283403Y0219547D02*
X0278197Y0219547D01*
X0306220Y0238518D02*
X0314531Y0238518D01*
X0313533Y0237520D02*
X0307218Y0237520D01*
X0308217Y0236521D02*
X0313012Y0236521D01*
X0312598Y0235523D02*
X0308450Y0235523D01*
X0265400Y0138667D02*
X0261227Y0138667D01*
X0262226Y0137669D02*
X0265400Y0137669D01*
X0265400Y0136670D02*
X0262281Y0136670D01*
X0262281Y0135672D02*
X0265400Y0135672D01*
X0265400Y0134673D02*
X0262281Y0134673D01*
X0262281Y0133675D02*
X0265400Y0133675D01*
X0265400Y0132676D02*
X0262281Y0132676D01*
X0261847Y0131678D02*
X0265014Y0131678D01*
X0264016Y0130679D02*
X0255200Y0130679D01*
X0255200Y0129681D02*
X0263017Y0129681D01*
X0262019Y0128682D02*
X0261693Y0128682D01*
X0256907Y0128682D02*
X0255200Y0128682D01*
X0255200Y0127684D02*
X0255909Y0127684D01*
X0271678Y0118697D02*
X0272364Y0118697D01*
X0272676Y0117698D02*
X0273363Y0117698D01*
X0273675Y0116700D02*
X0274361Y0116700D01*
X0274400Y0115701D02*
X0275360Y0115701D01*
X0274400Y0114703D02*
X0276358Y0114703D01*
X0277357Y0113704D02*
X0274400Y0113704D01*
X0274400Y0112706D02*
X0278355Y0112706D01*
X0279354Y0111707D02*
X0274358Y0111707D01*
X0273359Y0110709D02*
X0280319Y0110709D01*
X0280319Y0109710D02*
X0272361Y0109710D01*
X0271663Y0108712D02*
X0280319Y0108712D01*
X0280319Y0107713D02*
X0272661Y0107713D01*
X0273660Y0106715D02*
X0280319Y0106715D01*
X0280714Y0105716D02*
X0274400Y0105716D01*
X0266224Y0099725D02*
X0262376Y0099725D01*
X0263374Y0100724D02*
X0265226Y0100724D01*
D38*
X0345800Y0319362D02*
X0345800Y0336862D01*
X0366300Y0333862D02*
X0366300Y0318862D01*
D39*
X0161800Y0339362D02*
X0161800Y0347862D01*
D40*
X0177300Y0346362D02*
X0177300Y0338862D01*
D41*
X0255810Y0325602D03*
X0087300Y0242862D03*
X0084300Y0207862D03*
X0258300Y0134862D03*
X0285300Y0122862D03*
X0284300Y0108862D03*
X0290300Y0088862D03*
X0282300Y0065862D03*
X0332300Y0042862D03*
X0345300Y0076862D03*
X0356300Y0112862D03*
X0341300Y0148862D03*
X0268300Y0167862D03*
D42*
X0338300Y0148862D02*
X0341300Y0148862D01*
X0332300Y0042862D02*
X0330300Y0042862D01*
X0305800Y0299362D02*
X0305800Y0304362D01*
X0288300Y0321862D01*
X0288300Y0331862D01*
X0282300Y0337862D01*
X0268300Y0337862D01*
X0259300Y0346862D01*
X0240800Y0346862D01*
X0233300Y0346862D01*
X0216824Y0363339D01*
X0199698Y0363339D01*
X0225800Y0339362D02*
X0225800Y0326862D01*
X0225800Y0306862D01*
X0225800Y0339362D02*
X0233300Y0346862D01*
X0299300Y0342169D02*
X0299300Y0334362D01*
X0299300Y0355555D02*
X0299300Y0356862D01*
X0301300Y0358862D01*
X0310300Y0358862D01*
X0310800Y0359362D01*
X0305800Y0304362D02*
X0305800Y0303112D01*
M02*
