G75*
%MOIN*%
%OFA0B0*%
%FSLAX25Y25*%
%IPPOS*%
%LPD*%
%AMOC8*
5,1,8,0,0,1.08239X$1,22.5*
%
%ADD10C,0.00200*%
%ADD11C,0.00400*%
%ADD12C,0.00300*%
%ADD13C,0.01000*%
%ADD14C,0.00600*%
%ADD15R,0.02400X0.03400*%
%ADD16R,0.09800X0.05600*%
%ADD17C,0.00800*%
%ADD18R,0.03000X0.03400*%
D10*
X0103746Y0366962D02*
X0103379Y0367329D01*
X0103379Y0368063D01*
X0104113Y0368063D01*
X0103379Y0368797D02*
X0103746Y0369164D01*
X0104480Y0369164D01*
X0104847Y0368797D01*
X0104847Y0367329D01*
X0104480Y0366962D01*
X0103746Y0366962D01*
X0105586Y0366962D02*
X0106320Y0366962D01*
X0105953Y0366962D02*
X0105953Y0369164D01*
X0106320Y0369164D02*
X0105586Y0369164D01*
X0107062Y0368797D02*
X0107429Y0369164D01*
X0108163Y0369164D01*
X0108530Y0368797D01*
X0108530Y0368430D01*
X0108163Y0368063D01*
X0107429Y0368063D01*
X0107062Y0367696D01*
X0107062Y0367329D01*
X0107429Y0366962D01*
X0108163Y0366962D01*
X0108530Y0367329D01*
X0111482Y0368063D02*
X0112950Y0368063D01*
X0112216Y0368797D02*
X0112216Y0367329D01*
X0117973Y0368063D02*
X0119441Y0368063D01*
X0122393Y0367329D02*
X0122393Y0368797D01*
X0122760Y0369164D01*
X0123860Y0369164D01*
X0123860Y0366962D01*
X0122760Y0366962D01*
X0122393Y0367329D01*
X0124602Y0367329D02*
X0124969Y0366962D01*
X0125703Y0366962D01*
X0126070Y0367329D01*
X0126070Y0368797D01*
X0125703Y0369164D01*
X0124969Y0369164D01*
X0124602Y0368797D01*
X0126812Y0368797D02*
X0126812Y0367329D01*
X0127179Y0366962D01*
X0127913Y0366962D01*
X0128280Y0367329D01*
X0128280Y0368797D01*
X0127913Y0369164D01*
X0127179Y0369164D01*
X0126812Y0368797D01*
X0131232Y0368063D02*
X0132700Y0368063D01*
X0131966Y0368797D02*
X0131966Y0367329D01*
X0137723Y0368063D02*
X0139191Y0368063D01*
X0142143Y0368063D02*
X0142510Y0367696D01*
X0143610Y0367696D01*
X0142877Y0367696D02*
X0142143Y0366962D01*
X0142143Y0368063D02*
X0142143Y0368797D01*
X0142510Y0369164D01*
X0143610Y0369164D01*
X0143610Y0366962D01*
X0144352Y0366962D02*
X0144352Y0369164D01*
X0145820Y0369164D02*
X0145820Y0366962D01*
X0145086Y0367696D01*
X0144352Y0366962D01*
X0146562Y0368063D02*
X0146929Y0367696D01*
X0148030Y0367696D01*
X0148030Y0366962D02*
X0148030Y0369164D01*
X0146929Y0369164D01*
X0146562Y0368797D01*
X0146562Y0368063D01*
X0150982Y0368063D02*
X0152450Y0368063D01*
X0151716Y0368797D02*
X0151716Y0367329D01*
X0100427Y0368063D02*
X0098959Y0368063D01*
D11*
X0181260Y0339665D02*
X0181260Y0336062D01*
X0182461Y0336062D02*
X0180059Y0336062D01*
X0182461Y0338464D02*
X0181260Y0339665D01*
X0183743Y0339065D02*
X0184343Y0339665D01*
X0185544Y0339665D01*
X0186145Y0339065D01*
X0186145Y0336663D01*
X0185544Y0336062D01*
X0184343Y0336062D01*
X0183743Y0336663D01*
X0187399Y0336062D02*
X0188600Y0336062D01*
X0187999Y0336062D02*
X0187999Y0339665D01*
X0187399Y0339665D02*
X0188600Y0339665D01*
X0231881Y0316496D02*
X0234283Y0316496D01*
X0234283Y0314694D01*
X0233082Y0315295D01*
X0232481Y0315295D01*
X0231881Y0314694D01*
X0231881Y0313493D01*
X0232481Y0312893D01*
X0233682Y0312893D01*
X0234283Y0313493D01*
X0235564Y0313493D02*
X0236165Y0312893D01*
X0237366Y0312893D01*
X0237966Y0313493D01*
X0239247Y0313493D02*
X0239848Y0312893D01*
X0241049Y0312893D01*
X0241649Y0313493D01*
X0241649Y0315895D01*
X0241049Y0316496D01*
X0239848Y0316496D01*
X0239247Y0315895D01*
X0237966Y0315895D02*
X0237366Y0316496D01*
X0236165Y0316496D01*
X0235564Y0315895D01*
X0235564Y0315295D01*
X0236165Y0314694D01*
X0235564Y0314094D01*
X0235564Y0313493D01*
X0236165Y0314694D02*
X0236765Y0314694D01*
X0235182Y0301915D02*
X0236984Y0300114D01*
X0234582Y0300114D01*
X0235182Y0301915D02*
X0235182Y0298312D01*
X0238265Y0298312D02*
X0240667Y0298312D01*
X0239466Y0298312D02*
X0239466Y0301915D01*
X0240667Y0300714D01*
X0241948Y0301315D02*
X0242548Y0301915D01*
X0244350Y0301915D01*
X0244350Y0298312D01*
X0242548Y0298312D01*
X0241948Y0298913D01*
X0241948Y0301315D01*
X0264832Y0304312D02*
X0267234Y0304312D01*
X0266033Y0304312D02*
X0266033Y0307915D01*
X0267234Y0306714D01*
X0268515Y0306714D02*
X0269115Y0306114D01*
X0268515Y0305513D01*
X0268515Y0304913D01*
X0269115Y0304312D01*
X0270316Y0304312D01*
X0270917Y0304913D01*
X0272198Y0304312D02*
X0273399Y0305513D01*
X0272798Y0305513D02*
X0274600Y0305513D01*
X0274600Y0304312D02*
X0274600Y0307915D01*
X0272798Y0307915D01*
X0272198Y0307315D01*
X0272198Y0306114D01*
X0272798Y0305513D01*
X0270917Y0307315D02*
X0270316Y0307915D01*
X0269115Y0307915D01*
X0268515Y0307315D01*
X0268515Y0306714D01*
X0269115Y0306114D02*
X0269716Y0306114D01*
X0291000Y0343562D02*
X0291000Y0345364D01*
X0291601Y0345964D01*
X0294003Y0345964D01*
X0294603Y0345364D01*
X0294603Y0343562D01*
X0291000Y0343562D01*
X0291000Y0347245D02*
X0291000Y0349647D01*
X0291000Y0348446D02*
X0294603Y0348446D01*
X0293402Y0347245D01*
X0292802Y0350928D02*
X0293402Y0352130D01*
X0293402Y0352730D01*
X0292802Y0353331D01*
X0291601Y0353331D01*
X0291000Y0352730D01*
X0291000Y0351529D01*
X0291601Y0350928D01*
X0292802Y0350928D02*
X0294603Y0350928D01*
X0294603Y0353331D01*
X0364059Y0323815D02*
X0364059Y0323214D01*
X0364660Y0322614D01*
X0364059Y0322013D01*
X0364059Y0321413D01*
X0364660Y0320812D01*
X0365861Y0320812D01*
X0366461Y0321413D01*
X0367743Y0321413D02*
X0368343Y0320812D01*
X0369544Y0320812D01*
X0370145Y0321413D01*
X0370145Y0323815D01*
X0369544Y0324415D01*
X0368343Y0324415D01*
X0367743Y0323815D01*
X0366461Y0323815D02*
X0365861Y0324415D01*
X0364660Y0324415D01*
X0364059Y0323815D01*
X0364660Y0322614D02*
X0365260Y0322614D01*
X0371399Y0324415D02*
X0372600Y0324415D01*
X0371999Y0324415D02*
X0371999Y0320812D01*
X0371399Y0320812D02*
X0372600Y0320812D01*
X0285499Y0160665D02*
X0286100Y0160065D01*
X0286100Y0157663D01*
X0285499Y0157062D01*
X0284298Y0157062D01*
X0283698Y0157663D01*
X0282417Y0158864D02*
X0280015Y0158864D01*
X0278734Y0160065D02*
X0278734Y0157663D01*
X0278133Y0157062D01*
X0276932Y0157062D01*
X0276332Y0157663D01*
X0276332Y0160065D02*
X0276932Y0160665D01*
X0278133Y0160665D01*
X0278734Y0160065D01*
X0280615Y0160665D02*
X0282417Y0158864D01*
X0283698Y0160065D02*
X0284298Y0160665D01*
X0285499Y0160665D01*
X0280615Y0160665D02*
X0280615Y0157062D01*
X0139703Y0229913D02*
X0139703Y0231714D01*
X0139103Y0232315D01*
X0137902Y0232315D01*
X0137301Y0231714D01*
X0137301Y0229913D01*
X0137301Y0231114D02*
X0136100Y0232315D01*
X0136100Y0233596D02*
X0138502Y0235998D01*
X0139103Y0235998D01*
X0139703Y0235397D01*
X0139703Y0234196D01*
X0139103Y0233596D01*
X0136100Y0233596D02*
X0136100Y0235998D01*
X0136701Y0237279D02*
X0137301Y0237279D01*
X0137902Y0237880D01*
X0137902Y0239081D01*
X0137301Y0239681D01*
X0136701Y0239681D01*
X0136100Y0239081D01*
X0136100Y0237880D01*
X0136701Y0237279D01*
X0137902Y0237880D02*
X0138502Y0237279D01*
X0139103Y0237279D01*
X0139703Y0237880D01*
X0139703Y0239081D01*
X0139103Y0239681D01*
X0138502Y0239681D01*
X0137902Y0239081D01*
X0136100Y0229913D02*
X0139703Y0229913D01*
X0104353Y0229763D02*
X0104353Y0231564D01*
X0103753Y0232165D01*
X0102552Y0232165D01*
X0101951Y0231564D01*
X0101951Y0229763D01*
X0101951Y0230964D02*
X0100750Y0232165D01*
X0100750Y0233446D02*
X0100750Y0235848D01*
X0100750Y0234647D02*
X0104353Y0234647D01*
X0103152Y0233446D01*
X0104353Y0237129D02*
X0104353Y0239531D01*
X0103753Y0239531D01*
X0101351Y0237129D01*
X0100750Y0237129D01*
X0100750Y0229763D02*
X0104353Y0229763D01*
D12*
X0127200Y0229714D02*
X0127200Y0228746D01*
X0127684Y0228263D01*
X0128651Y0228263D01*
X0129135Y0228746D01*
X0129135Y0229714D01*
X0128651Y0230198D01*
X0128167Y0230198D01*
X0128167Y0228263D01*
X0127200Y0227266D02*
X0128167Y0226298D01*
X0129135Y0226298D01*
X0130102Y0227266D01*
X0129135Y0231209D02*
X0127200Y0233144D01*
X0127684Y0234639D02*
X0127200Y0235123D01*
X0127684Y0234639D02*
X0129619Y0234639D01*
X0129135Y0234156D02*
X0129135Y0235123D01*
X0129135Y0236120D02*
X0127200Y0236120D01*
X0128167Y0236120D02*
X0129135Y0237087D01*
X0129135Y0237571D01*
X0129135Y0239059D02*
X0129135Y0240027D01*
X0128651Y0240510D01*
X0127200Y0240510D01*
X0127200Y0239059D01*
X0127684Y0238575D01*
X0128167Y0239059D01*
X0128167Y0240510D01*
X0127200Y0241522D02*
X0128167Y0242489D01*
X0129135Y0242489D01*
X0130102Y0241522D01*
X0129135Y0233144D02*
X0127200Y0231209D01*
X0127684Y0222340D02*
X0129619Y0222340D01*
X0130102Y0221856D01*
X0130102Y0220405D01*
X0127200Y0220405D01*
X0127200Y0221856D01*
X0127684Y0222340D01*
X0127684Y0219394D02*
X0127200Y0218910D01*
X0127200Y0217942D01*
X0127684Y0217459D01*
X0129619Y0217459D01*
X0130102Y0217942D01*
X0130102Y0218910D01*
X0129619Y0219394D01*
X0129619Y0216447D02*
X0130102Y0215963D01*
X0130102Y0214996D01*
X0129619Y0214512D01*
X0127684Y0214512D01*
X0127200Y0214996D01*
X0127200Y0215963D01*
X0127684Y0216447D01*
X0129619Y0216447D01*
X0209067Y0325762D02*
X0208450Y0326379D01*
X0208450Y0327614D01*
X0209067Y0328231D01*
X0209067Y0329445D02*
X0208450Y0330063D01*
X0208450Y0331297D01*
X0209067Y0331914D01*
X0209684Y0331914D01*
X0210302Y0331297D01*
X0210302Y0330680D01*
X0210302Y0331297D02*
X0210919Y0331914D01*
X0211536Y0331914D01*
X0212153Y0331297D01*
X0212153Y0330063D01*
X0211536Y0329445D01*
X0211536Y0328231D02*
X0212153Y0327614D01*
X0212153Y0326379D01*
X0211536Y0325762D01*
X0209067Y0325762D01*
X0209067Y0333128D02*
X0208450Y0333746D01*
X0208450Y0334980D01*
X0209067Y0335597D01*
X0209684Y0335597D01*
X0210302Y0334980D01*
X0210302Y0333128D01*
X0209067Y0333128D01*
X0210302Y0333128D02*
X0211536Y0334363D01*
X0212153Y0335597D01*
X0267005Y0154915D02*
X0267005Y0152012D01*
X0267489Y0152012D02*
X0266521Y0152012D01*
X0268500Y0152012D02*
X0269952Y0152012D01*
X0270435Y0152496D01*
X0269952Y0152980D01*
X0268500Y0152980D01*
X0268500Y0153463D02*
X0268500Y0152012D01*
X0268500Y0153463D02*
X0268984Y0153947D01*
X0269952Y0153947D01*
X0271447Y0153463D02*
X0271447Y0152012D01*
X0271447Y0153463D02*
X0271931Y0153947D01*
X0273382Y0153947D01*
X0273382Y0152012D01*
X0274393Y0152496D02*
X0274393Y0153463D01*
X0274877Y0153947D01*
X0275845Y0153947D01*
X0276328Y0153463D01*
X0276328Y0152496D01*
X0275845Y0152012D01*
X0274877Y0152012D01*
X0274393Y0152496D01*
X0273880Y0149915D02*
X0274364Y0149431D01*
X0274364Y0147496D01*
X0273880Y0147012D01*
X0272913Y0147012D01*
X0272429Y0147496D01*
X0272429Y0149431D02*
X0272913Y0149915D01*
X0273880Y0149915D01*
X0275375Y0149431D02*
X0275859Y0149915D01*
X0277310Y0149915D01*
X0277310Y0147012D01*
X0275859Y0147012D01*
X0275375Y0147496D01*
X0275375Y0149431D01*
X0278322Y0149915D02*
X0278322Y0147980D01*
X0279289Y0147012D01*
X0280257Y0147980D01*
X0280257Y0149915D01*
X0281269Y0149915D02*
X0283203Y0149915D01*
X0283203Y0148463D01*
X0282236Y0148947D01*
X0281752Y0148947D01*
X0281269Y0148463D01*
X0281269Y0147496D01*
X0281752Y0147012D01*
X0282720Y0147012D01*
X0283203Y0147496D01*
X0284215Y0147496D02*
X0284699Y0147012D01*
X0285666Y0147012D01*
X0286150Y0147496D01*
X0285183Y0148463D02*
X0284699Y0148463D01*
X0284215Y0147980D01*
X0284215Y0147496D01*
X0284699Y0148463D02*
X0284215Y0148947D01*
X0284215Y0149431D01*
X0284699Y0149915D01*
X0285666Y0149915D01*
X0286150Y0149431D01*
X0285666Y0152012D02*
X0284699Y0152012D01*
X0284215Y0152496D01*
X0284215Y0154431D01*
X0284699Y0154915D01*
X0285666Y0154915D01*
X0286150Y0154431D01*
X0286150Y0152496D01*
X0285666Y0152012D01*
X0283203Y0152012D02*
X0281752Y0152012D01*
X0281269Y0152496D01*
X0281269Y0153463D01*
X0281752Y0153947D01*
X0283203Y0153947D01*
X0283203Y0151045D01*
X0279773Y0152496D02*
X0279289Y0152012D01*
X0279773Y0152496D02*
X0279773Y0154431D01*
X0280257Y0153947D02*
X0279289Y0153947D01*
X0278293Y0153947D02*
X0277809Y0153947D01*
X0277809Y0152012D01*
X0278293Y0152012D02*
X0277325Y0152012D01*
X0277809Y0154915D02*
X0277809Y0155398D01*
X0267489Y0154915D02*
X0267005Y0154915D01*
D13*
X0238300Y0303362D02*
X0241800Y0305362D01*
X0238300Y0307362D01*
X0238300Y0303362D01*
X0299300Y0346362D02*
X0297300Y0349862D01*
X0301300Y0349862D01*
X0299300Y0346362D01*
X0329700Y0329162D02*
X0336700Y0329162D01*
X0329700Y0329162D02*
X0329700Y0369562D01*
X0336700Y0369562D01*
D14*
X0117050Y0211112D02*
X0107050Y0211112D01*
X0106990Y0211114D01*
X0106929Y0211119D01*
X0106870Y0211128D01*
X0106811Y0211141D01*
X0106752Y0211157D01*
X0106695Y0211177D01*
X0106640Y0211200D01*
X0106585Y0211227D01*
X0106533Y0211256D01*
X0106482Y0211289D01*
X0106433Y0211325D01*
X0106387Y0211363D01*
X0106343Y0211405D01*
X0106301Y0211449D01*
X0106263Y0211495D01*
X0106227Y0211544D01*
X0106194Y0211595D01*
X0106165Y0211647D01*
X0106138Y0211702D01*
X0106115Y0211757D01*
X0106095Y0211814D01*
X0106079Y0211873D01*
X0106066Y0211932D01*
X0106057Y0211991D01*
X0106052Y0212052D01*
X0106050Y0212112D01*
X0106050Y0214612D01*
X0106550Y0215112D01*
X0106550Y0241112D01*
X0106050Y0241612D01*
X0106050Y0244112D01*
X0106052Y0244172D01*
X0106057Y0244233D01*
X0106066Y0244292D01*
X0106079Y0244351D01*
X0106095Y0244410D01*
X0106115Y0244467D01*
X0106138Y0244522D01*
X0106165Y0244577D01*
X0106194Y0244629D01*
X0106227Y0244680D01*
X0106263Y0244729D01*
X0106301Y0244775D01*
X0106343Y0244819D01*
X0106387Y0244861D01*
X0106433Y0244899D01*
X0106482Y0244935D01*
X0106533Y0244968D01*
X0106585Y0244997D01*
X0106640Y0245024D01*
X0106695Y0245047D01*
X0106752Y0245067D01*
X0106811Y0245083D01*
X0106870Y0245096D01*
X0106929Y0245105D01*
X0106990Y0245110D01*
X0107050Y0245112D01*
X0117050Y0245112D01*
X0117110Y0245110D01*
X0117171Y0245105D01*
X0117230Y0245096D01*
X0117289Y0245083D01*
X0117348Y0245067D01*
X0117405Y0245047D01*
X0117460Y0245024D01*
X0117515Y0244997D01*
X0117567Y0244968D01*
X0117618Y0244935D01*
X0117667Y0244899D01*
X0117713Y0244861D01*
X0117757Y0244819D01*
X0117799Y0244775D01*
X0117837Y0244729D01*
X0117873Y0244680D01*
X0117906Y0244629D01*
X0117935Y0244577D01*
X0117962Y0244522D01*
X0117985Y0244467D01*
X0118005Y0244410D01*
X0118021Y0244351D01*
X0118034Y0244292D01*
X0118043Y0244233D01*
X0118048Y0244172D01*
X0118050Y0244112D01*
X0118050Y0241612D01*
X0117550Y0241112D01*
X0117550Y0215112D01*
X0118050Y0214612D01*
X0118050Y0212112D01*
X0118048Y0212052D01*
X0118043Y0211991D01*
X0118034Y0211932D01*
X0118021Y0211873D01*
X0118005Y0211814D01*
X0117985Y0211757D01*
X0117962Y0211702D01*
X0117935Y0211647D01*
X0117906Y0211595D01*
X0117873Y0211544D01*
X0117837Y0211495D01*
X0117799Y0211449D01*
X0117757Y0211405D01*
X0117713Y0211363D01*
X0117667Y0211325D01*
X0117618Y0211289D01*
X0117567Y0211256D01*
X0117515Y0211227D01*
X0117460Y0211200D01*
X0117405Y0211177D01*
X0117348Y0211157D01*
X0117289Y0211141D01*
X0117230Y0211128D01*
X0117171Y0211119D01*
X0117110Y0211114D01*
X0117050Y0211112D01*
X0122300Y0212112D02*
X0122300Y0214612D01*
X0122800Y0215112D01*
X0122800Y0241112D01*
X0122300Y0241612D01*
X0122300Y0244112D01*
X0122302Y0244172D01*
X0122307Y0244233D01*
X0122316Y0244292D01*
X0122329Y0244351D01*
X0122345Y0244410D01*
X0122365Y0244467D01*
X0122388Y0244522D01*
X0122415Y0244577D01*
X0122444Y0244629D01*
X0122477Y0244680D01*
X0122513Y0244729D01*
X0122551Y0244775D01*
X0122593Y0244819D01*
X0122637Y0244861D01*
X0122683Y0244899D01*
X0122732Y0244935D01*
X0122783Y0244968D01*
X0122835Y0244997D01*
X0122890Y0245024D01*
X0122945Y0245047D01*
X0123002Y0245067D01*
X0123061Y0245083D01*
X0123120Y0245096D01*
X0123179Y0245105D01*
X0123240Y0245110D01*
X0123300Y0245112D01*
X0133300Y0245112D01*
X0133360Y0245110D01*
X0133421Y0245105D01*
X0133480Y0245096D01*
X0133539Y0245083D01*
X0133598Y0245067D01*
X0133655Y0245047D01*
X0133710Y0245024D01*
X0133765Y0244997D01*
X0133817Y0244968D01*
X0133868Y0244935D01*
X0133917Y0244899D01*
X0133963Y0244861D01*
X0134007Y0244819D01*
X0134049Y0244775D01*
X0134087Y0244729D01*
X0134123Y0244680D01*
X0134156Y0244629D01*
X0134185Y0244577D01*
X0134212Y0244522D01*
X0134235Y0244467D01*
X0134255Y0244410D01*
X0134271Y0244351D01*
X0134284Y0244292D01*
X0134293Y0244233D01*
X0134298Y0244172D01*
X0134300Y0244112D01*
X0134300Y0241612D01*
X0133800Y0241112D01*
X0133800Y0215112D01*
X0134300Y0214612D01*
X0134300Y0212112D01*
X0134298Y0212052D01*
X0134293Y0211991D01*
X0134284Y0211932D01*
X0134271Y0211873D01*
X0134255Y0211814D01*
X0134235Y0211757D01*
X0134212Y0211702D01*
X0134185Y0211647D01*
X0134156Y0211595D01*
X0134123Y0211544D01*
X0134087Y0211495D01*
X0134049Y0211449D01*
X0134007Y0211405D01*
X0133963Y0211363D01*
X0133917Y0211325D01*
X0133868Y0211289D01*
X0133817Y0211256D01*
X0133765Y0211227D01*
X0133710Y0211200D01*
X0133655Y0211177D01*
X0133598Y0211157D01*
X0133539Y0211141D01*
X0133480Y0211128D01*
X0133421Y0211119D01*
X0133360Y0211114D01*
X0133300Y0211112D01*
X0123300Y0211112D01*
X0123240Y0211114D01*
X0123179Y0211119D01*
X0123120Y0211128D01*
X0123061Y0211141D01*
X0123002Y0211157D01*
X0122945Y0211177D01*
X0122890Y0211200D01*
X0122835Y0211227D01*
X0122783Y0211256D01*
X0122732Y0211289D01*
X0122683Y0211325D01*
X0122637Y0211363D01*
X0122593Y0211405D01*
X0122551Y0211449D01*
X0122513Y0211495D01*
X0122477Y0211544D01*
X0122444Y0211595D01*
X0122415Y0211647D01*
X0122388Y0211702D01*
X0122365Y0211757D01*
X0122345Y0211814D01*
X0122329Y0211873D01*
X0122316Y0211932D01*
X0122307Y0211991D01*
X0122302Y0212052D01*
X0122300Y0212112D01*
X0298300Y0166862D02*
X0301300Y0166862D01*
X0299800Y0168362D02*
X0299800Y0165362D01*
X0288300Y0154862D02*
X0288305Y0155255D01*
X0288319Y0155647D01*
X0288343Y0156039D01*
X0288377Y0156430D01*
X0288420Y0156821D01*
X0288473Y0157210D01*
X0288536Y0157597D01*
X0288607Y0157983D01*
X0288689Y0158368D01*
X0288779Y0158750D01*
X0288880Y0159129D01*
X0288989Y0159507D01*
X0289108Y0159881D01*
X0289235Y0160252D01*
X0289372Y0160620D01*
X0289518Y0160985D01*
X0289673Y0161346D01*
X0289836Y0161703D01*
X0290008Y0162056D01*
X0290189Y0162404D01*
X0290379Y0162748D01*
X0290576Y0163088D01*
X0290782Y0163422D01*
X0290996Y0163751D01*
X0291219Y0164075D01*
X0291449Y0164393D01*
X0291686Y0164706D01*
X0291932Y0165012D01*
X0292185Y0165313D01*
X0292445Y0165607D01*
X0292712Y0165895D01*
X0292986Y0166176D01*
X0293267Y0166450D01*
X0293555Y0166717D01*
X0293849Y0166977D01*
X0294150Y0167230D01*
X0294456Y0167476D01*
X0294769Y0167713D01*
X0295087Y0167943D01*
X0295411Y0168166D01*
X0295740Y0168380D01*
X0296074Y0168586D01*
X0296414Y0168783D01*
X0296758Y0168973D01*
X0297106Y0169154D01*
X0297459Y0169326D01*
X0297816Y0169489D01*
X0298177Y0169644D01*
X0298542Y0169790D01*
X0298910Y0169927D01*
X0299281Y0170054D01*
X0299655Y0170173D01*
X0300033Y0170282D01*
X0300412Y0170383D01*
X0300794Y0170473D01*
X0301179Y0170555D01*
X0301565Y0170626D01*
X0301952Y0170689D01*
X0302341Y0170742D01*
X0302732Y0170785D01*
X0303123Y0170819D01*
X0303515Y0170843D01*
X0303907Y0170857D01*
X0304300Y0170862D01*
X0304693Y0170857D01*
X0305085Y0170843D01*
X0305477Y0170819D01*
X0305868Y0170785D01*
X0306259Y0170742D01*
X0306648Y0170689D01*
X0307035Y0170626D01*
X0307421Y0170555D01*
X0307806Y0170473D01*
X0308188Y0170383D01*
X0308567Y0170282D01*
X0308945Y0170173D01*
X0309319Y0170054D01*
X0309690Y0169927D01*
X0310058Y0169790D01*
X0310423Y0169644D01*
X0310784Y0169489D01*
X0311141Y0169326D01*
X0311494Y0169154D01*
X0311842Y0168973D01*
X0312186Y0168783D01*
X0312526Y0168586D01*
X0312860Y0168380D01*
X0313189Y0168166D01*
X0313513Y0167943D01*
X0313831Y0167713D01*
X0314144Y0167476D01*
X0314450Y0167230D01*
X0314751Y0166977D01*
X0315045Y0166717D01*
X0315333Y0166450D01*
X0315614Y0166176D01*
X0315888Y0165895D01*
X0316155Y0165607D01*
X0316415Y0165313D01*
X0316668Y0165012D01*
X0316914Y0164706D01*
X0317151Y0164393D01*
X0317381Y0164075D01*
X0317604Y0163751D01*
X0317818Y0163422D01*
X0318024Y0163088D01*
X0318221Y0162748D01*
X0318411Y0162404D01*
X0318592Y0162056D01*
X0318764Y0161703D01*
X0318927Y0161346D01*
X0319082Y0160985D01*
X0319228Y0160620D01*
X0319365Y0160252D01*
X0319492Y0159881D01*
X0319611Y0159507D01*
X0319720Y0159129D01*
X0319821Y0158750D01*
X0319911Y0158368D01*
X0319993Y0157983D01*
X0320064Y0157597D01*
X0320127Y0157210D01*
X0320180Y0156821D01*
X0320223Y0156430D01*
X0320257Y0156039D01*
X0320281Y0155647D01*
X0320295Y0155255D01*
X0320300Y0154862D01*
X0320295Y0154469D01*
X0320281Y0154077D01*
X0320257Y0153685D01*
X0320223Y0153294D01*
X0320180Y0152903D01*
X0320127Y0152514D01*
X0320064Y0152127D01*
X0319993Y0151741D01*
X0319911Y0151356D01*
X0319821Y0150974D01*
X0319720Y0150595D01*
X0319611Y0150217D01*
X0319492Y0149843D01*
X0319365Y0149472D01*
X0319228Y0149104D01*
X0319082Y0148739D01*
X0318927Y0148378D01*
X0318764Y0148021D01*
X0318592Y0147668D01*
X0318411Y0147320D01*
X0318221Y0146976D01*
X0318024Y0146636D01*
X0317818Y0146302D01*
X0317604Y0145973D01*
X0317381Y0145649D01*
X0317151Y0145331D01*
X0316914Y0145018D01*
X0316668Y0144712D01*
X0316415Y0144411D01*
X0316155Y0144117D01*
X0315888Y0143829D01*
X0315614Y0143548D01*
X0315333Y0143274D01*
X0315045Y0143007D01*
X0314751Y0142747D01*
X0314450Y0142494D01*
X0314144Y0142248D01*
X0313831Y0142011D01*
X0313513Y0141781D01*
X0313189Y0141558D01*
X0312860Y0141344D01*
X0312526Y0141138D01*
X0312186Y0140941D01*
X0311842Y0140751D01*
X0311494Y0140570D01*
X0311141Y0140398D01*
X0310784Y0140235D01*
X0310423Y0140080D01*
X0310058Y0139934D01*
X0309690Y0139797D01*
X0309319Y0139670D01*
X0308945Y0139551D01*
X0308567Y0139442D01*
X0308188Y0139341D01*
X0307806Y0139251D01*
X0307421Y0139169D01*
X0307035Y0139098D01*
X0306648Y0139035D01*
X0306259Y0138982D01*
X0305868Y0138939D01*
X0305477Y0138905D01*
X0305085Y0138881D01*
X0304693Y0138867D01*
X0304300Y0138862D01*
X0303907Y0138867D01*
X0303515Y0138881D01*
X0303123Y0138905D01*
X0302732Y0138939D01*
X0302341Y0138982D01*
X0301952Y0139035D01*
X0301565Y0139098D01*
X0301179Y0139169D01*
X0300794Y0139251D01*
X0300412Y0139341D01*
X0300033Y0139442D01*
X0299655Y0139551D01*
X0299281Y0139670D01*
X0298910Y0139797D01*
X0298542Y0139934D01*
X0298177Y0140080D01*
X0297816Y0140235D01*
X0297459Y0140398D01*
X0297106Y0140570D01*
X0296758Y0140751D01*
X0296414Y0140941D01*
X0296074Y0141138D01*
X0295740Y0141344D01*
X0295411Y0141558D01*
X0295087Y0141781D01*
X0294769Y0142011D01*
X0294456Y0142248D01*
X0294150Y0142494D01*
X0293849Y0142747D01*
X0293555Y0143007D01*
X0293267Y0143274D01*
X0292986Y0143548D01*
X0292712Y0143829D01*
X0292445Y0144117D01*
X0292185Y0144411D01*
X0291932Y0144712D01*
X0291686Y0145018D01*
X0291449Y0145331D01*
X0291219Y0145649D01*
X0290996Y0145973D01*
X0290782Y0146302D01*
X0290576Y0146636D01*
X0290379Y0146976D01*
X0290189Y0147320D01*
X0290008Y0147668D01*
X0289836Y0148021D01*
X0289673Y0148378D01*
X0289518Y0148739D01*
X0289372Y0149104D01*
X0289235Y0149472D01*
X0289108Y0149843D01*
X0288989Y0150217D01*
X0288880Y0150595D01*
X0288779Y0150974D01*
X0288689Y0151356D01*
X0288607Y0151741D01*
X0288536Y0152127D01*
X0288473Y0152514D01*
X0288420Y0152903D01*
X0288377Y0153294D01*
X0288343Y0153685D01*
X0288319Y0154077D01*
X0288305Y0154469D01*
X0288300Y0154862D01*
D15*
X0128300Y0209412D03*
X0112050Y0209412D03*
X0112050Y0246812D03*
X0128300Y0246812D03*
D16*
X0324200Y0339362D03*
X0324200Y0349362D03*
X0324200Y0359362D03*
D17*
X0189300Y0367264D02*
X0189300Y0341461D01*
X0165700Y0341462D01*
X0165700Y0367262D02*
X0189300Y0367264D01*
D18*
X0191200Y0354362D03*
M02*
