%
M48
M72
T01C0.0236
T02C0.0240
T03C0.0276
T04C0.0320
T05C0.0360
T06C0.0394
T07C0.0400
T08C0.0512
T09C0.0630
T10C0.1260
%
T01
X15330Y16686
X18080Y19436
X19080Y16686
X22530Y20036
X23830Y20936
X22830Y22436
X21080Y22436
X21080Y24186
X21580Y25936
X22080Y26186
X22580Y26436
X23330Y25936
X20580Y28436
X20330Y27936
X20080Y27436
X18830Y29686
X18580Y30186
X18580Y31686
X20380Y32586
X22580Y30686
X24455Y29311
X27330Y28186
X27730Y28636
X28580Y30686
X29830Y29436
X30580Y29936
X30580Y30436
X30580Y33436
X31080Y33436
X31580Y33436
X31580Y36436
X31080Y36436
X30580Y36436
X25581Y32560
X30080Y26436
X28330Y26186
X34080Y23936
X30080Y20686
X28080Y19761
X28555Y18436
X30080Y17686
X26830Y17686
X26830Y16786
X25830Y16036
X24830Y16436
X25830Y13486
X28530Y12286
X28430Y10886
X29030Y8886
X28230Y6586
X33230Y4286
X34530Y7686
X35630Y11286
X34130Y14886
X34080Y19936
X34080Y28686
X16705Y34561
X12940Y33511
X12330Y32436
X14330Y30436
X13330Y29436
X12330Y29936
X15580Y28686
X14830Y24686
X14830Y23186
X10010Y22076
X8430Y20786
X8730Y24286
X8830Y26936
T02
X15080Y27186
X16080Y27186
X17080Y27186
T03
X7530Y26986
X7530Y26238
X7530Y27734
T04
X8330Y30186
X9330Y30186
X9330Y31186
X8330Y31186
X8330Y32186
X9330Y32186
X9330Y33186
X8330Y33186
X11205Y25311
X12830Y25311
X12830Y20311
X11205Y20311
X24080Y34686
X24080Y36086
X21180Y35361
X19780Y35361
X27580Y34736
X27580Y36136
X30380Y32436
X31780Y32436
X31780Y23436
X30380Y23436
X30430Y16186
X30430Y14786
T05
X15455Y18936
X9455Y18936
X26730Y32986
X27730Y32986
T06
X15080Y35936
X14080Y35936
X13080Y35936
X12080Y35936
X11080Y35936
X10080Y35936
T07
X22580Y32686
X23580Y32686
X24580Y32686
X27580Y24436
X28580Y24436
X28580Y23436
X28580Y22436
X27580Y22436
X27580Y23436
X26930Y12386
X25930Y12386
X25930Y11386
X26930Y11386
X26930Y10386
X25930Y10386
X9955Y15311
X9955Y16311
X9955Y17311
T08
X11569Y17197
X11569Y16311
X11569Y15425
X12455Y14835
X13341Y15425
X13341Y17197
X12455Y17788
T09
X7157Y17467
X7157Y19633
X7157Y22167
X7157Y24333
X6546Y26041
X6546Y28010
X38857Y34067
X38857Y36233
X41357Y33933
X41357Y31767
X41057Y26833
X41057Y24667
X40857Y19233
X40857Y17067
X40957Y10633
X40957Y8467
X40957Y4133
X40957Y1967
T10
X7305Y2361
X31255Y2461
X9538Y27026
X7205Y36311
X41455Y36311
M30
